<?xml version="1.0" encoding="UTF-8"?>
<!DOCTYPE svg PUBLIC "-//W3C//DTD SVG 1.1//EN" "http://www.w3.org/Graphics/SVG/1.1/DTD/svg11.dtd">
<!-- Creator: CorelDRAW X7 -->
<svg xmlns="http://www.w3.org/2000/svg" xml:space="preserve" width="8.5in" height="11in" version="1.1" style="shape-rendering:geometricPrecision; text-rendering:geometricPrecision; image-rendering:optimizeQuality; fill-rule:evenodd; clip-rule:evenodd"
viewBox="0 0 8500 11000"
 xmlns:xlink="http://www.w3.org/1999/xlink">
 <defs>
  <style type="text/css">
   <![CDATA[
    .fil3 {fill:#FEFEFE}
    .fil4 {fill:#E18D38}
    .fil1 {fill:#E19A3E}
    .fil5 {fill:#BC6C3A}
    .fil2 {fill:#BA6B39}
    .fil0 {fill:#2A2B2B}
   ]]>
  </style>
 </defs>
 <g id="Layer_x0020_1">
  <metadata id="CorelCorpID_0Corel-Layer"/>
  <g id="_79743614624">
   <path class="fil0" d="M7974 5779c0,0 404,571 260,1046 0,0 -35,-89 -67,-104 0,0 78,448 -36,601 0,0 -19,-188 -17,-218 0,0 -103,571 -345,1016 0,0 299,-742 171,-1340 0,0 -29,-51 -55,205 0,0 -9,-64 -37,-73 0,0 17,296 -75,400 5,-3 89,-56 112,-87 0,0 -41,431 -188,727l-4 -324c0,0 -64,57 -92,171 0,0 -83,296 13,539 0,0 29,79 57,-11 0,0 41,131 70,211 0,0 -87,-40 -196,-23 0,0 -20,27 124,228 0,0 -31,22 -506,-235l-3 151c0,0 -218,-205 -271,151 0,0 -8,195 171,210 0,0 48,32 -31,22 0,0 -72,42 -133,46 0,0 -332,-187 -555,-267 8,5 271,192 445,273 -18,-8 -316,-133 -357,-141 0,0 113,140 161,178 0,0 -22,124 -22,153 0,0 -296,-517 -692,-657 0,0 369,301 444,571 0,0 -98,-124 -201,-80l-131 -113c0,0 13,76 94,195 0,0 -431,-233 -354,193 -4,-12 -140,-378 -218,-403 0,0 -39,-50 -39,396 0,0 -13,-258 -144,-251 0,-1 -94,-4 -138,151 0,0 -175,64 -223,-187 0,0 -111,-48 -100,382 0,0 -48,-64 -96,-153 0,0 -22,55 -29,122l-211 -164c0,0 -61,292 -144,300 0,0 -68,14 -125,-11l0 0c-57,25 -125,12 -125,12 -83,-8 -146,-300 -146,-300l-209 166c-8,-67 -31,-123 -31,-123 -47,90 -95,154 -95,154 9,-430 -102,-381 -102,-381 -46,250 -222,187 -222,187 -45,-154 -139,-150 -139,-150 -131,-6 -142,253 -142,253 -3,-447 -42,-397 -42,-397 -78,26 -211,393 -215,404 75,-426 -355,-191 -355,-191 80,-119 93,-195 93,-195l-131 113c-103,-43 -200,82 -200,82 74,-271 441,-573 441,-573 -396,141 -688,660 -688,660 0,-29 -23,-153 -23,-153 47,-39 159,-179 159,-179 -40,8 -328,131 -355,142 174,-82 435,-269 443,-275 -223,82 -554,270 -554,270 -61,-3 -133,-45 -133,-45 -79,11 -31,-22 -31,-22 178,-16 170,-210 170,-210 -56,-356 -272,-150 -272,-150l-5 -151c-473,259 -504,237 -504,237 143,-202 122,-229 122,-229 -109,-16 -195,25 -195,25 29,-81 68,-212 68,-212 29,90 58,11 58,11 94,-244 10,-539 10,-539 -29,-114 -94,-171 -94,-171l-1 324c-150,-294 -193,-726 -193,-726 23,31 107,83 113,87 -93,-104 -78,-400 -78,-400 -28,9 -37,73 -37,73 -27,-255 -56,-205 -56,-205 -124,599 179,1340 179,1340 -244,-444 -351,-1015 -351,-1015 2,31 -15,219 -15,219 -115,-153 -41,-601 -41,-601 -31,15 -65,104 -65,104 -147,-475 253,-1048 253,-1048 -44,39 -97,14 -97,14 -43,43 -193,113 -202,117 394,-249 306,-826 306,-826 -38,49 -172,167 -172,167 50,-193 198,-503 198,-503 -144,7 -32,-467 -32,-467 -22,12 -114,118 -114,118 90,-473 310,-635 317,-640 -75,33 -143,57 -143,57 51,-53 55,-80 55,-80 -25,3 -63,19 -85,29 283,-139 476,-567 476,-567 -98,-330 210,-639 210,-639 207,-4 449,55 449,55 876,-175 1466,-699 1485,-716 -170,182 -121,182 -121,182 67,-16 359,-219 359,-219 375,-238 458,-163 458,-163 61,25 78,30 78,30 316,-22 179,-327 175,-336 50,59 96,133 112,159 15,-26 61,-100 111,-159 -4,9 -140,314 177,334 0,0 16,-5 77,-30 0,0 83,-76 460,161 0,0 293,202 360,217 0,0 49,0 -122,-181 18,16 612,538 1489,708 0,0 242,-60 448,-57 0,0 310,307 214,638 0,0 196,427 480,564 -22,-10 -61,-26 -85,-28 0,0 4,27 56,79 0,0 -69,-23 -144,-55 7,5 228,165 321,638 0,0 -92,-106 -115,-118 1,0 115,474 -29,467 0,0 149,309 201,503 0,0 -135,-118 -173,-167 0,0 -85,578 311,825 -9,-5 -160,-74 -203,-116 0,0 -53,25 -97,-13z"/>
   <path class="fil1" d="M4743 2505c0,0 -136,-34 -206,-34 0,0 289,-186 618,111 0,0 -55,-64 -55,-84 0,0 443,155 691,168 0,0 -314,-153 -356,-190 0,0 316,4 599,227l-140 -145c0,0 217,-9 478,229 0,0 -132,91 -468,155 0,0 18,-36 53,-62 0,0 -381,221 -647,92 0,0 -19,-17 60,-27 0,0 -307,-208 -737,-220 0,0 48,-65 134,-113 0,0 -226,66 -318,61 0,0 -72,-13 -66,-67 0,0 -24,-113 360,-101z"/>
   <path class="fil2" d="M4482 2900l74 -20c0,0 92,47 128,70 0,0 -44,-49 -46,-84 0,0 190,232 618,146l87 156 16 -115 122 3c0,0 24,60 -17,91 0,0 -75,35 7,80 0,0 61,52 -263,39 0,0 -95,-22 135,-61 0,0 -201,-16 -331,10 0,0 -109,34 -320,-38 0,0 219,15 323,-77 0,0 -115,6 -252,-56 0,0 -139,-65 -251,-32l-30 -112z"/>
   <path class="fil2" d="M5570 3251c0,0 198,27 364,-15 0,0 -207,53 -279,90 0,0 -91,81 -157,0 0,0 -22,-47 94,-27 0,0 -19,-36 -22,-48z"/>
   <path class="fil2" d="M6141 3084c0,0 465,-235 893,-283 0,0 -82,77 -292,157 0,0 243,11 392,-110 0,0 38,-54 -54,-74 0,0 -44,-22 62,-17 0,0 80,7 106,124 0,0 59,239 -50,380 0,0 -86,82 -268,126 0,0 20,-9 40,-25 0,0 -29,10 -40,8 0,0 173,-60 231,-134 0,0 113,-110 -331,10 0,0 341,-123 361,-205 0,0 -239,-51 -657,62 0,0 -57,23 -114,72 0,0 -263,269 -765,235 0,0 -36,-17 35,-48 0,0 353,-147 495,-178 0,0 279,-94 371,-150 0,0 -163,61 -195,59 0,0 208,-118 251,-118 0,0 -361,76 -471,109z"/>
   <path class="fil2" d="M6995 3368c0,0 111,-13 174,-38 0,0 -55,47 -65,65 0,0 133,135 -165,316 0,0 -31,155 -17,222 0,0 -49,-44 -70,-120 0,0 -16,41 0,96 0,0 -95,-156 -132,-186 0,0 94,-15 138,-9 0,0 -29,-32 -18,-37 0,0 108,-45 150,-65 0,0 -443,151 -943,-50 0,-1 233,-41 417,31 0,0 -14,29 -136,2 0,0 276,134 673,-91 0,0 203,-105 -6,-136z"/>
   <path class="fil3" d="M6062 3439c0,0 380,-141 465,-302 0,0 379,-46 438,-29 0,0 84,20 -193,71 0,0 -66,20 -164,-22 0,0 27,37 175,50 0,0 -19,19 -175,29 0,0 31,79 333,-9 0,0 171,-60 228,-20 0,0 24,52 -232,155 0,0 -55,42 39,25 0,0 97,-27 104,33 0,0 8,79 -248,125 0,0 -162,27 -460,-37 0,0 -270,-69 -310,-69z"/>
   <path class="fil2" d="M4502 3012c0,0 -163,46 -255,193l-5 7 -4 -7c-93,-146 -257,-191 -257,-191 102,-98 189,-95 189,-95 37,-3 62,54 72,80 9,-26 34,-83 71,-81 0,0 86,-3 189,94z"/>
   <polygon class="fil2" points="4242,3212 4238,3219 4238,3205 "/>
   <path class="fil1" d="M4382 3093l190 0c0,0 -202,72 175,343 0,-1 -20,-105 -13,-130 0,0 202,84 322,188 0,0 20,-38 24,-105l182 24c0,0 -79,105 294,70 0,0 64,58 -103,109 0,0 39,35 55,67 0,0 -108,-59 -171,-82 0,0 -19,25 41,54 0,0 -131,25 -228,-128 0,0 -34,-2 -83,80 0,0 706,299 890,590 0,0 -175,-124 -311,-129 0,0 -5,13 77,90 0,0 -189,-72 -340,-307 0,0 2,159 270,327 0,0 328,177 337,397 0,0 -53,-91 -101,-99 0,0 -85,-51 -120,-106 0,0 11,44 85,104 0,0 132,136 -59,275 0,0 37,6 79,-25 0,0 -37,76 11,187 0,0 55,117 -72,171 0,0 63,-126 -58,-220 0,0 -173,-161 -56,-309 0,0 -33,-72 -62,-84 0,0 -35,10 -41,37 0,0 -9,-133 81,-168 0,0 -75,-49 -156,-200 0,0 -16,109 -57,170 0,0 -24,5 -20,-12 0,0 -19,77 -46,111 0,0 79,-69 152,-72 0,0 35,16 19,68 0,0 -19,-10 -28,-15 0,0 28,88 -62,118 0,0 38,27 83,28 0,0 -70,27 -114,-6 0,0 -223,-178 -251,-412 0,0 134,40 225,133 0,0 -43,-170 -63,-202 0,0 66,47 89,73 0,0 -131,-330 -442,-479 0,0 -4,17 35,59 0,0 -248,-52 -342,-254 0,0 -29,42 7,244 0,0 -174,-103 -224,-405 0,0 -39,17 -44,66 0,0 -37,-11 -35,-118 0,0 -20,-22 -59,10 0,0 32,-99 38,-126z"/>
   <path class="fil1" d="M4690 3997c0,0 -48,25 -81,0 0,0 -20,33 -44,-2 0,0 0,65 16,101 0,0 -11,-4 -55,0 0,0 -9,26 -9,57 0,0 -145,-31 -195,-479 0,0 -38,30 -73,106l-5 12 -5 -12c-35,-75 -74,-106 -74,-106 -47,449 -191,480 -191,480 -1,-30 -10,-57 -10,-57 -44,-3 -55,0 -55,0 16,-35 16,-100 16,-100 -24,35 -44,1 -44,1 -33,26 -81,1 -81,1l206 -204c-53,5 -66,-14 -66,-14 172,-101 271,-289 299,-349l4 -9 4 9c29,60 128,247 301,348 0,0 -13,18 -66,13l208 204z"/>
   <path class="fil1" d="M4243 3423l-4 9 0 -19c0,0 1,4 4,10z"/>
   <polygon class="fil1" points="4244,3792 4239,3805 4239,3780 "/>
   <path class="fil1" d="M4798 3896c0,0 -114,-106 -127,-143 0,0 -80,5 64,257 0,0 203,50 341,254 0,0 29,10 48,-126 0,0 -9,-49 43,47 0,0 32,-52 14,-110 0,0 -79,26 -326,-309 0,0 -42,-40 -13,54 0,0 26,110 61,188 0,0 -73,-64 -169,-119 0,0 68,34 64,7z"/>
   <path class="fil1" d="M4982 4613c0,0 -344,89 -625,-222 1,2 6,20 33,64 0,0 -77,-35 -99,-67 0,0 29,-17 31,-32 0,0 -34,6 -72,35l-4 3 -4 -3c-39,-29 -72,-35 -72,-35 2,16 31,32 31,32 -22,32 -99,68 -99,68 27,-44 32,-62 33,-64 -280,312 -624,225 -624,225 475,-176 403,-290 403,-290 36,-20 43,-24 44,-25 33,87 -115,177 -115,177 58,-7 92,-42 92,-42 31,-48 84,-31 84,-31 150,-167 205,-291 222,-341l4 -11 4 11c18,50 73,174 224,340 0,0 53,-17 84,30 0,0 34,35 92,42 0,0 -149,-89 -115,-176 1,0 8,4 44,25 0,0 -72,114 404,287z"/>
   <path class="fil1" d="M4245 4054l-4 11 0 -25c0,0 1,5 4,14z"/>
   <polygon class="fil1" points="4246,4394 4242,4396 4242,4391 "/>
   <path class="fil1" d="M5646 3540c0,0 302,-14 454,112 0,0 -20,7 -143,0 0,0 465,54 568,202 0,0 11,38 -278,-108 0,0 -20,9 8,61 0,0 -105,-32 -186,-32 0,0 337,59 636,225 0,0 -167,-14 -224,0 0,0 263,8 655,428 0,0 -102,-245 -295,-388 0,0 37,-12 92,17 0,0 24,-109 116,-163 0,0 -29,66 215,393 0,0 -176,-94 -219,-196 0,0 -23,102 76,199 0,0 206,165 301,758 0,0 35,-84 30,-99 0,0 16,17 35,64 0,0 44,-303 -168,-612 0,0 142,155 236,133 0,0 -267,-264 -281,-410 0,0 60,88 114,104 0,0 -205,-181 -201,-549 0,0 338,208 403,485 0,0 -91,-81 -116,-124l-4 -7c-18,-40 85,237 160,313 0,0 -55,-4 -117,-52 0,0 80,198 139,258 0,0 -20,1 -68,-18 0,0 59,418 50,553 0,0 4,18 -15,21 0,0 -101,31 50,254 0,0 72,124 92,138 0,0 -68,-25 -127,-76 0,0 158,158 195,303 0,0 -133,-135 -188,-172l-5 -4c-52,-31 174,184 307,538 0,0 -379,-428 -592,-480 0,0 325,220 544,544 0,0 -296,-114 -495,-321l107 131 -55 4c0,0 289,183 377,344 0,0 -280,-171 -511,-398 0,0 13,39 58,99 1,0 -36,10 -42,8 0,0 202,271 335,402 0,0 -191,-111 -353,-348 0,0 112,205 118,217 0,0 47,59 33,223 0,0 -48,-124 -103,-92 0,0 -35,20 0,99 0,0 -100,12 -243,-190 0,0 15,131 313,408 0,0 -87,-3 -186,-35 0,0 -4,37 55,91 0,0 -72,32 -237,-143 0,0 51,103 121,170 0,0 -11,10 -61,-25 0,-1 4,25 22,38 0,0 -68,-10 -125,-70 0,0 11,57 11,85 0,0 -22,25 -196,-80 0,0 -33,11 35,102 0,0 -23,-18 -79,-22 0,0 5,22 38,69 0,0 -189,-121 -283,-114 0,0 85,99 37,151 0,0 -50,52 -116,-35 0,0 -4,-30 -88,-25l-63 -58c0,0 17,34 -31,64l-74 32 6 -48c0,0 -30,18 -53,10 0,0 -24,8 -6,-116 0,0 61,27 86,55l13 -102c0,0 39,13 85,47 0,0 -15,-104 -33,-153 0,0 -184,183 -366,186 0,0 323,-198 484,-436 0,0 58,95 -74,218l123 242 -9 -145c0,0 188,-8 259,68 0,0 35,-106 -151,-207 1,0 205,-35 438,156 0,0 -94,-153 -105,-181 0,0 74,17 103,18 0,0 81,5 118,61 0,0 83,104 213,65 0,0 -59,-57 -130,-77l51 -7c0,0 -287,-264 -401,-468 0,0 -31,-34 63,-11 0,0 142,18 204,192l7 -106c0,0 46,77 78,79 0,0 -35,-171 -140,-336 0,0 123,86 231,106 0,0 -248,-233 -264,-558 0,0 18,-156 141,-42 0,0 -3,-58 2,-80 0,0 37,25 59,25 0,0 -35,-92 -180,-222 0,0 93,25 165,62 0,0 -2,-8 -22,-67 0,0 110,29 193,59 0,0 -176,-131 -154,-225 0,0 16,-69 169,94 0,0 -33,-210 -482,-401 0,0 96,-9 149,-51 0,0 -417,-70 -712,-302 0,0 -42,-44 43,-30 0,0 215,52 331,137l-123 -141c0,0 -177,-54 -214,-54l155 -13c0,0 -497,-151 -618,-338 0,0 -46,-60 13,-121 0,0 -175,56 -263,-75 0,0 -63,-94 -50,-161z"/>
   <path class="fil2" d="M6061 4521c0,0 -31,-192 -119,-290 0,0 110,40 146,53 0,0 3,-38 -22,-53 0,0 238,312 618,378 0,0 -160,12 -193,0 0,0 295,144 502,184 0,0 -96,22 -292,-38l-3 42c0,0 -12,1 -90,-35 0,0 106,129 385,182 0,0 -165,48 -276,40 0,0 75,111 58,177 0,0 -16,108 141,216 0,0 -124,-23 -218,-78 0,0 248,325 124,816 0,0 -30,-2 -29,-108 0,0 -18,134 -81,199 0,0 -78,91 -80,169l-66 12c0,0 0,-264 27,-362 0,0 25,43 36,85 0,0 165,-310 -110,-826 0,0 218,-76 -80,-464 0,0 -80,-55 -64,-123 0,0 6,-40 -38,-103 0,0 -50,179 110,352 0,0 -19,15 -97,-32 0,0 171,204 31,302 0,0 5,-45 -22,-55 0,0 -33,118 -58,148 0,0 182,229 176,567 0,0 -16,30 -40,-29 0,0 26,106 -37,195 0,0 92,-82 127,-82 0,0 68,35 -160,307 0,0 -39,-112 -28,-206 0,0 -64,141 -103,208 0,0 -82,-89 -272,51 0,0 -31,20 -66,-14 0,0 -33,-27 -61,5 0,0 -25,35 -93,0 0,0 -67,-30 -92,-47 0,0 117,25 185,7 0,0 -112,-20 -81,-67 0,0 28,-39 100,20 0,0 38,-24 51,-41 0,0 4,23 -27,71 0,0 42,-2 62,-2 0,0 -11,17 -18,17 0,0 296,-64 369,-314 0,0 -93,133 -189,191 0,0 9,-72 112,-171 0,0 -22,-13 -57,10 0,0 89,-55 163,-302 0,0 -36,-20 -75,55 0,0 39,-191 -47,-200l-10 -87c0,0 37,14 57,35 0,0 4,-25 0,-30 0,0 78,19 111,156 0,0 -6,-131 -44,-161 0,0 25,2 44,10 0,0 -210,-284 -217,-285 0,0 -24,-61 24,-84l-76 -4c0,0 -29,-109 -60,-122 0,0 64,-74 125,-104 0,0 80,-22 168,-14 0,0 -198,-111 -65,-380 0,0 -81,79 -109,138 0,0 31,-192 -77,-270 0,0 46,136 -10,185z"/>
   <path class="fil3" d="M4598 4287c0,0 318,242 531,108 0,0 -160,23 -171,-42 0,0 -25,-61 67,-29 0,0 95,30 123,55 0,0 -6,-43 0,-72 0,0 42,37 64,83 0,0 6,-54 8,-71 0,0 45,96 132,171 0,0 90,36 136,46 0,0 32,-22 69,-24 0,0 69,51 52,279 0,0 -46,5 -138,-173 0,0 0,86 15,106 0,0 -35,-27 -44,-56 0,0 160,279 66,363 0,0 -55,54 -99,-7 0,0 -49,-144 9,-216 0,0 -313,-44 -382,-148 0,0 84,0 103,-13 0,0 -59,-21 -68,-46 0,0 -73,18 -96,9 0,0 -402,-141 -400,-278 0,0 23,47 23,-45z"/>
   <path class="fil3" d="M4708 4670c0,0 107,27 186,29 0,0 -88,11 -109,11 1,0 170,4 253,61 0,0 71,30 -82,82 0,0 12,20 91,0 0,0 27,7 25,56 0,0 -24,-27 -36,-31 0,0 -4,12 16,31 0,0 -50,5 -118,-9 0,0 50,32 122,32 0,0 26,12 38,81 0,0 -25,0 -34,-22 0,0 25,34 20,62 0,0 -4,5 -24,5 0,0 64,74 84,92 0,0 57,46 -35,94 0,0 -20,37 62,-18 0,0 3,35 -16,83 0,0 30,-7 48,-21 0,0 -14,64 -13,119 0,0 70,-85 142,-126 0,0 -46,86 -46,136 0,0 -184,27 -316,284 0,0 88,-89 128,-89 0,0 -16,34 -33,57 0,0 13,0 19,10 0,0 -129,76 -19,170 0,0 46,39 -23,30 0,0 -36,-10 -56,-26 0,0 -11,35 11,95 0,0 -35,-3 -33,-33 0,0 -13,64 -46,55l57 47c0,0 -11,44 -59,42 0,0 -33,-70 -117,-143l24 -6c0,0 -162,-56 -244,-214 0,0 5,15 78,15 0,0 151,188 287,175 0,0 20,-15 -33,-15 0,0 -125,-107 224,-443 0,0 -62,26 -70,30 0,0 30,-52 50,-69 0,0 -63,25 -68,49 0,0 5,-46 2,-64 0,0 -30,169 -164,269 0,0 -18,-24 -13,-71 0,0 -3,-27 -22,-2 0,0 -49,31 -49,-5 0,0 12,-47 16,-87 0,0 35,20 55,45 0,0 11,-58 -18,-131 0,0 74,2 102,125 0,0 6,-94 -60,-140 0,0 -75,-64 -75,-158 0,0 59,-26 135,146 0,0 30,-67 -8,-129 0,0 -11,13 -21,19 0,0 -16,-237 -134,-370 0,0 -40,-50 33,-77 0,0 -141,-27 -114,-138z"/>
   <path class="fil3" d="M5078 4846c0,0 57,-33 127,34 0,0 -24,32 -64,32 0,0 -67,-34 -63,-66z"/>
   <path class="fil3" d="M5167 4937c0,0 91,2 121,-15 0,0 147,111 49,333 0,0 -88,58 -106,54 0,0 -17,-44 3,-118 0,0 6,30 19,32 0,0 53,-171 -86,-286z"/>
   <path class="fil3" d="M5804 4945c0,0 -106,-100 -152,137 0,0 38,-12 49,-29 0,0 57,255 -241,237l0 -56c0,0 -81,58 -97,105 0,0 48,33 333,-21 0,0 -22,-10 -31,-25 0,0 136,20 125,-227 0,0 58,-73 14,-121z"/>
   <path class="fil3" d="M5821 5076c0,0 48,-3 77,-38 0,0 39,60 18,158l45 -32 0 91c0,0 -168,117 -254,141 0,0 -81,12 -145,-31 0,0 264,-13 299,-110 0,0 -24,16 -55,15 0,0 100,-44 15,-194z"/>
   <path class="fil3" d="M6062 5234l18 -45c0,0 110,111 156,176 0,0 -128,-119 -174,-131z"/>
   <path class="fil3" d="M6007 5290l27 -35c0,0 68,77 103,80 0,0 -64,5 -130,-45z"/>
   <path class="fil3" d="M6007 5290c0,0 -50,-7 -17,45 0,0 20,59 72,62 0,0 84,-6 123,20 0,0 16,-48 -66,-52 0,0 -92,-16 -112,-75z"/>
   <path class="fil3" d="M5521 5819c0,0 261,-89 240,-353 0,0 30,2 47,24 0,0 0,-64 26,-93 0,0 46,39 103,41 0,0 2,18 -54,32 0,0 -9,47 78,40 0,0 14,62 -140,86 0,0 84,50 -94,131 0,0 -7,58 186,-56 0,0 -129,81 -188,136 0,0 -175,118 -204,12z"/>
   <path class="fil3" d="M5208 5957l199 -67c0,0 50,0 50,48 0,0 -22,72 55,155 0,0 -39,3 -79,-34 0,0 -4,20 9,103 0,0 -64,-34 -72,-64 0,0 -25,45 54,117 0,0 -68,62 -199,-107 0,0 -4,-22 -44,-81 0,0 18,-13 39,12 0,0 -12,-55 -12,-82z"/>
   <path class="fil1" d="M5225 5551c0,0 105,155 180,13 0,0 19,-51 22,-96 0,0 9,-35 103,-22 0,0 39,12 -18,27 0,0 -5,87 50,2 0,0 -2,11 12,15 0,0 2,-59 52,-59 0,0 48,-3 37,55 0,0 -15,21 -28,-3 0,0 -7,-16 -11,17 0,0 -2,45 -53,27 0,0 29,154 -140,184 0,0 -44,19 -129,17 0,0 43,20 68,22l-55 7c0,0 45,13 55,32 0,0 -44,60 -203,-123 0,0 -54,-57 0,-104 0,0 34,-39 58,-11z"/>
   <path class="fil2" d="M4273 5729c13,0 49,7 49,7 -44,29 -65,58 -72,68 -7,-11 -29,-39 -72,-67 0,0 36,-8 49,-8 0,0 -120,-147 -95,-200 0,0 20,-18 115,102l0 -23 3 -4c-10,-15 -39,-64 -42,-126 0,0 -4,-41 39,38 41,-80 43,-38 43,-38 -2,61 -31,111 -40,126l2 4 0 23c95,-121 115,-103 115,-103 25,53 -94,201 -94,201zm-662 1605c-3,-25 -2,-46 2,-64 -1,40 -2,64 -2,64zm1197 492c49,59 98,-21 98,-21 225,-319 43,-485 43,-485 -51,-65 -7,-42 -7,-42 36,8 65,53 65,53 0,-73 -33,-161 -33,-161 -59,-138 -35,-539 -35,-539 -48,77 -45,479 -42,636 3,17 4,38 1,64 0,0 -1,-24 -1,-64 -19,-84 -106,-77 -106,-77 140,-207 27,-680 27,-680 26,20 73,25 73,25 -16,-69 -92,-262 -95,-269 38,51 156,121 156,121 -64,-64 -189,-215 -189,-215 -36,-50 -54,23 -54,23 0,-71 -23,-121 -23,-121 -298,-253 -275,-306 -275,-306 18,0 46,21 50,23 -123,-138 -50,-96 -50,-96 126,89 287,330 287,330 -4,-47 8,-57 8,-57 35,19 40,90 40,90 -4,-120 50,-120 50,-120 0,97 10,174 10,174 1,64 40,49 40,49 23,0 27,-43 27,-43 24,20 14,36 14,36 -19,109 13,110 13,110 28,5 37,-20 37,-20 37,38 27,75 27,75 3,82 27,56 27,56 77,-53 31,-108 31,-108 -45,-50 -19,-61 -19,-61l-51 -6c9,-33 0,-53 0,-53 -55,-14 -72,-62 -72,-62 39,12 57,8 57,8 -79,-131 -155,-183 -155,-183l19 -8c-372,-99 -328,-491 -328,-491 -14,-2 -59,19 -62,20 73,-71 47,-307 47,-307 -1,-242 46,-208 46,-208 -26,354 206,596 215,604 -18,-21 -14,-56 -14,-56 -1,-31 -12,-53 -12,-53 -47,-65 -50,-118 -50,-118 12,41 65,91 65,91 -2,-40 7,-35 7,-35 7,17 31,27 31,27 -35,-214 -222,-464 -222,-464 -223,-269 -144,-349 -144,-349 12,149 172,312 172,312 -14,-49 0,-103 0,-103 3,8 23,66 23,66 7,-28 37,-33 37,-33 -32,202 131,350 131,350 65,-156 -34,-257 -34,-257 3,-34 -18,-82 -19,-85 6,8 52,25 52,25 9,-10 -34,-168 -34,-168 -208,-55 -418,-205 -458,-235 -41,30 -256,182 -465,238 0,0 -41,158 -33,168 0,0 47,-18 52,-26 -1,3 -21,52 -18,86 0,0 -98,101 -33,257 0,0 162,-149 130,-351 0,0 30,5 36,33 0,0 20,-58 23,-66 0,0 14,54 1,103 0,0 159,-164 170,-313 0,0 79,79 -142,349 0,0 -185,251 -220,466 0,0 25,-11 32,-28 0,0 8,-4 7,35 0,0 52,-50 64,-91 0,0 -2,53 -49,119 0,0 -10,21 -12,52 0,0 5,35 -13,57 8,-9 239,-252 211,-605 0,-1 47,-35 47,207 0,0 -25,236 49,307 -3,-2 -48,-22 -62,-20 0,0 46,392 -325,493l19 8c0,0 -76,52 -154,183 0,0 18,4 57,-8 0,0 -17,48 -71,63 0,0 -9,20 0,52l-51 7c0,0 26,11 -19,61 0,0 -45,55 32,108 0,0 24,26 26,-56 0,0 -10,-38 27,-76 0,0 9,26 38,20 0,0 31,-1 11,-109 0,0 -9,-17 14,-37 0,0 4,43 28,43 0,0 39,15 40,-50 0,0 9,-77 8,-173 0,0 54,-1 51,120 0,0 5,-72 39,-91 0,0 12,10 9,57 0,0 159,-241 285,-331 0,0 72,-42 -49,96 3,-2 31,-23 49,-23 0,0 24,52 -273,307 0,0 -23,51 -22,121 0,0 -19,-73 -54,-22 0,0 -124,152 -188,216 0,0 118,-71 155,-123 -3,8 -78,201 -93,270 0,0 46,-5 73,-25 0,0 -111,474 31,680 0,0 -87,-7 -105,77 2,-158 2,-559 -47,-636 0,0 27,402 -31,539 0,0 -33,89 -33,162 0,0 29,-46 65,-53 0,0 44,-23 -7,41 0,0 -181,167 46,485 0,0 50,80 98,21 0,0 21,-22 12,-42 0,0 24,-20 86,50 0,0 89,113 210,104 0,0 -137,43 -357,-59 0,0 -7,13 3,38 -3,-1 -46,-22 -54,-45 0,0 -9,111 209,184 0,0 -19,-16 -24,-36 0,0 205,63 250,176 0,0 -116,-33 -147,-59 0,0 -15,55 220,137 0,0 -29,-63 85,-92 0,0 42,-19 -6,-34 1,0 -6,-2 -19,15 0,0 -24,42 -112,-50 0,0 48,-12 101,5 0,0 51,16 97,11 46,5 95,-11 95,-11 53,-18 101,-6 101,-6 -87,93 -112,50 -112,50 -12,-16 -19,-14 -19,-14 -47,15 -5,34 -5,34 114,28 85,91 85,91 234,-83 219,-138 219,-138 -30,26 -146,60 -146,60 44,-114 248,-178 248,-178 -4,20 -23,37 -23,37 218,-75 208,-186 208,-186 -8,24 -54,46 -54,46 10,-25 3,-38 3,-38 -219,103 -357,61 -357,61 121,8 210,-105 210,-105 62,-71 85,-50 85,-50 -8,20 12,41 12,41z"/>
   <polygon class="fil2" points="4247,5638 4247,5631 4247,5608 4250,5604 4252,5608 4252,5631 4250,5635 "/>
   <path class="fil2" d="M4898 7331c0,0 -1,-24 -1,-64 3,17 4,38 1,64z"/>
   <path class="fil4" d="M4898 7331c0,0 -1,-26 -1,-67 4,17 5,40 1,67zm51 -11c-27,-35 -22,-45 -22,-45 27,-12 80,56 80,56 8,-68 -44,-192 -44,-192 -46,-126 -24,-508 -24,-508 -46,100 -45,477 -42,633 -20,-79 -106,-74 -106,-74 139,-219 27,-680 27,-680 37,14 73,25 73,25l-75 -219c-192,-171 -278,-125 -278,-125 -74,35 0,184 0,184 -212,-119 -245,141 -245,141 -21,0 -33,-6 -39,-9l-2 -2 -2 2c-6,3 -18,9 -38,9 0,0 -35,-259 -246,-140 0,0 73,-149 -1,-183 0,0 -87,-46 -277,126l-74 219c0,0 35,-11 73,-25 0,0 -109,461 31,680 0,0 -86,-5 -105,74 -1,42 -2,67 -2,67 -4,-27 -3,-49 2,-67 1,-156 0,-533 -47,-633 0,0 25,383 -21,509 0,0 -51,124 -43,192 0,0 53,-69 81,-57 0,0 5,10 -23,45 0,0 -185,170 58,501 0,0 26,34 57,26 0,0 51,-25 41,-63 0,0 27,-15 93,59 0,0 29,31 53,47 0,0 157,-19 337,61l57 18 1 0 1 -1 56 -17c180,-81 337,-63 337,-63 24,-16 52,-48 52,-48 66,-73 93,-58 93,-58 -9,37 41,62 41,62 32,7 58,-27 58,-27 240,-332 54,-500 54,-500z"/>
   <polygon class="fil4" points="4252,6505 4250,6507 4250,6503 "/>
   <polygon class="fil4" points="4256,7972 4257,7972 4256,7972 "/>
   <path class="fil4" d="M4898 7331c0,0 -1,-26 -1,-67 4,17 5,40 1,67z"/>
   <path class="fil1" d="M5945 5615c0,0 137,-69 83,-165 0,0 12,-11 44,30 0,0 18,-24 10,-49 0,0 99,82 9,199 0,0 141,28 -3,187 0,0 49,-17 71,-19 0,0 -25,48 -69,103 0,0 91,-41 96,-65 0,0 -25,132 -329,287 0,0 -38,16 -50,-24 0,0 -44,20 -39,60 0,0 -120,-131 -151,-154 0,0 147,80 263,-4 0,0 -61,-59 -176,-52 0,0 71,-19 222,-23 0,0 -40,-7 -83,-22 0,0 130,-16 164,-41 0,0 -11,-11 -91,-15 0,0 22,-7 45,-36 0,0 -60,-8 -150,11 0,0 184,-97 239,-165 0,0 -11,-11 -43,3 0,0 15,-41 33,-55 0,0 -48,-6 -95,9z"/>
   <path class="fil5" d="M5076 5996c0,0 -4,11 11,27 0,0 10,-16 22,-27 0,0 -45,156 102,259 0,0 -11,-19 0,-41 0,0 20,122 487,131 0,0 70,-13 80,35 0,0 22,30 -141,34 0,0 -103,8 -142,0 0,0 -43,-4 -68,-27 0,0 -74,-54 -143,-52 0,0 -19,32 27,109 0,0 -119,-29 -188,-190 0,0 -8,-40 -73,-127 0,0 -66,-96 26,-131z"/>
   <path class="fil3" d="M5410 6541c0,0 -70,-93 -82,-140 0,0 130,32 240,222 0,0 -86,-44 -120,-99 0,0 -40,-34 -20,23 0,0 19,71 84,139 0,0 -133,-78 -184,-150 0,0 80,25 82,5z"/>
   <path class="fil3" d="M5502 6444l60 92c0,0 -2,-33 16,-63 0,0 -32,-24 -76,-29z"/>
   <path class="fil3" d="M5595 6471c0,0 48,-19 88,-10 0,0 9,30 -31,37 0,0 -66,7 -57,-27z"/>
   <path class="fil3" d="M5741 6430c0,0 84,-3 100,-53 0,0 78,7 133,-37 0,0 19,-20 59,-12 0,0 -5,52 -146,86 0,0 -25,-1 -74,30 0,0 -48,28 -72,-14z"/>
   <path class="fil3" d="M5710 6499c0,0 165,1 216,-46 0,0 53,-33 26,26 0,0 -11,68 -204,57 0,0 -91,-35 -38,-37z"/>
   <path class="fil3" d="M5602 6641l-8 -90c0,0 53,33 67,53 0,0 21,6 66,-22 0,0 23,31 -19,94 0,0 -104,-10 -106,-35z"/>
   <path class="fil3" d="M5530 6646c0,0 60,50 164,46 0,0 -8,8 0,22 0,0 150,-76 207,-151 0,0 19,5 12,34 0,0 242,-210 302,-284 0,0 29,101 -139,261 0,0 116,-72 153,-84 0,0 -162,180 -269,283 0,0 -63,-10 0,-169l-153 136c0,0 75,15 58,125 0,0 -17,242 -159,394l-42 52c0,0 -43,-61 -124,-57 0,0 173,-179 182,-307 0,0 7,-39 -58,33 0,0 -29,-85 -57,-118 0,0 22,-2 46,8 0,0 -148,-104 -123,-224z"/>
   <path class="fil5" d="M5083 6353c0,0 208,343 466,459 0,0 -32,116 -134,176 0,0 -52,-76 -77,-160 0,0 39,-5 65,16 0,0 -135,-109 -171,-251 0,0 -15,-9 -53,-1 0,0 149,164 114,487 0,0 -16,10 -27,-36 0,0 -4,102 -66,134 0,0 101,-70 162,-76 0,0 -43,37 -58,52 0,0 201,-86 252,-189 0,0 8,16 0,84 0,0 26,-8 46,-27 0,0 11,202 -326,376 0,0 50,5 86,-14 0,0 17,39 -185,232 0,-1 84,-56 103,-58 0,-1 -20,20 -27,39 0,0 153,-81 150,-233 0,0 130,-87 131,-105 0,0 102,0 120,53 0,0 -14,29 -41,26 0,0 -14,278 -216,376 1,0 -40,19 -6,-38 0,0 24,-35 30,-52 0,0 -189,177 -368,264 0,0 -15,7 -35,24 0,0 -38,27 -73,26 0,0 128,-121 105,-156 0,0 -40,-2 -62,15 0,0 120,-111 60,-452 1,0 2,-51 32,-46 0,0 36,-10 47,70l11 -29c0,0 39,31 61,63 0,0 -8,-118 -98,-138 0,0 -13,-34 41,-51 0,0 26,-10 86,43 0,-1 -339,-358 -201,-642 0,0 8,-205 56,-261z"/>
   <path class="fil3" d="M4378 8328c0,0 188,-48 306,-174 0,0 130,-28 240,-124 0,0 0,18 0,35 0,0 170,-37 257,-176 0,0 27,0 74,61 0,0 14,-38 25,-61 0,0 6,10 19,23 1,0 17,-83 47,-111 0,0 33,18 64,13 0,0 220,-184 244,-262 0,-1 161,377 -561,584 0,0 22,38 -148,58 0,0 -194,55 -236,151 0,0 160,-96 236,-106 0,0 167,-30 252,-75 0,0 0,32 -55,65 0,0 213,-68 444,-292 0,0 61,33 -226,292 0,0 -94,68 -245,73 0,0 -182,8 -262,81 0,0 127,0 303,-55 0,0 66,-16 113,-16 0,0 -16,21 -5,48 0,0 193,-95 322,-262 0,0 -173,189 -223,285 0,0 -11,81 -6,156 0,0 -8,30 -35,-23 0,0 -17,-83 -108,-90 0,0 0,-20 -28,-25 0,0 9,10 3,32 0,0 -8,13 -41,-20 0,0 -58,-55 -91,-10 0,0 -53,66 -149,18 0,0 -86,-23 -108,10 0,0 50,20 58,38 0,0 -411,80 -480,-141z"/>
   <path class="fil3" d="M5083 8801c0,0 -124,-16 -277,170 0,0 -39,73 -129,0 0,0 -89,-75 -126,-158 0,0 6,54 30,100 0,0 87,141 10,314 0,0 -23,-266 -173,-343 0,0 -1,49 29,90 0,0 53,66 28,211 0,0 -22,-26 -40,-55 0,0 -13,76 -11,201 0,0 -39,-36 -46,-120 0,0 -30,165 0,273 0,0 -77,-6 -77,-457 0,0 -20,91 -41,108l0 0 0 0c-21,-17 -41,-108 -41,-108 3,451 -75,458 -75,458 30,-109 -1,-274 -1,-274 -7,85 -45,121 -45,121 1,-126 -12,-201 -12,-201 -18,29 -40,55 -40,55 -26,-144 26,-211 26,-211 30,-41 29,-90 29,-90 -150,78 -171,344 -171,344 -78,-173 8,-314 8,-314 23,-47 30,-101 30,-101 -37,83 -126,159 -126,159 -89,74 -128,1 -128,1 -154,-186 -278,-169 -278,-169 -87,2 -59,-43 -59,-43 32,-104 117,-168 122,-172 -98,103 10,97 10,97 -54,-91 86,-146 86,-146 -30,-18 -8,-22 -8,-22 180,-32 185,-6 185,-6 -252,83 -198,117 -198,117 41,-33 158,-72 158,-72 -12,15 0,20 0,20 133,-53 119,-19 119,-19 -108,88 -10,82 -10,82 -16,14 -25,50 -25,50 16,-29 133,-114 133,-114 -14,16 -17,37 -17,37 14,-18 50,-23 50,-23 -8,129 32,227 32,227 -2,-251 86,-328 88,-331 -13,26 -10,126 -10,126l19 -15c-12,198 43,277 46,282 -19,-66 13,-212 13,-212 31,108 61,126 61,126 -41,-162 17,-286 27,-305l0 -1 1 1c10,19 69,143 28,305 0,0 31,-18 61,-126 0,0 33,145 14,211 3,-4 57,-84 44,-282l19 15c0,0 3,-101 -11,-126 0,0 91,76 91,330 0,0 39,-98 30,-227 0,0 36,6 50,23 0,0 -3,-21 -17,-36 0,0 118,84 134,113 0,0 -9,-36 -26,-50 0,0 98,5 -10,-82 0,0 -15,-34 119,19 0,0 12,-5 0,-20 0,0 117,37 159,70 0,0 53,-34 -199,-116 0,0 4,-25 185,5 0,0 22,4 -8,23 0,0 140,54 86,145 0,0 109,6 10,-97 5,4 91,67 123,171 0,0 29,45 -58,44z"/>
   <polygon class="fil3" points="4258,8486 4258,8488 4258,8489 "/>
   <polygon class="fil3" points="4260,9135 4260,9135 4260,9135 "/>
   <path class="fil3" d="M5669 7305c0,0 119,-129 209,-169 0,0 31,-96 64,-120 0,0 19,5 8,63 0,0 337,-152 569,-93 0,0 -156,4 -238,30 0,0 209,-15 316,15 0,0 287,-51 389,-59 0,0 668,-118 786,-362 0,0 62,-11 9,91 0,0 -107,171 -691,300 0,0 -198,43 -393,63 0,0 430,125 761,406 0,0 288,37 345,64 0,0 40,15 -21,24 0,0 -79,-4 -132,-22 0,0 -102,-24 -169,-30 0,0 6,9 -4,16 0,0 -22,-17 -40,-22 0,0 -720,-176 -1727,22 0,0 -62,8 -66,-16 0,0 -25,-29 124,-63 0,0 607,-172 1607,10 0,0 -431,-285 -771,-369 0,0 -125,-10 -749,271 0,0 -124,58 -169,82 0,0 -31,24 -43,-13 0,0 -44,-31 156,-113 0,0 351,-169 653,-247 0,0 -424,-4 -761,277 0,0 -48,33 -22,-36z"/>
   <path class="fil3" d="M5684 7592c0,0 43,-72 520,-80 0,0 884,-82 1384,293 0,0 -9,40 -11,50 0,0 -236,-256 -867,-297 0,0 -296,-19 -522,0 0,0 -273,22 -458,84 0,0 -28,15 -46,-12 0,0 -14,-18 0,-38z"/>
   <path class="fil3" d="M5703 7707c0,0 -29,-79 631,-96 0,0 835,-6 1226,540l10 69c0,0 -484,-765 -1804,-491 0,0 -44,30 -63,-22z"/>
   <path class="fil3" d="M5694 7806c0,0 763,-27 1249,148 0,0 332,94 513,497l75 61 4 3c0,0 11,79 78,163 0,0 -93,-114 -132,-151 0,0 -35,20 -59,-53 0,0 -244,-251 -937,-315 0,0 -155,-10 -260,-15 0,0 -428,-32 -556,-162 0,0 -36,-52 9,-75 0,0 9,-17 40,20 0,0 243,178 677,175 0,0 636,1 978,294 0,-1 -125,-445 -1059,-514 0,0 -551,-30 -645,-19 0,0 -36,-28 25,-57z"/>
   <path class="fil3" d="M5646 8050c0,0 39,-26 155,55 0,0 183,101 325,115 0,0 350,45 830,405 0,0 -28,32 -36,48 0,0 -400,-354 -741,-397 0,0 -288,-37 -489,-153 0,0 -110,-40 -44,-73z"/>
   <path class="fil3" d="M5541 8276c0,0 52,-94 386,51 0,0 342,131 484,233 0,0 292,183 469,250 0,0 -5,31 9,69 0,0 -281,-139 -511,-280 0,0 -476,-299 -837,-314 0,0 -6,-2 0,-9z"/>
   <path class="fil3" d="M5360 8409c0,0 43,-34 60,-59 0,0 26,-60 134,0 0,0 443,180 587,239 0,0 686,270 879,453 0,0 -52,25 -64,30 0,0 -742,-482 -1508,-665 0,0 485,273 634,424 0,0 201,234 228,356 0,0 -303,-465 -950,-753l0 -25z"/>
   <path class="fil3" d="M5124 8486c0,0 29,-52 88,0 0,0 195,133 294,504 0,0 -42,-3 -38,346 0,0 -11,-99 -34,-110 0,0 26,-199 -29,-326 0,0 -113,-273 -260,-378 0,0 -38,-19 -21,-36z"/>
   <path class="fil3" d="M5036 8498c0,0 37,-25 84,35 0,0 216,297 268,624 0,0 -33,-29 -64,-22 0,0 -173,-472 -288,-572 0,0 -28,-33 0,-65z"/>
   <path class="fil0" d="M566 3784l-12 5c3,-1 7,-3 12,-5z"/>
   <path class="fil1" d="M3737 2508c0,0 136,-35 206,-35 0,0 -290,-185 -617,114 0,0 55,-65 55,-85 0,0 -443,157 -691,172 0,0 314,-154 356,-191 0,0 -317,4 -598,229l139 -145c0,0 -217,-9 -477,231 0,0 133,90 470,152 0,0 -19,-35 -54,-62 0,0 382,220 648,89 0,0 18,-16 -61,-26 0,0 306,-210 736,-224 0,0 -48,-65 -135,-112 0,0 227,65 319,59 0,0 71,-14 65,-67 0,0 24,-113 -361,-99z"/>
   <path class="fil2" d="M4001 2901l-74 -20c0,0 -92,48 -128,71 0,0 44,-49 45,-84 0,0 -188,233 -617,150l-85 156 -17 -116 -122 4c0,0 -23,61 17,91 0,0 76,35 -7,80 0,0 -60,53 264,38 0,0 95,-23 -135,-60 0,0 200,-18 331,8 0,0 109,33 320,-40 0,0 -219,16 -324,-75 0,0 116,6 251,-57 0,0 140,-66 252,-33l29 -113z"/>
   <path class="fil2" d="M2915 3258c0,0 -198,28 -364,-14 0,0 207,52 279,90 0,-1 92,80 157,-1 0,0 22,-48 -94,-27 0,0 20,-36 22,-48z"/>
   <path class="fil2" d="M2343 3094c0,0 -466,-233 -895,-279 0,0 83,77 293,156 0,0 -242,11 -392,-109 0,0 -39,-53 53,-74 0,0 44,-22 -62,-16 0,0 -80,7 -105,124 0,0 -57,239 52,380 0,0 87,82 269,124 0,0 -20,-8 -40,-24 0,0 29,9 40,8 0,0 -173,-60 -232,-134 0,0 -113,-108 331,9 0,0 -341,-121 -362,-203 0,0 239,-52 657,59 0,0 57,23 114,71 0,0 265,268 767,231 0,0 36,-17 -36,-47 0,0 -353,-145 -495,-177 0,0 -280,-92 -373,-147 0,0 164,59 196,58 0,0 -209,-117 -251,-117 0,0 361,74 471,107z"/>
   <path class="fil2" d="M1491 3382c0,0 -112,-13 -174,-38 0,0 55,47 65,66 0,0 -132,135 167,315 0,0 32,154 18,221 0,0 49,-44 69,-119 0,0 17,40 1,95 0,0 94,-156 131,-187 0,0 -94,-14 -138,-7 0,0 29,-32 18,-37 0,-1 -109,-45 -151,-65 0,0 445,149 943,-55 0,0 -234,-39 -417,34 0,0 15,28 136,1 0,0 -275,135 -674,-88 0,0 -203,-104 6,-136z"/>
   <path class="fil3" d="M2425 3448c0,0 -382,-139 -468,-300 0,0 -379,-43 -437,-26 0,0 -85,20 193,69 0,0 66,20 164,-22 0,0 -27,37 -175,51 0,0 19,18 175,28 0,0 -31,79 -333,-7 0,0 -171,-60 -228,-19 0,0 -24,52 233,154 0,0 55,41 -39,25 0,0 -97,-27 -104,34 0,0 -7,79 249,123 0,0 162,26 459,-39 0,-1 270,-71 311,-71z"/>
   <polygon class="fil2" points="4247,3205 4247,3219 4242,3212 "/>
   <path class="fil1" d="M4102 3094l-190 1c0,0 203,71 -173,343 0,0 20,-104 12,-129 0,0 -201,85 -320,189 0,0 -21,-38 -25,-105l-182 25c0,0 80,105 -294,71 0,0 -64,59 104,109 0,0 -38,35 -55,67 0,0 108,-59 171,-83 0,0 19,25 -40,55 0,0 130,24 227,-130 0,0 33,-2 83,81 0,0 -704,302 -886,594 0,0 174,-126 310,-131 0,0 5,13 -77,91 0,0 189,-74 338,-309 0,0 0,159 -268,329 0,0 -326,178 -334,398 0,0 53,-91 100,-100 0,0 85,-51 119,-106 0,0 -10,43 -84,104 0,0 -131,137 61,275 0,0 -37,6 -79,-24 0,0 37,75 -10,186 0,0 -55,118 72,171 0,0 -63,-126 58,-220 0,0 172,-162 53,-310 0,0 33,-72 62,-84 0,0 35,10 41,37 0,0 8,-133 -82,-168 0,0 75,-49 155,-200 0,0 17,109 58,169 0,0 24,5 20,-12 0,0 19,77 47,111 0,0 -79,-69 -153,-72 0,0 -35,17 -18,69 0,0 18,-10 27,-15 0,0 -27,87 64,117 0,0 -39,27 -83,29 0,0 70,27 114,-7 0,0 221,-179 248,-413 0,0 -134,41 -224,134 0,0 41,-170 61,-202 0,0 -65,47 -87,73 0,0 128,-330 438,-481 0,0 4,17 -35,59 0,0 248,-54 341,-256 0,0 30,42 -6,244 0,0 174,-103 222,-406 0,0 39,17 45,66 0,0 36,-11 34,-118 0,0 20,-22 59,9 0,0 -33,-98 -39,-125z"/>
   <path class="fil1" d="M4247 3432l-4 -9c3,-6 4,-10 4,-10l0 19z"/>
   <polygon class="fil1" points="4250,3805 4244,3792 4249,3780 "/>
   <path class="fil1" d="M3691 3899c0,0 113,-107 126,-144 0,0 81,5 -62,257 0,0 -203,52 -340,256 0,0 -29,10 -48,-126 0,0 8,-49 -43,47 0,0 -33,-52 -15,-109 0,0 79,25 324,-310 0,0 42,-41 13,53 0,0 -25,110 -60,189 0,0 74,-65 169,-120 0,0 -68,33 -64,7z"/>
   <path class="fil1" d="M4249 4065l-4 -11c3,-9 4,-14 4,-14l0 25z"/>
   <polygon class="fil1" points="4250,4391 4250,4396 4246,4394 "/>
   <path class="fil1" d="M2841 3547c0,0 -302,-12 -454,115 0,0 20,6 144,-1 0,0 -465,56 -567,204 0,0 -11,39 277,-109 1,0 20,9 -7,61 0,0 104,-33 185,-33 0,0 -336,61 -635,228 0,0 167,-14 225,-1 0,0 -263,10 -652,432 0,0 99,-246 291,-390 0,0 -36,-11 -91,18 0,0 -25,-109 -117,-163 0,0 29,66 -212,394 0,0 175,-95 217,-197 0,0 24,102 -75,200 0,0 -204,166 -297,759 0,0 -35,-84 -30,-99 0,0 -16,17 -34,64 0,0 -46,-302 164,-612 0,0 -141,155 -235,134 0,0 265,-265 279,-412 0,0 -60,88 -114,105 0,0 203,-182 198,-550 0,0 -338,210 -400,487 0,0 90,-82 115,-124l3 -7c19,-41 -83,237 -158,313 0,0 55,-4 118,-53 0,0 -80,199 -138,260 0,0 20,0 67,-19 1,0 -56,418 -46,553 0,0 -3,18 15,21 0,0 101,30 -48,254 0,0 -71,125 -91,138 0,0 68,-25 126,-76 0,0 -157,159 -193,304 0,0 132,-136 187,-173l5 -4c52,-31 -173,185 -304,540 0,0 376,-430 590,-483 0,0 -325,221 -542,547 0,0 296,-116 493,-324l-106 132 56 3c0,0 -288,184 -375,346 0,0 278,-173 508,-401 0,0 -12,39 -58,100 0,0 37,10 43,8 0,0 -201,272 -333,403 0,0 191,-112 351,-349 0,0 -111,205 -116,217 0,0 -48,59 -32,224 0,0 47,-125 103,-93 0,0 35,20 0,99 0,0 100,11 242,-191 0,0 -14,131 -310,409 0,0 86,-3 185,-36 0,0 4,37 -54,91 0,0 71,32 236,-144 0,0 -51,103 -120,171 0,0 11,10 60,-26 0,0 -3,25 -22,39 0,0 68,-11 125,-71 0,0 -11,57 -11,85 0,0 23,25 197,-81 0,0 33,11 -35,102 0,0 22,-18 78,-22 0,0 -4,22 -37,69 0,0 189,-122 282,-115 0,0 -83,99 -35,151 0,0 50,52 115,-36 0,0 4,-30 88,-26l63 -57c0,0 -17,34 31,64l74 31 -6 -48c0,0 30,18 54,9 0,0 23,9 4,-116 0,0 -60,28 -85,56l-14 -102c0,0 -39,14 -85,47 0,0 15,-104 33,-153 0,0 185,182 367,185 0,0 -325,-197 -487,-434 0,0 -58,96 75,218l-122 242 9 -144c0,0 -188,-8 -259,68 0,0 -36,-106 150,-207 0,0 -205,-35 -437,158 0,0 93,-153 103,-182 1,0 -73,17 -102,19 0,0 -81,6 -118,61 0,0 -82,105 -213,67 0,0 59,-58 131,-78l-52 -7c0,0 285,-265 398,-470 0,0 31,-34 -63,-10 0,0 -142,18 -202,193l-8 -106c0,0 -46,77 -77,79 0,0 34,-171 138,-337 0,0 -123,87 -232,107 0,0 247,-234 262,-559 0,0 -19,-156 -142,-41 0,0 3,-59 -2,-80 0,0 -37,25 -59,25 0,0 34,-92 179,-223 0,0 -94,26 -165,63 0,0 2,-8 21,-67 0,0 -110,29 -192,60 0,0 175,-132 153,-226 0,0 -17,-69 -169,95 0,0 32,-210 480,-404 0,0 -96,-8 -150,-49 0,0 417,-73 710,-306 0,0 42,-44 -42,-30 0,0 -215,53 -331,139l123 -142c0,0 176,-54 213,-55l-155 -12c0,0 496,-154 616,-341 0,0 46,-61 -13,-121 0,0 174,55 262,-77 0,0 62,-94 49,-161z"/>
   <path class="fil2" d="M2432 4530c0,0 29,-192 117,-291 0,0 -110,41 -146,54 0,0 -3,-38 22,-53 0,0 -236,314 -616,381 0,0 160,12 193,-1 0,0 -294,146 -501,187 0,0 97,22 292,-40l3 42c0,0 12,1 90,-35 0,0 -106,129 -384,184 0,0 166,47 276,39 0,0 -74,111 -57,176 0,0 18,109 -139,218 0,0 124,-24 218,-80 0,0 -247,327 -120,817 0,0 30,-2 28,-108 0,0 19,133 83,199 0,-1 78,90 81,168l66 12c0,0 -1,-264 -29,-362 0,-1 -25,42 -36,85 0,0 -167,-309 106,-827 0,0 -219,-74 77,-464 0,0 79,-55 62,-123 0,0 -5,-41 39,-104 0,0 50,179 -109,354 0,-1 20,15 97,-34 0,0 -170,205 -29,303 0,0 -6,-46 22,-56 0,0 34,118 59,149 0,0 -181,230 -173,567 0,0 16,31 40,-28 0,0 -25,106 38,194 0,0 -93,-82 -128,-81 0,0 -67,35 162,306 0,0 38,-113 27,-207 0,0 65,141 104,208 0,0 82,-89 272,49 0,0 32,20 66,-14 0,0 33,-27 61,5 0,0 26,35 94,0 0,0 66,-31 92,-48 0,0 -118,26 -186,8 0,0 112,-21 80,-68 0,0 -27,-38 -99,21 0,0 -39,-23 -51,-40 0,0 -5,23 27,70 0,0 -42,-1 -62,-1 0,0 11,17 18,17 0,0 -296,-63 -371,-313 0,0 94,133 190,191 0,0 -9,-72 -113,-171 0,0 22,-13 57,10 0,0 -89,-55 -165,-302 0,0 36,-20 76,55 0,0 -40,-191 46,-200l9 -87c0,0 -37,14 -56,36 0,0 -5,-26 0,-31 0,0 -78,19 -111,157 0,0 5,-131 44,-161 0,0 -26,1 -44,10 0,0 208,-285 215,-287 0,0 23,-60 -25,-84l76 -3c0,0 29,-110 60,-123 0,0 -65,-74 -126,-104 0,0 -80,-21 -169,-12 0,0 198,-112 64,-380 0,0 81,78 109,137 0,0 -32,-192 76,-271 0,0 -46,136 11,185z"/>
   <path class="fil3" d="M3893 4289c0,0 -316,243 -530,110 0,0 160,23 170,-43 0,0 26,-60 -66,-28 0,0 -96,31 -123,56 0,0 5,-44 0,-72 0,0 -42,37 -64,82 0,0 -6,-53 -8,-70 0,0 -45,96 -131,172 0,0 -90,36 -136,46 0,0 -33,-22 -69,-23 0,0 -69,51 -51,279 0,0 47,5 137,-174 0,0 0,86 -14,106 0,0 35,-27 44,-56 0,0 -159,280 -64,364 0,0 55,53 99,-8 0,0 48,-145 -11,-216 0,0 313,-45 382,-150 0,0 -85,0 -103,-13 0,0 59,-20 68,-46 0,0 72,18 95,9 0,0 402,-144 398,-280 0,0 -22,47 -23,-45z"/>
   <path class="fil3" d="M3785 4673c0,0 -106,27 -185,29 0,0 88,11 108,11 0,0 -169,4 -251,62 0,0 -72,30 81,82 0,0 -11,20 -90,0 0,0 -28,7 -25,56 0,0 23,-27 36,-31 0,0 4,12 -16,31 0,0 50,4 118,-9 0,0 -50,32 -122,32 0,0 -25,12 -37,81 0,0 25,0 34,-22 0,0 -26,34 -20,62 0,0 4,5 24,5 0,0 -64,74 -84,93 0,0 -57,46 36,94 0,0 20,37 -62,-18 0,0 -3,35 16,83 0,0 -30,-8 -48,-21 0,0 15,64 14,119 0,0 -71,-85 -143,-125 0,0 47,85 47,136 0,0 184,26 318,282 0,0 -89,-89 -128,-88 0,0 16,33 32,57 0,0 -13,0 -18,10 0,0 129,75 19,169 0,0 -45,39 24,30 0,0 35,-10 55,-27 0,0 12,36 -10,96 0,0 35,-3 33,-34 0,0 13,64 46,56l-56 47c0,0 11,43 59,42 0,0 32,-71 116,-144l-24 -6c0,0 161,-57 243,-215 0,0 -5,15 -78,16 0,0 -150,188 -286,176 0,0 -20,-16 33,-16 0,0 124,-108 -227,-442 0,0 63,27 70,30 0,0 -30,-52 -50,-69 0,0 63,25 68,49 0,0 -6,-46 -2,-64 0,0 30,169 165,268 0,0 19,-24 13,-71 0,0 3,-27 22,-2 0,0 50,30 49,-5 0,0 -13,-47 -17,-87 0,0 -34,20 -55,45 0,0 -11,-58 18,-131 0,0 -75,2 -101,125 0,0 -7,-94 59,-139 0,0 75,-65 74,-159 0,0 -59,-26 -134,146 0,0 -31,-66 7,-128 0,0 11,13 21,19 0,0 15,-238 132,-371 0,0 40,-51 -34,-77 0,0 142,-28 113,-138z"/>
   <path class="fil3" d="M3417 4851c0,0 -57,-34 -127,34 0,0 24,32 64,32 0,0 67,-34 63,-66z"/>
   <path class="fil3" d="M3328 4942c0,0 -91,2 -120,-15 0,0 -147,112 -48,334 0,0 89,57 107,53 0,0 16,-44 -4,-118 0,0 -6,30 -19,32 0,0 -54,-170 84,-286z"/>
   <path class="fil3" d="M2691 4953c0,0 106,-101 153,136 0,0 -38,-12 -49,-28 0,0 -56,254 242,235l0 -55c0,0 81,56 98,103 0,0 -48,34 -333,-18 0,0 22,-10 31,-26 0,0 -136,21 -127,-226 0,0 -59,-73 -15,-121z"/>
   <path class="fil3" d="M2675 5084c0,0 -48,-3 -77,-38 0,0 -39,61 -18,158l-44 -31 1 91c0,0 168,116 254,139 0,0 81,12 145,-32 0,0 -265,-11 -300,-107 0,0 24,15 55,14 0,0 -100,-44 -16,-194z"/>
   <path class="fil3" d="M2435 5244l-18 -46c0,0 -110,112 -156,177 0,0 128,-119 174,-131z"/>
   <path class="fil3" d="M2491 5299l-28 -35c0,0 -68,77 -102,81 0,0 64,4 130,-46z"/>
   <path class="fil3" d="M2491 5299c0,0 49,-7 17,45 0,0 -20,59 -72,62 0,0 -84,-6 -123,21 0,0 -17,-48 66,-53 0,0 92,-16 112,-75z"/>
   <path class="fil3" d="M2979 5825c0,0 -261,-87 -242,-351 0,0 -30,2 -46,24 0,0 -1,-65 -27,-93 0,0 -45,39 -102,41 0,0 -2,19 53,32 0,0 10,47 -77,40 0,0 -14,63 141,86 0,0 -85,50 94,130 0,0 8,59 -186,-54 0,0 129,80 188,135 0,0 176,116 204,10z"/>
   <path class="fil3" d="M3293 5962l-199 -67c0,0 -50,1 -49,49 0,0 22,72 -55,155 0,0 39,3 79,-34 0,0 4,20 -8,103 0,0 63,-34 71,-64 0,0 26,45 -53,117 0,0 69,62 198,-108 0,0 4,-22 44,-81 0,0 -19,-13 -39,12 0,0 11,-56 11,-82z"/>
   <path class="fil1" d="M3274 5556c0,0 -104,156 -180,14 0,0 -19,-51 -23,-96 0,0 -9,-35 -103,-21 0,0 -39,12 19,26 0,0 5,88 -50,2 0,0 2,12 -13,16 0,0 -2,-59 -52,-59 0,0 -48,-3 -36,56 0,0 15,20 27,-4 0,0 8,-15 12,17 0,0 2,45 53,27 0,0 -28,154 141,183 0,0 44,19 129,17 0,0 -43,20 -68,22l55 6c0,0 -45,14 -55,32 0,0 44,61 203,-123 0,0 53,-58 -1,-104 0,0 -34,-40 -58,-11z"/>
   <path class="fil2" d="M3613 7270c-1,40 -2,64 -2,64 -3,-25 -2,-46 2,-64z"/>
   <polygon class="fil2" points="4250,5635 4247,5631 4247,5608 4250,5604 4252,5608 4252,5631 4252,5638 "/>
   <path class="fil4" d="M3613 7267c-1,42 -2,67 -2,67 -4,-27 -3,-49 2,-67z"/>
   <polygon class="fil4" points="4254,6503 4254,6507 4252,6505 "/>
   <polygon class="fil4" points="4258,7971 4258,7972 4257,7972 "/>
   <path class="fil1" d="M2554 5623c0,0 -137,-68 -83,-164 0,0 -13,-11 -44,31 0,0 -19,-25 -11,-50 0,0 -98,82 -8,199 0,0 -140,29 4,187 0,0 -48,-17 -70,-18 0,0 25,47 69,103 0,0 -91,-42 -97,-65 0,0 26,132 332,285 0,0 37,16 49,-24 0,0 44,20 39,60 0,0 119,-131 151,-156 0,0 -147,82 -264,-2 0,0 61,-59 177,-53 0,0 -72,-18 -222,-21 0,0 40,-8 82,-23 0,0 -130,-15 -164,-40 0,0 11,-11 91,-15 0,0 -23,-8 -45,-37 0,0 60,-7 149,11 0,0 -184,-96 -239,-164 0,0 10,-11 43,3 0,-1 -16,-41 -34,-54 0,0 48,-7 95,7z"/>
   <path class="fil5" d="M3426 6000c0,0 4,11 -11,28 0,0 -10,-17 -23,-28 0,0 47,156 -100,260 0,0 11,-19 0,-41 0,0 -19,122 -486,133 0,0 -71,-12 -80,36 0,0 -22,30 141,33 0,0 103,7 142,-1 0,0 43,-4 68,-27 0,0 73,-54 142,-53 0,0 20,33 -25,110 0,0 118,-30 186,-192 0,0 8,-40 73,-127 0,0 65,-96 -27,-131z"/>
   <path class="fil3" d="M3095 6547c0,0 69,-93 81,-140 0,0 -130,32 -239,223 0,0 86,-45 120,-100 0,0 39,-35 20,23 0,0 -19,71 -83,139 0,0 133,-78 183,-150 0,0 -80,25 -82,5z"/>
   <path class="fil3" d="M3002 6451l-59 92c0,0 2,-33 -17,-63 0,0 32,-24 76,-29z"/>
   <path class="fil3" d="M2910 6477c0,0 -49,-18 -88,-9 0,0 -9,30 31,37 0,0 65,6 57,-28z"/>
   <path class="fil3" d="M2763 6438c0,0 -84,-3 -101,-53 0,0 -77,7 -132,-37 0,0 -20,-20 -60,-11 0,0 6,52 147,85 0,0 25,-1 75,30 0,0 48,28 71,-14z"/>
   <path class="fil3" d="M2794 6506c0,0 -164,2 -215,-44 0,0 -54,-34 -26,25 0,0 11,69 204,57 0,0 91,-36 37,-38z"/>
   <path class="fil3" d="M2904 6648l7 -90c0,0 -53,33 -67,53 0,0 -20,7 -66,-22 0,0 -23,32 20,94 0,0 104,-10 106,-35z"/>
   <path class="fil3" d="M2976 6652c0,0 -60,51 -164,48 0,0 7,7 0,21 0,0 -151,-75 -208,-150 0,0 -19,5 -12,34 0,0 -243,-208 -304,-282 0,0 -28,101 141,260 0,0 -116,-72 -153,-82 0,0 163,178 271,281 0,0 62,-11 -1,-169l153 135c0,0 -74,16 -57,125 0,0 18,242 161,394l43 51c0,0 42,-61 123,-57 0,0 -174,-178 -183,-307 0,0 -7,-39 58,33 0,0 28,-85 56,-118 0,0 -22,-2 -46,8 0,0 148,-105 122,-225z"/>
   <path class="fil5" d="M3421 6357c0,0 -206,344 -464,462 0,0 33,115 135,175 0,0 52,-77 77,-160 0,0 -39,-5 -65,15 0,0 134,-109 169,-251 0,0 15,-9 53,-2 0,0 -148,166 -111,488 1,0 16,10 26,-36 0,0 5,102 67,134 1,0 -101,-70 -161,-76 0,0 43,38 58,53 0,0 -202,-86 -254,-188 0,0 -8,15 1,83 0,0 -26,-7 -46,-26 0,0 -10,202 328,374 0,0 -50,5 -86,-14 0,0 -17,40 187,231 0,0 -85,-55 -104,-57 0,0 21,20 28,39 0,0 -154,-80 -152,-233 0,0 -130,-86 -132,-104 0,0 -102,1 -119,54 0,0 14,29 41,26 0,0 16,277 217,375 0,0 41,18 7,-38 0,0 -25,-35 -30,-52 0,0 190,176 369,262 0,0 15,7 35,23 0,0 39,28 73,27 0,0 -129,-121 -106,-156 0,0 40,-2 63,15 0,0 -121,-111 -64,-452 0,0 -1,-51 -32,-45 0,0 -36,-10 -46,69l-11 -29c0,0 -39,32 -61,63 0,0 8,-117 97,-137 0,0 13,-34 -41,-52 0,0 -27,-10 -86,43 0,0 337,-359 197,-642 0,0 -9,-205 -57,-261z"/>
   <path class="fil3" d="M4137 8328c0,0 -187,-47 -307,-172 0,0 -130,-27 -241,-122 0,0 1,17 1,35 0,0 -170,-36 -258,-175 0,0 -27,0 -74,61 0,0 -14,-38 -25,-61 0,0 -6,10 -19,23 0,0 -17,-83 -48,-111 0,0 -33,18 -63,13 0,0 -222,-182 -246,-260 0,0 -159,378 565,581 0,0 -22,38 148,57 0,0 195,55 237,150 0,0 -161,-94 -237,-104 0,0 -167,-30 -253,-74 0,0 0,32 56,65 0,0 -213,-67 -446,-290 0,0 -61,33 228,291 0,0 94,67 246,72 0,0 182,6 262,79 0,0 -127,1 -303,-54 0,0 -67,-15 -114,-14 0,0 17,20 6,47 0,0 -193,-94 -324,-260 0,0 175,188 225,284 0,0 12,80 6,156 0,0 9,30 36,-23 0,0 16,-83 107,-91 0,0 0,-21 28,-26 0,0 -9,10 -3,33 0,0 8,13 41,-20 0,0 58,-56 91,-11 0,0 53,65 149,17 0,0 86,-23 108,10 0,0 -50,20 -58,38 0,0 412,78 479,-144z"/>
   <polygon class="fil3" points="4258,8488 4259,8486 4259,8489 "/>
   <polygon class="fil3" points="4260,9135 4260,9135 4260,9135 "/>
   <path class="fil3" d="M2840 7312c0,0 -119,-128 -210,-168 0,0 -31,-96 -64,-119 0,0 -20,4 -8,62 0,0 -338,-150 -569,-90 0,0 156,3 237,29 0,0 -208,-14 -315,17 0,0 -288,-50 -390,-58 0,0 -668,-114 -788,-357 0,0 -62,-11 -8,91 0,0 108,171 693,296 0,0 198,42 393,61 0,0 -429,127 -758,410 0,0 -288,39 -345,66 0,0 -40,15 21,24 0,0 79,-5 132,-23 0,0 102,-24 168,-31 0,0 -5,9 5,17 0,0 22,-18 40,-23 0,0 718,-180 1726,14 0,0 63,7 67,-17 0,0 24,-29 -125,-62 0,0 -608,-170 -1607,18 0,0 430,-287 769,-373 0,0 125,-11 750,267 0,0 125,57 171,81 0,0 31,24 43,-13 0,0 43,-31 -157,-112 0,0 -353,-167 -655,-244 0,0 424,-6 763,273 0,0 48,33 21,-36z"/>
   <path class="fil3" d="M2827 7599c0,0 -43,-71 -520,-77 0,0 -885,-77 -1383,300 0,0 10,40 12,50 0,0 234,-257 865,-302 0,0 296,-20 522,-2 0,0 274,21 459,82 0,0 27,15 45,-13 0,0 14,-18 0,-38z"/>
   <path class="fil3" d="M2809 7714c0,0 28,-79 -632,-92 0,0 -834,-2 -1223,546l-9 69c0,0 479,-768 1801,-501 0,0 45,30 63,-22z"/>
   <path class="fil3" d="M2819 7813c0,0 -764,-23 -1248,154 0,0 -332,96 -510,500l-75 61 -4 3c0,0 -11,80 -77,164 0,0 92,-115 130,-152 0,0 36,20 59,-53 0,0 243,-253 936,-320 0,0 154,-11 259,-16 0,0 428,-35 555,-164 0,0 36,-53 -9,-76 0,0 -9,-17 -40,20 0,0 -241,180 -675,178 0,0 -637,5 -977,299 0,0 123,-445 1056,-519 0,0 551,-33 645,-22 0,0 35,-28 -25,-57z"/>
   <path class="fil3" d="M2868 8057c0,0 -39,-25 -154,56 0,0 -184,102 -325,117 0,0 -349,47 -828,409 0,0 29,31 37,47 0,0 398,-355 738,-400 0,0 288,-38 488,-155 0,0 110,-41 44,-74z"/>
   <path class="fil3" d="M2974 8282c0,0 -52,-93 -386,53 0,0 -341,133 -482,236 0,0 -291,185 -468,253 0,0 5,30 -8,69 0,0 280,-141 509,-284 0,0 475,-301 835,-318 0,0 7,-1 0,-9z"/>
   <path class="fil3" d="M3156 8415c0,0 -43,-34 -60,-59 0,0 -26,-60 -134,1 0,0 -442,182 -586,241 0,0 -684,274 -876,458 0,0 52,25 64,29 0,0 739,-485 1505,-672 0,0 -484,276 -632,427 0,0 -200,235 -226,357 0,0 300,-466 945,-757l0 -25z"/>
   <path class="fil3" d="M3393 8491c0,0 -30,-52 -88,0 0,0 -195,134 -292,505 0,0 42,-3 41,346 0,0 11,-99 33,-110 0,0 -28,-198 27,-327 0,0 111,-272 257,-379 0,0 39,-19 22,-35z"/>
   <path class="fil3" d="M3481 8502c0,0 -37,-25 -84,36 0,0 -214,298 -264,625 0,0 32,-29 63,-23 0,0 170,-473 285,-573 0,0 28,-33 0,-65z"/>
  </g>
 </g>
</svg>
