<?xml version="1.0" encoding="UTF-8"?>
<!DOCTYPE svg PUBLIC "-//W3C//DTD SVG 1.1//EN" "http://www.w3.org/Graphics/SVG/1.1/DTD/svg11.dtd">
<!-- Creator: CorelDRAW X7 -->
<svg xmlns="http://www.w3.org/2000/svg" xml:space="preserve" width="8.5in" height="11in" version="1.1" style="shape-rendering:geometricPrecision; text-rendering:geometricPrecision; image-rendering:optimizeQuality; fill-rule:evenodd; clip-rule:evenodd"
viewBox="0 0 8500 11000"
 xmlns:xlink="http://www.w3.org/1999/xlink">
 <defs>
  <style type="text/css">
   <![CDATA[
    .fil7 {fill:#78797C}
    .fil0 {fill:#373435}
    .fil4 {fill:#FFF7D0}
    .fil13 {fill:#F15D42}
    .fil12 {fill:#F29739}
    .fil6 {fill:#F0F1E0}
    .fil21 {fill:#D1C581}
    .fil19 {fill:#758663}
    .fil20 {fill:#64705A}
    .fil18 {fill:#535155}
    .fil1 {fill:#77A64C}
    .fil15 {fill:#769F53}
    .fil3 {fill:#70A14F}
    .fil2 {fill:#658F49}
    .fil24 {fill:#5C7B55}
    .fil22 {fill:#2C2E2C}
    .fil5 {fill:#2C2A2B}
    .fil10 {fill:#4F7645}
    .fil23 {fill:#2A2B2B}
    .fil8 {fill:#292929}
    .fil16 {fill:#48683E}
    .fil17 {fill:#47653D}
    .fil11 {fill:#405742}
    .fil9 {fill:#384C34}
    .fil14 {fill:#2B2C2F}
   ]]>
  </style>
    <clipPath id="id0">
     <path d="M6993 7480l0 0c0,0 8,-45 8,-111 0,-138 -36,-364 -261,-451 0,0 -202,-103 -470,-217 0,0 -37,-3 -37,-52 0,-28 11,-69 45,-131 0,0 68,-139 68,-282 0,-29 -3,-58 -9,-85 0,0 121,-51 223,-232 0,0 151,-285 346,-440 0,0 68,-38 68,-127 0,-14 -1,-30 -5,-46 0,0 -59,-164 -621,-351 0,0 -68,-32 -154,-32 -78,0 -171,26 -243,124 0,0 -102,143 -226,443 0,0 -73,302 -398,389 0,0 -12,-238 -284,-323l0 0c0,0 4,28 4,70 0,113 -28,334 -233,410 0,-1 -26,7 -67,7 -50,0 -122,-12 -194,-66 0,0 -19,-37 -139,-37 -42,0 -95,4 -164,16 0,0 -12,5 -34,5 -44,0 -129,-19 -237,-133 0,0 -61,-58 -150,-58 -48,0 -104,17 -163,67 0,0 -66,51 -95,80 0,0 -26,-255 -271,-474 0,0 0,7 0,19 0,71 -2,337 -36,468 0,0 -34,158 -175,160 0,0 -1,0 -3,0 -11,0 -54,-2 -120,-37 0,-1 -25,-31 -86,-31 -25,0 -58,5 -97,21 0,0 -51,13 -123,13 -96,0 -231,-23 -334,-134 0,0 -229,-256 -244,-271 0,0 -32,-66 -159,-66 -4,0 -7,0 -11,0 0,0 0,0 0,0 -2,0 -70,-2 -238,-293 0,0 -246,-483 -687,-483 -16,0 -33,1 -49,2 0,0 -443,73 -443,560 0,11 0,21 0,33 0,0 -1,0 -3,0 -23,0 -185,-3 -185,-82 0,-6 1,-13 3,-20 0,0 188,-517 302,-715 -20,66 -29,161 63,200 0,0 141,-154 363,-154 118,0 258,43 412,173 0,0 185,-318 490,-404 0,0 -239,38 -380,170 0,0 6,-24 23,-61 29,-36 233,-278 537,-278 29,0 58,2 89,7 0,0 97,204 154,360 0,0 -42,123 -166,255l0 0c0,0 135,-53 216,-181 0,0 174,181 193,430 0,0 8,-27 8,-76 0,-80 -21,-221 -130,-404 3,-2 210,-131 260,-177 0,0 74,74 84,177 0,0 334,78 399,288 0,0 123,184 315,218l0 0c0,0 -242,-168 -387,-410 0,0 -76,-67 -155,-121 48,25 155,94 256,250 0,0 42,78 239,227l0 0c-35,-27 -140,-118 -202,-267 0,0 -51,-126 -196,-224 0,0 73,-23 132,-114 0,0 37,-71 155,-71 103,0 269,55 527,260l0 0c0,0 -53,-177 -540,-307 0,0 55,-78 177,-78 61,0 139,19 237,78 0,0 334,250 649,250 19,0 39,-1 58,-3 0,0 -2,1 -7,1 -37,0 -208,-15 -515,-251 0,0 -197,-132 -374,-132 -89,0 -173,33 -225,135 -9,-3 -19,-5 -29,-8 0,0 63,-143 261,-143 31,0 66,3 104,11 0,0 243,81 431,223 0,0 194,156 313,156 18,0 34,-3 47,-11l0 0c0,0 -172,-2 -349,-170 0,0 -48,-58 -113,-81 0,0 118,0 237,-100 0,0 122,-97 270,-97 61,0 127,17 190,63 0,0 232,195 397,195 30,0 59,-7 83,-23l0 0c0,0 -18,5 -50,5 -62,0 -176,-18 -316,-124 0,0 168,-185 269,-204 0,0 12,-3 32,-3 28,0 71,7 119,39 0,0 61,51 139,51 23,0 47,-4 71,-15l0 0c0,0 -24,8 -57,8 -38,0 -90,-11 -129,-59 0,0 7,-24 7,-69 0,-67 -16,-182 -100,-336 0,0 146,17 234,245 0,0 9,-36 9,-93 0,-121 -42,-338 -309,-507 0,0 -110,-82 -241,-82 -65,0 -136,20 -200,82 0,0 -100,94 -199,496 0,0 -39,264 -242,398 0,0 -89,73 -217,73 -42,0 -89,-8 -138,-29 0,-1 -141,-95 -298,-95 -4,0 -9,0 -13,0 0,0 -71,-95 -71,-177 0,-32 12,-62 43,-83 0,0 36,-38 141,-104 0,0 73,-28 169,-153l0 0c0,0 -81,104 -248,146 0,0 -158,30 -158,185 0,13 1,27 4,43 0,0 4,71 42,136 0,0 -63,28 -154,85 0,0 -4,4 -11,4 -16,0 -46,-19 -83,-133 0,0 -7,18 -7,52 0,32 6,80 31,143 0,0 -133,210 -259,210 -11,0 -22,-1 -33,-5 0,0 23,-162 23,-317 0,-138 -18,-270 -84,-277 0,0 -4,-1 -12,-1 -28,0 -104,17 -194,188l0 0c0,0 106,-155 183,-155 5,0 10,1 15,2 0,0 48,13 48,89 0,51 -22,132 -95,256l0 0c0,0 42,-47 74,-56 0,0 -36,80 -36,174 0,5 0,11 0,16 0,0 -72,-158 -275,-189 0,0 -4,-26 -4,-58 0,-34 4,-76 20,-102 0,0 10,-15 10,-45 0,-28 -8,-69 -41,-123 0,0 -43,-78 -43,-178 0,-58 15,-123 61,-184 0,0 227,-392 521,-483 0,0 23,-7 57,-7 76,0 203,35 226,258 0,0 -118,28 -147,117l0 0c0,0 50,-28 105,-28 18,0 36,3 54,11 0,0 5,17 6,51 0,38 -7,96 -37,175 0,0 -3,8 -3,14 0,4 1,6 4,6 4,0 14,-6 31,-23 0,0 96,-140 323,-202 0,0 -54,143 -59,268l0 0c0,0 117,-340 346,-408 0,0 61,-4 134,-66 0,0 11,15 11,51 0,44 -15,119 -80,236l0 0c0,0 175,-118 175,-430 0,-6 0,-11 0,-17 0,0 -1,-15 -1,-41 0,-105 20,-385 224,-501 0,0 151,-90 297,-90 56,0 110,13 156,49 0,0 79,36 82,243 0,0 51,-19 51,-99 0,-35 -10,-82 -38,-144 0,0 -2,-2 -2,-6 0,-6 10,-15 68,-15 15,0 33,1 54,2 0,0 2,0 4,0 40,0 425,15 486,598 0,0 41,-93 41,-233 0,-6 0,-11 0,-16 0,0 63,115 162,230 0,0 146,162 146,411 0,89 -19,190 -70,298l0 0c0,0 107,-166 112,-358 0,0 579,185 1138,672 0,0 647,484 864,1763 0,0 37,153 37,338 0,237 -62,527 -345,605 0,0 -117,53 -347,87 0,0 -211,15 -347,117l0 0c0,0 20,12 110,12 12,0 25,0 39,-1 0,0 -14,238 -235,498zm-36 -3214c111,71 219,172 310,313 0,0 411,481 630,1073 0,0 61,-601 -584,-1364 0,0 -344,-464 -1120,-676 0,0 176,291 -21,502 0,0 73,-15 184,-15 85,0 194,9 310,40 -102,69 -89,256 -89,256 4,210 200,222 200,222 10,2 19,2 28,2 154,0 173,-191 173,-191 4,-68 -5,-121 -21,-162l0 0zm-3082 398l0 0c0,0 -153,-180 -492,-180 -31,0 -63,1 -97,5 0,0 13,68 -75,136 0,0 73,-6 102,-71 0,0 28,-3 75,-3 106,0 308,15 487,113l0 0zm639 -404c52,0 112,12 175,48 0,0 171,120 387,120 45,0 91,-5 139,-17 0,0 -9,0 -23,0 -65,0 -253,-13 -396,-151 0,0 -119,-113 -265,-113 -52,0 -108,15 -163,53 0,0 -73,74 -245,165 0,0 2,0 6,0 27,0 136,-3 208,-57 0,0 72,-48 177,-48l0 0zm-886 -176c109,0 213,63 213,63 90,65 175,71 205,71 7,0 11,0 11,0 286,-34 377,-465 377,-465 117,-416 251,-484 251,-484 110,-52 203,-72 282,-72 250,0 345,202 345,202 53,150 197,292 197,292 136,88 224,280 224,280 476,-306 14,-954 14,-954 0,155 -27,165 -35,165 -1,0 -1,0 -1,0 -56,-60 -90,-128 -90,-128 -118,-381 -329,-430 -429,-430 -34,0 -55,6 -55,6 14,192 -88,235 -88,235 -45,-233 -210,-266 -298,-266 -34,0 -57,5 -57,5 -304,31 -253,459 -253,459 5,351 -126,373 -126,373 -93,31 -173,122 -173,122 -21,20 -34,26 -42,26 -11,0 -14,-10 -14,-10 -9,-92 37,-180 37,-180 -59,34 -102,39 -102,39 -105,57 -89,141 -89,141 -60,206 -164,244 -164,244 -224,153 -154,266 -154,266 5,0 9,0 14,0zm1477 56c17,0 39,2 66,7 0,0 93,47 198,47 59,0 121,-14 174,-59 0,0 -39,13 -100,13 -54,0 -126,-11 -202,-50 0,0 -42,-16 -88,-16 -41,0 -85,13 -101,65 0,0 17,-7 53,-7zm1046 -104c1,0 2,0 3,0 92,0 91,-116 91,-116 6,-141 -99,-161 -99,-161 -9,-2 -17,-2 -24,-2 -103,0 -94,121 -94,121l0 18c6,139 120,140 123,140 0,0 0,0 0,0l0 0zm-3241 -238c134,0 196,232 196,232 233,-252 239,-588 239,-588 -2,0 -4,0 -5,0 -65,0 -90,56 -90,56 -12,-192 95,-246 95,-246 -64,-115 -151,-135 -201,-135 -24,0 -40,5 -40,5 -555,161 -416,857 -416,857 89,-135 162,-181 222,-181l0 0zm-2424 915c0,0 0,0 -1,0 0,0 0,0 0,0 -6,0 -92,-7 -137,-409 0,0 -1,-5 -1,-14 0,-38 15,-141 175,-141 22,-1 47,1 75,6 0,0 -20,90 -23,196l0 0c0,0 150,-339 281,-460 0,0 55,-71 139,-71 35,0 75,12 119,48 0,0 66,49 151,57 0,0 -29,70 -46,128 0,0 0,0 -1,0 -12,0 -136,-2 -195,-70 0,0 -7,-4 -21,-4 -28,0 -82,19 -144,140 0,0 -78,128 -211,189 0,0 -47,85 -79,85 -17,0 -29,-24 -28,-97 0,0 -156,95 0,283 0,0 2,1 5,1 16,0 61,-6 95,-61 0,0 -15,28 -27,66 -25,40 -87,128 -126,128l0 0zm1998 -90c-20,-34 -44,-70 -71,-108 0,0 126,-180 265,-180 9,0 19,1 29,3 0,0 20,8 46,27 0,0 0,0 0,0 0,0 -168,167 -269,259l0 -1zm428 -71c-10,0 -32,-10 -66,-81 0,0 -25,-42 -57,-75 20,19 41,44 57,75 0,0 28,43 71,79 0,0 -2,2 -5,2l0 0zm-1261 -154c53,-69 132,-146 251,-198 0,0 3,-161 -239,-161 -103,0 -249,28 -458,110 0,0 -11,-23 13,-96 -5,19 -10,36 -11,49 0,0 -1,5 -1,10 0,4 1,7 3,7 4,0 15,-13 40,-62 0,0 68,-157 337,-157 25,0 51,1 80,4 0,0 0,0 1,0 14,0 181,5 375,234 0,0 -246,83 -391,260z"/>
    </clipPath>
    <clipPath id="id1">
     <path d="M2741 7687c-164,0 -591,-38 -902,-403 0,0 162,-60 269,-113l0 0c0,0 -111,18 -221,18 -50,0 -99,-4 -139,-14 0,0 -210,-347 -230,-721 0,0 412,664 1035,891 0,0 -166,143 -289,158l0 0c0,0 298,-26 431,-90 0,0 28,162 114,271 0,0 -25,3 -68,3l0 0z"/>
    </clipPath>
    <clipPath id="id2">
     <path d="M4733 8573c-154,0 -805,-45 -1680,-734 0,0 -180,-139 -234,-382 0,0 78,8 191,8 243,0 650,-37 804,-268l0 0c0,0 -254,194 -656,194 -297,0 -675,-106 -1093,-475 0,0 -413,-365 -564,-730 0,0 77,12 176,12 103,0 229,-12 320,-62l0 0c0,0 -40,4 -105,4 -158,0 -463,-27 -697,-211 0,0 -423,-379 -424,-824 0,-14 1,-28 1,-43 0,0 9,-150 245,-150 19,0 39,1 60,3 0,0 2,0 5,0 35,0 245,16 478,374 0,0 127,207 227,330 0,0 55,69 179,85 0,0 10,-4 26,-4 36,0 102,20 152,151 0,0 94,260 483,302 0,-1 15,1 36,1 32,0 78,-3 113,-17 0,0 34,-14 83,-14 41,0 94,10 148,48 0,0 49,12 98,12 39,0 78,-7 93,-34 0,0 32,-21 83,-21 14,0 30,2 47,6 0,0 14,2 38,2 50,0 138,-12 205,-89 0,0 -13,106 -55,188l0 0c0,0 128,-146 128,-236l0 0c0,-10 -2,-19 -5,-28 0,0 80,-95 184,-95 9,0 18,0 27,2 0,0 3,0 8,0 20,-1 81,9 160,108 0,0 49,48 173,90 0,0 8,109 8,213 0,52 -2,103 -8,138l0 0c0,0 165,-122 275,-376 0,0 4,-3 13,-3 18,0 51,9 103,56 0,0 64,52 154,52 54,0 118,-19 182,-80 0,0 4,-7 15,-7 16,0 45,14 92,81 0,0 5,-12 5,-28l0 0c0,-16 -6,-37 -27,-52 0,0 98,42 194,42 74,0 146,-24 173,-109 0,0 14,20 15,56 0,26 -8,59 -32,99l0 0c0,0 1,0 2,0 13,0 74,-6 74,-136l0 0c0,-25 -2,-55 -8,-90 0,0 127,0 200,-102 0,0 1,0 3,0 21,0 133,5 478,93 0,0 57,17 124,17 78,0 171,-23 205,-119 0,0 221,-441 340,-551 0,0 0,0 0,0 5,0 48,2 119,93 0,0 -250,178 -418,518 0,0 -79,178 -183,178 -2,0 -4,0 -7,0 0,0 -92,-11 -197,-54 0,0 -138,-39 -279,-45 0,0 -185,855 -1326,1033l0 0c0,0 973,-17 1352,-934 0,0 32,-9 86,-9 73,0 187,17 320,97 0,0 15,26 15,84 0,49 -11,121 -51,219 0,-1 -53,90 -53,190l0 0c0,45 11,91 43,132 0,0 68,71 363,159 0,0 344,53 344,436 0,35 -2,73 -9,113l0 0c0,0 2,7 2,19 0,64 -44,291 -595,626 0,0 -462,387 -1530,447 0,0 -12,1 -34,1l0 0z"/>
    </clipPath>
    <clipPath id="id3">
     <path d="M1450 4806c-154,-130 -294,-173 -412,-173 -222,0 -363,154 -363,154 -92,-39 -83,-134 -63,-200 2,-4 5,-8 7,-12l0 -1c-2,3 -4,7 -7,11 12,-38 27,-66 27,-66 -34,55 -79,61 -95,61 -3,0 -5,-1 -5,-1 -156,-188 0,-283 0,-283 -1,73 11,97 28,97 32,0 79,-85 79,-85 133,-61 211,-189 211,-189 62,-121 116,-140 144,-140 14,0 21,4 21,4 59,68 183,70 195,70 1,0 1,0 1,0 0,0 0,0 0,0 -24,73 -13,96 -13,96 209,-82 355,-110 458,-110 242,0 239,161 239,161 -119,52 -198,129 -251,198 -29,36 -53,74 -71,117l0 0c0,0 1,-1 3,-4 -17,37 -23,61 -23,61 141,-132 380,-170 380,-170 -305,86 -490,404 -490,404zm-825 -240c0,0 0,0 0,0 0,0 0,0 0,0 0,0 0,0 0,0 0,0 0,0 0,0l0 0z"/>
    </clipPath>
    <clipPath id="id4">
     <path d="M3542 5130c-192,-34 -315,-218 -315,-218 -65,-210 -399,-288 -399,-288 -10,-103 -84,-177 -84,-177 -50,46 -257,175 -260,177l0 -1c101,-91 269,-258 269,-258 0,0 0,0 0,0 11,8 24,19 36,31 32,33 57,75 57,75 34,71 56,81 66,81 3,0 5,-1 5,-2 17,15 36,28 57,37 0,0 10,3 26,12 79,54 155,121 155,121 145,242 387,410 387,410l0 0z"/>
    </clipPath>
    <clipPath id="id5">
     <path d="M4434 4603c-315,0 -649,-250 -649,-250 -98,-59 -176,-78 -237,-78 -122,0 -177,78 -177,78l0 0c52,-102 136,-135 225,-135 177,0 374,132 374,132 307,236 478,251 515,251 5,0 7,-1 7,-1 -19,2 -39,3 -58,3l0 0z"/>
    </clipPath>
    <clipPath id="id6">
     <path d="M5076 4428c-216,0 -387,-120 -387,-120 -63,-36 -123,-48 -175,-48 -105,0 -177,48 -177,48 -72,54 -181,57 -208,57 -4,0 -6,0 -6,0 172,-91 245,-165 245,-165 55,-38 111,-53 163,-53 146,0 265,113 265,113 143,138 331,151 396,151 14,0 23,0 23,0 -48,12 -94,17 -139,17l0 0z"/>
    </clipPath>
    <clipPath id="id7">
     <path d="M3875 4664c-179,-98 -381,-113 -487,-113 -47,0 -75,3 -75,3 -29,65 -102,71 -102,71 88,-68 75,-136 75,-136 34,-4 66,-5 97,-5 339,0 492,180 492,180l0 0z"/>
    </clipPath>
    <clipPath id="id8">
     <path d="M3106 4030c0,0 -62,-232 -196,-232 -60,0 -133,46 -222,181 0,0 -139,-696 416,-857 0,0 16,-5 40,-5 50,0 137,20 201,135 0,0 -107,54 -95,246 0,0 25,-56 90,-56 1,0 3,0 5,0 0,0 -6,336 -239,588z"/>
    </clipPath>
    <clipPath id="id9">
     <path d="M4046 4218c-30,0 -115,-6 -205,-71 0,0 -104,-63 -213,-63 -5,0 -9,0 -14,0 0,0 -70,-113 154,-266 0,0 104,-38 164,-244 0,0 -16,-84 89,-141 0,0 43,-5 102,-39 0,0 -46,88 -37,180 0,0 3,10 14,10 8,0 21,-6 42,-26 0,0 80,-91 173,-122 0,0 131,-22 126,-373 0,0 -51,-428 253,-459 0,0 23,-5 57,-5 88,0 253,33 298,266 0,0 102,-43 88,-235 0,0 21,-6 55,-6 100,0 311,49 429,430 0,0 34,68 90,128 0,0 0,0 1,0 8,0 35,-10 35,-165 0,0 462,648 -14,954 0,0 -88,-192 -224,-280 0,0 -144,-142 -197,-292 0,0 -95,-202 -345,-202 -79,0 -172,20 -282,72 0,0 -134,68 -251,484 0,0 -91,431 -377,465 0,0 -4,0 -11,0l0 0z"/>
    </clipPath>
    <clipPath id="id10">
     <path d="M5372 4194l-3 0c-105,0 -198,-47 -198,-47 -27,-5 -49,-7 -66,-7 -36,0 -53,7 -53,7 16,-52 60,-65 101,-65 46,0 88,16 88,16 76,39 148,50 202,50 61,0 100,-13 100,-13 -52,44 -113,58 -171,59z"/>
    </clipPath>
    <clipPath id="id11">
     <path d="M7897 5652c-219,-592 -630,-1073 -630,-1073 -91,-141 -199,-242 -310,-313 -53,-136 -181,-151 -181,-151 -8,-1 -16,-1 -23,-1 -36,0 -64,10 -87,25 -116,-31 -225,-40 -310,-40 -111,0 -184,15 -184,15 197,-211 21,-502 21,-502 776,212 1120,676 1120,676 645,763 584,1364 584,1364l0 0z"/>
    </clipPath>
 </defs>
 <g id="Layer_x0020_1">
  <metadata id="CorelCorpID_0Corel-Layer"/>
  <g id="_79488101536">
   <path class="fil0" d="M254 5411c0,0 -93,-249 175,-594 0,0 -269,-396 -96,-690 0,0 23,-97 295,-68 0,0 151,-340 360,-340 0,0 58,6 141,51 0,0 156,113 457,34 0,0 358,-96 530,323 0,0 219,-60 258,277 0,0 110,-130 183,-133 0,0 -54,-119 0,-201 0,0 53,-102 -51,-215 0,0 -124,-241 204,-577 0,0 270,-317 501,-323 0,0 321,-82 331,453 0,0 170,-77 284,-77 0,0 73,-135 387,-209 0,0 -71,-492 240,-662 0,0 244,-201 560,-88 0,0 413,-130 690,331 0,0 132,-36 266,303l525 -23c0,0 -51,204 -39,445 0,0 532,-91 802,31 0,0 -119,254 -119,415 0,0 579,159 876,527 0,0 -124,133 -161,388 0,0 219,107 409,534 0,0 -68,91 -129,309 0,0 173,710 -32,993 0,0 -177,311 -785,356 0,0 -144,827 -1172,1347 0,0 -353,280 -1318,334 0,0 -1017,20 -1705,-659 0,0 -151,-125 -226,-209 0,0 -625,11 -997,-312 0,0 -435,-364 -522,-1329 0,-1 -441,-155 -620,-691 0,0 20,260 -81,294 0,0 -95,46 -147,-241 0,0 -200,2 -274,-104z"/>
   <path class="fil1" d="M667 5104c0,0 -209,230 0,515 0,0 18,-374 0,-515z"/>
   <path class="fil2" d="M495 5404c0,0 -217,3 -185,-102 0,0 202,-557 315,-736 0,0 -89,149 -140,147 0,0 -90,8 -137,-409 0,0 -28,-193 249,-149 0,0 -20,90 -23,196 0,0 150,-339 281,-460 0,0 110,-144 258,-23 0,0 66,49 151,57 0,0 -51,122 -57,177 0,0 -11,60 42,-45 0,0 82,-188 417,-153 0,0 173,-6 376,234 0,0 -354,119 -462,377 0,0 251,-334 629,-275 0,0 97,204 154,360 0,0 -42,123 -166,255 0,0 135,-53 216,-181 0,0 174,181 193,430 0,0 67,-230 -193,-589 0,0 144,-205 294,-177 0,0 89,37 139,133 0,0 55,84 128,116 0,0 146,53 282,262 0,0 44,81 250,236 0,0 -138,-96 -213,-276 0,0 -51,-126 -196,-224 0,0 73,-23 132,-114 0,0 131,-250 682,189 0,0 -55,-184 -569,-315 0,0 84,-192 365,-132 0,0 243,81 431,223 0,0 255,206 360,145 0,0 -172,-2 -349,-170 0,0 -48,-58 -113,-81 0,0 118,0 237,-100 0,0 243,-194 460,-34 0,0 326,274 480,172 0,0 -154,42 -366,-119 0,0 168,-185 269,-204 0,0 68,-20 151,36 0,0 102,85 210,36 0,0 -113,38 -186,-51 0,0 47,-147 -93,-405 0,0 146,17 234,245 0,0 92,-351 -300,-600 0,0 -248,-185 -441,0 0,0 -100,94 -199,496 0,0 -39,264 -242,398 0,0 -159,130 -355,44 0,-1 -149,-100 -311,-95 0,0 -138,-187 -28,-260 0,0 36,-38 141,-104 0,0 73,-28 169,-153 0,0 -81,104 -248,146 0,0 -187,35 -154,228 0,0 4,71 42,136 0,0 -63,28 -154,85 0,0 -39,39 -94,-129 0,0 -26,68 24,195 0,0 -157,249 -292,205 0,0 80,-579 -61,-594 0,0 -93,-28 -206,187 0,0 120,-176 198,-153 0,0 134,36 -47,345 0,0 42,-47 74,-56 0,0 -40,90 -36,190 0,0 -72,-158 -275,-189 0,0 -15,-109 16,-160 0,0 37,-55 -31,-168 0,0 -108,-196 18,-362 0,0 227,-392 521,-483 0,0 249,-71 283,251 0,0 -118,28 -147,117 0,0 89,-49 159,-17 0,0 26,75 -31,226 0,0 -18,47 32,-3 0,0 96,-140 323,-202 0,0 -54,143 -59,268 0,0 117,-340 346,-408 0,0 61,-4 134,-66 0,0 51,72 -69,287 0,0 181,-123 175,-447 0,0 -31,-398 223,-542 0,0 287,-171 453,-41 0,0 79,36 82,243 0,0 104,-39 13,-243 0,0 -30,-28 120,-19 0,0 425,-17 490,598 0,0 44,-100 41,-249 0,0 63,115 162,230 0,0 269,298 76,709 0,0 107,-166 112,-358 0,0 579,185 1138,672 0,0 647,484 864,1763 0,0 195,804 -308,943 0,0 -117,53 -347,87 0,0 -211,15 -347,117 0,0 26,15 149,11 0,0 -14,238 -235,498 0,0 80,-433 -253,-562 0,0 -202,-103 -470,-217 0,0 -87,-7 8,-183 0,0 98,-200 59,-367 0,0 121,-51 223,-232 0,0 151,-285 346,-440 0,0 92,-51 63,-173 0,0 -59,-164 -621,-351 0,0 -245,-115 -397,92 0,0 -102,143 -226,443 0,0 -73,302 -398,389 0,0 -12,-238 -284,-323 0,0 52,376 -229,480 0,-1 -131,39 -261,-59 0,0 -35,-68 -303,-21 0,0 -110,42 -271,-128 0,0 -144,-136 -313,9 0,0 -66,51 -95,80 0,0 -26,-255 -271,-474 0,0 3,334 -36,487 0,0 -34,158 -175,160 0,0 -45,4 -123,-37 0,-1 -50,-63 -183,-10 0,0 -277,72 -457,-121 0,0 -229,-256 -244,-271 0,0 -34,-70 -170,-66 0,0 -68,2 -238,-293 0,0 -264,-518 -736,-481 0,0 -462,76 -443,593z"/>
   <g style="clip-path:url(#id0)">
    <image transform="matrix(3.75216 -0 -0 -3.75216 289.452 7492.24)" x="0" y="0" width="2091" height="1354" xlink:href="a-face-1_Images\a-face-1_ImgID1.png"/>
   </g>
   <path class="fil3" d="M1518 6454c0,0 412,664 1035,891 0,0 -166,143 -289,158 0,0 298,-26 431,-90 0,0 28,162 114,271 0,0 -577,61 -970,-400 0,0 162,-60 269,-113 0,0 -233,38 -360,4 0,0 -210,-347 -230,-721z"/>
   <g style="clip-path:url(#id1)">
    <image transform="matrix(3.75216 -0 -0 -3.75216 1501.4 7702.36)" x="0" y="0" width="354" height="338" xlink:href="a-face-1_Images\a-face-1_ImgID2.png"/>
   </g>
   <path class="fil4" d="M772 5062c0,0 10,-174 305,-147 0,0 227,-19 483,374 0,0 127,207 227,330 0,0 55,69 179,85 0,0 107,-42 178,147 0,0 94,260 483,302 0,-1 91,7 149,-16 0,0 114,-49 231,34 0,0 158,38 191,-22 0,0 52,-34 130,-15 0,0 145,26 243,-87 0,0 -13,106 -55,188 0,0 158,-180 123,-264 0,0 95,-113 211,-93 0,0 71,-14 168,108 0,0 49,48 173,90 0,0 19,246 0,351 0,0 165,-122 275,-376 0,0 36,-20 116,53 0,0 166,133 336,-28 0,0 27,-40 107,74 0,0 19,-51 -22,-80 0,0 304,131 367,-67 0,0 42,59 -17,155 0,0 105,11 68,-226 0,0 127,0 200,-102 0,0 94,-6 481,93 0,0 265,77 329,-102 0,0 221,-441 340,-551 0,0 44,-3 119,93 0,0 -250,178 -418,518 0,0 -83,187 -190,178 0,0 -92,-11 -197,-54 0,0 -138,-39 -279,-45 0,0 -185,855 -1326,1033 0,0 973,-17 1352,-934 0,0 175,-51 406,88 0,0 52,90 -36,303 0,-1 -112,192 -10,322 0,0 68,71 363,159 0,0 411,64 335,549 0,0 63,246 -593,645 0,0 -462,387 -1530,447 0,0 -710,58 -1714,-733 0,0 -180,-139 -234,-382 0,0 769,79 995,-260 0,0 -766,588 -1749,-281 0,0 -413,-365 -564,-730 0,0 316,48 496,-50 0,0 -471,53 -802,-207 0,0 -451,-404 -423,-867z"/>
   <g style="clip-path:url(#id2)">
    <image transform="matrix(3.75216 -0 -0 -3.75216 750.967 8587.87)" x="0" y="0" width="1641" height="985" xlink:href="a-face-1_Images\a-face-1_ImgID3.png"/>
   </g>
   <path class="fil5" d="M920 5289c0,0 169,146 516,159 0,0 -307,102 -516,-159z"/>
   <path class="fil5" d="M1392 5847c0,0 121,54 335,40 0,0 -233,70 -335,-40z"/>
   <path class="fil5" d="M2070 6571c0,0 222,227 581,193 0,0 409,-6 995,-337 0,0 -328,311 -1004,371 0,0 -453,-12 -572,-227z"/>
   <path class="fil5" d="M2992 7098c0,0 343,59 635,-142 0,0 -287,306 -635,142z"/>
   <path class="fil5" d="M3918 7499c0,0 202,-48 601,0 0,0 990,46 1503,-769 0,0 -316,730 -1420,815 0,0 -123,20 -352,-20 0,0 -47,-17 -332,-26z"/>
   <path class="fil5" d="M3473 7825c0,0 506,458 1550,348 0,0 1048,-108 1425,-900 0,0 -253,818 -1501,956 0,0 -807,139 -1474,-404z"/>
   <path class="fil6" d="M3257 6019c0,0 90,-198 56,-475 0,0 61,79 61,238 0,0 34,-65 -22,-260 0,0 151,158 190,410 0,0 -124,240 -285,87z"/>
   <path class="fil6" d="M4213 6085c0,0 22,133 0,237 0,0 63,-62 97,-186 0,0 -11,109 -49,186 0,0 127,-99 183,-252 0,0 -93,-79 -231,15z"/>
   <path class="fil6" d="M4970 5966c0,0 99,-162 96,-331 0,0 51,62 85,209 0,0 32,-62 -70,-249 0,0 153,9 231,308 0,0 -33,159 -187,111 0,0 -83,-17 -155,-48z"/>
   <path class="fil6" d="M5864 5405c0,0 165,-432 311,-393 0,0 93,360 -146,583 0,0 -56,-144 -165,-190z"/>
   <path class="fil6" d="M6217 5527c0,0 -66,236 -141,282 0,0 211,111 325,-98 0,0 -9,-136 -184,-184z"/>
   <path class="fil6" d="M6314 5074c0,0 156,108 168,453 0,0 91,-202 199,-291 0,0 -173,-156 -367,-162z"/>
   <path class="fil7" d="M612 4587c0,0 0,-1 0,-2 3,-4 5,-7 7,-10 -2,4 -5,8 -7,12zm13 -21c0,0 0,0 0,0l0 0zm955 -51c18,-43 42,-81 71,-117 -32,42 -53,82 -68,113 -2,3 -3,4 -3,4zm-362 -462c0,0 0,0 0,0 0,0 0,0 0,0 0,0 0,0 0,0z"/>
   <g style="clip-path:url(#id3)">
    <image transform="matrix(3.75216 -0 -0 -3.75216 364.495 4816.95)" x="0" y="0" width="424" height="228" xlink:href="a-face-1_Images\a-face-1_ImgID4.png"/>
   </g>
   <path class="fil7" d="M2484 4624c0,0 0,0 0,0l0 0c0,0 0,0 0,0zm516 -25c-16,-9 -26,-12 -26,-12 -21,-9 -40,-22 -57,-37 0,0 0,0 0,0 26,12 55,30 83,49zm-211 -203c-12,-13 -25,-23 -36,-31 13,8 25,19 36,31z"/>
   <g style="clip-path:url(#id4)">
    <image transform="matrix(3.75216 -0 -0 -3.75216 2465.7 5139.64)" x="0" y="0" width="291" height="211" xlink:href="a-face-1_Images\a-face-1_ImgID5.png"/>
   </g>
   <path class="fil7" d="M3371 4353l0 0c0,0 0,0 0,0z"/>
   <g style="clip-path:url(#id5)">
    <image transform="matrix(3.75216 -0 -0 -3.75216 3351.21 4614.34)" x="0" y="0" width="308" height="111" xlink:href="a-face-1_Images\a-face-1_ImgID6.png"/>
   </g>
   <g style="clip-path:url(#id6)">
    <image transform="matrix(3.75216 -0 -0 -3.75216 4101.64 4441.74)" x="0" y="0" width="301" height="81" xlink:href="a-face-1_Images\a-face-1_ImgID7.png"/>
   </g>
   <g style="clip-path:url(#id7)">
    <image transform="matrix(3.75216 -0 -0 -3.75216 3189.87 4678.12)" x="0" y="0" width="188" height="54" xlink:href="a-face-1_Images\a-face-1_ImgID8.png"/>
   </g>
   <g style="clip-path:url(#id8)">
    <image transform="matrix(3.75216 -0 -0 -3.75216 2540.75 4040.26)" x="0" y="0" width="217" height="251" xlink:href="a-face-1_Images\a-face-1_ImgID9.png"/>
   </g>
   <path class="fil8" d="M2963 3702c0,0 73,-158 206,-189 0,0 -172,-13 -206,189z"/>
   <path class="fil8" d="M2827 3574c0,0 36,-87 136,-155 0,0 -117,7 -136,155z"/>
   <g style="clip-path:url(#id9)">
    <image transform="matrix(3.75216 -0 -0 -3.75216 3527.56 4227.87)" x="0" y="0" width="718" height="438" xlink:href="a-face-1_Images\a-face-1_ImgID10.png"/>
   </g>
   <path class="fil9" d="M5273 2768c0,0 117,235 -58,436 0,0 245,-164 58,-436z"/>
   <path class="fil9" d="M5633 3153c0,0 136,328 -68,433 0,0 306,-96 68,-433z"/>
   <path class="fil10" d="M4575 3648c0,0 406,-2 392,450 0,0 192,-155 289,-42 0,0 66,-252 -199,-449 0,0 160,-80 338,177 0,0 53,-274 -410,-489 0,0 -230,-130 -337,152 0,0 -44,100 -73,201z"/>
   <path class="fil11" d="M4621 3512c0,0 176,-277 550,-110 0,0 -254,-197 -386,-121 0,0 -122,53 -164,231z"/>
   <path class="fil12" d="M4568 3682c0,0 -53,216 -178,439 0,0 137,-38 207,0 0,0 95,51 83,-195 0,0 65,42 65,240 0,0 46,128 119,29 0,0 88,-51 54,-284 0,0 -71,-259 -350,-229z"/>
   <path class="fil13" d="M4554 3732c0,0 306,50 352,403 0,0 40,-116 12,-224 0,0 -83,-261 -350,-229l-14 50z"/>
   <path class="fil14" d="M2749 5335c0,0 46,84 46,165 0,0 -5,84 78,143 0,0 -107,-20 -100,-154 0,0 -2,-92 -24,-154z"/>
   <path class="fil14" d="M3717 5335c0,0 -3,22 19,79 0,0 12,25 0,108 0,0 -10,22 39,45 0,0 -39,-51 -12,-116 0,0 10,-79 -46,-116z"/>
   <path class="fil14" d="M3945 4882c0,0 183,49 268,248 0,0 99,219 258,321 0,0 -149,-146 -205,-321 0,0 -104,-228 -321,-248z"/>
   <path class="fil14" d="M4719 5106c0,0 97,65 97,266 0,0 44,-300 -97,-266z"/>
   <path class="fil14" d="M4669 4428c0,0 174,27 259,175 0,0 90,138 335,126 0,0 200,-14 246,-232 0,0 -82,201 -294,187 0,0 -175,17 -270,-153 0,0 -90,-110 -276,-103z"/>
   <path class="fil9" d="M6000 3428c0,0 5,-232 -141,-379 0,0 -93,-111 -112,-176 0,0 -51,51 78,221 0,0 126,105 175,334z"/>
   <path class="fil9" d="M5090 2507c0,0 375,12 506,366 0,0 47,-41 31,-80 0,0 -115,-386 -548,-326l11 40z"/>
   <path class="fil9" d="M4220 3409c0,0 168,-117 146,-440 0,0 -53,-271 292,-450 0,0 231,-97 394,80 0,0 -37,-259 -383,-141 0,0 -305,67 -351,415 0,0 -10,76 -12,176 0,0 11,194 -86,360z"/>
   <path class="fil15" d="M6037 3077l357 0c0,0 -34,222 -19,332 0,0 -106,-94 -258,-97 0,0 -29,-136 -80,-235z"/>
   <path class="fil16" d="M6117 3312c0,0 14,-153 277,-235 0,0 -34,251 -19,332 0,0 -126,-83 -258,-97z"/>
   <path class="fil15" d="M6577 3498c0,0 415,-19 559,26 0,0 -71,150 -83,294 0,0 -455,-317 -476,-320z"/>
   <path class="fil16" d="M6793 3639c0,0 249,-114 343,-115 0,0 -80,188 -83,294l-260 -179z"/>
   <path class="fil15" d="M7313 4036c0,0 336,108 584,359 0,0 -80,131 -95,258 0,0 -275,-425 -489,-617z"/>
   <g style="clip-path:url(#id10)">
    <image transform="matrix(3.75216 -0 -0 -3.75216 5039.68 4201.6)" x="0" y="0" width="138" height="37" xlink:href="a-face-1_Images\a-face-1_ImgID11.png"/>
   </g>
   <path class="fil14" d="M5601 5166c0,0 171,-100 278,-304 0,0 65,-175 238,-220 0,0 92,-73 771,313 0,0 -185,-186 -747,-352 0,0 -157,-25 -262,194 0,0 -110,241 -278,369z"/>
   <path class="fil14" d="M5750 4147c0,0 -134,312 119,456 0,0 199,72 284,-104 0,0 81,-262 -90,-361 0,0 -163,-157 -313,9z"/>
   <path class="fil17" d="M5820 4147c0,0 256,-80 297,183 0,0 56,211 -134,249 0,0 -160,20 -211,-235 0,0 -39,-185 48,-197z"/>
   <path class="fil14" d="M6028 3878c0,0 -11,-139 118,-119 0,0 105,20 99,161 0,0 1,119 -94,116 0,0 -117,1 -123,-140l0 -18z"/>
   <path class="fil17" d="M6058 3896c0,0 -8,-105 78,-92 0,0 71,3 57,116 0,0 8,85 -66,74 0,0 -87,-24 -69,-98z"/>
   <path class="fil14" d="M6577 4395c0,0 -20,-302 199,-280 0,0 219,26 202,313 0,0 -22,214 -201,189 0,0 -196,-12 -200,-222z"/>
   <path class="fil17" d="M6645 4469c0,0 -73,-264 104,-322 0,0 144,-25 192,161 0,0 49,223 -119,232 0,0 -109,37 -177,-71z"/>
   <path class="fil9" d="M6641 4454c0,0 46,-183 231,-269 0,0 -97,-100 -202,19 0,0 -64,77 -29,250z"/>
   <path class="fil9" d="M5864 4533c0,0 -49,-292 49,-397 0,0 -149,-18 -147,82 0,0 -24,193 98,315z"/>
   <path class="fil9" d="M6103 3984c0,0 -56,-121 33,-180 0,0 -87,-12 -78,92 0,0 -6,78 45,88z"/>
   <g style="clip-path:url(#id11)">
    <image transform="matrix(3.75216 -0 -0 -3.75216 6154.07 5664.94)" x="0" y="0" width="484" height="551" xlink:href="a-face-1_Images\a-face-1_ImgID12.png"/>
   </g>
   <path class="fil18" d="M6957 4266c-14,-9 -28,-17 -42,-25 -13,-25 -28,-43 -44,-56 -5,-5 -42,-39 -92,-39 -3,0 -5,0 -8,0 -1,0 -3,0 -4,0 -11,0 -18,1 -18,1 -8,3 -16,6 -23,10 -20,-7 -40,-13 -60,-18 23,-15 51,-25 87,-25 7,0 15,0 23,1 0,0 128,15 181,151z"/>
   <path class="fil19" d="M6916 4241c-26,-15 -51,-28 -76,-39 10,-6 21,-12 32,-17 0,0 0,0 -1,0 16,13 31,32 44,56zm-187 -83c0,-1 -1,-1 -2,-1 7,-4 15,-7 23,-10 0,0 7,-1 18,-1 1,0 3,0 4,0 -13,1 -28,5 -43,12z"/>
   <path class="fil20" d="M6840 4202c-37,-18 -75,-32 -112,-44 15,-7 30,-11 43,-12 3,0 5,0 8,0 50,0 87,34 92,39 1,0 1,0 1,0 -11,5 -22,11 -32,17z"/>
   <path class="fil14" d="M7155 5338c0,0 119,76 25,189 0,0 167,-95 -25,-189z"/>
   <path class="fil14" d="M7751 5527c0,84 -59,151 -131,151 -73,0 -132,-67 -132,-151 0,-83 59,-151 132,-151 72,0 131,68 131,151z"/>
   <path class="fil14" d="M7098 6088c0,167 -118,302 -262,302 -145,0 -262,-135 -262,-302 0,-166 117,-301 262,-301 144,0 262,135 262,301z"/>
   <path class="fil17" d="M7050 6088c0,136 -96,247 -214,247 -119,0 -214,-111 -214,-247 0,-136 95,-246 214,-246 118,0 214,110 214,246z"/>
   <path class="fil9" d="M6647 6205c0,0 20,-199 205,-362 0,0 -295,1 -205,362z"/>
   <path class="fil14" d="M7282 6311c0,0 39,-436 469,-555 0,0 231,-66 304,267 0,0 75,367 -287,585 0,0 -270,170 -408,-37 0,0 -88,-96 -78,-260z"/>
   <path class="fil17" d="M7334 6298c0,0 34,-378 406,-480 0,0 201,-58 264,230 0,0 65,318 -249,507 0,0 -234,147 -354,-32 0,0 -75,-83 -67,-225z"/>
   <path class="fil9" d="M7347 6418c0,0 127,-444 608,-499 0,0 -110,-207 -371,-32 0,0 -285,182 -237,531z"/>
   <path class="fil21" d="M3700 7335c0,0 -357,238 -798,190 0,0 287,546 1204,849 0,0 705,274 1396,73 0,0 -813,309 -1715,-158 0,0 -642,-264 -939,-809 0,0 494,79 852,-145z"/>
   <path class="fil21" d="M2116 6925c0,0 -420,-424 -515,-657 0,0 197,15 399,-67 0,0 -353,36 -470,0 0,0 112,362 586,724z"/>
   <path class="fil21" d="M5475 6628c0,0 362,-297 401,-487 0,0 236,-20 338,96 0,0 46,3 12,-56 0,0 -48,-97 -369,-93 0,0 -78,285 -382,540z"/>
   <path class="fil22" d="M6341 4147c0,0 163,-233 428,-207 0,0 359,88 673,614 0,0 222,320 348,747 0,0 -15,-434 -664,-1165 0,0 -453,-535 -785,11z"/>
   <path class="fil23" d="M1472 4837c0,0 295,-367 608,-411 0,0 214,49 -54,411 0,0 151,-373 -291,-107 0,0 -188,73 -263,107z"/>
   <path class="fil24" d="M1637 4730c0,0 426,-281 424,-30 0,0 104,-96 42,-219 0,0 -102,-88 -466,249z"/>
   <path class="fil16" d="M7584 4344c0,0 228,5 313,51 0,0 -71,111 -95,258l-218 -309z"/>
   <path class="fil15" d="M7955 5010c0,0 127,150 200,292 0,0 4,21 -37,157 0,0 -104,-256 -163,-449z"/>
   <path class="fil16" d="M8025 5217c0,0 86,44 130,85l-37 157 -93 -242z"/>
   <path class="fil17" d="M7707 5527c0,56 -39,101 -87,101 -49,0 -88,-45 -88,-101 0,-56 39,-101 88,-101 48,0 87,45 87,101z"/>
  </g>
 </g>
</svg>
