<?xml version="1.0" encoding="UTF-8"?>
<!DOCTYPE svg PUBLIC "-//W3C//DTD SVG 1.1//EN" "http://www.w3.org/Graphics/SVG/1.1/DTD/svg11.dtd">
<!-- Creator: CorelDRAW X7 -->
<svg xmlns="http://www.w3.org/2000/svg" xml:space="preserve" width="8.5in" height="11in" version="1.1" style="shape-rendering:geometricPrecision; text-rendering:geometricPrecision; image-rendering:optimizeQuality; fill-rule:evenodd; clip-rule:evenodd"
viewBox="0 0 8500 11000"
 xmlns:xlink="http://www.w3.org/1999/xlink">
 <defs>
  <style type="text/css">
   <![CDATA[
    .fil3 {fill:#FCB52F}
    .fil7 {fill:#F4DEAE}
    .fil4 {fill:#F0E3AA}
    .fil6 {fill:#F1E3A8}
    .fil2 {fill:#D8863C}
    .fil10 {fill:#D8853D}
    .fil9 {fill:#C36139}
    .fil5 {fill:#C26139}
    .fil1 {fill:#47312D}
    .fil0 {fill:#2A2B2B}
    .fil8 {fill:#2A2B2B}
   ]]>
  </style>
 </defs>
 <g id="Layer_x0020_1">
  <metadata id="CorelCorpID_0Corel-Layer"/>
  <g id="_79763450784">
   <path class="fil0" d="M4243 9398l-128 -4c-187,-266 -260,-216 -260,-216 -14,54 -147,204 -147,204 19,-192 -54,-250 -54,-250 -92,333 -425,545 -425,545 196,-316 59,-736 59,-736 -67,131 -268,359 -274,366 160,-390 5,-678 5,-678 -206,320 -622,516 -622,516 192,-324 178,-690 178,-690 -36,120 -196,212 -196,212 9,-71 -23,-125 -23,-125 -46,104 -338,304 -338,304 274,-487 78,-1223 78,-1223 -115,487 -384,695 -384,695 151,-470 -160,-986 -160,-986 -37,25 -156,337 -156,337 -210,-332 5,-1164 5,-1164 -398,141 -754,96 -754,96 498,-250 516,-453 516,-453 -50,4 -205,66 -205,66 -13,-51 15,-117 18,-124 -28,49 -101,62 -101,62 10,-100 -50,-225 -50,-225 -169,-424 55,-715 55,-715 -402,133 -393,-33 -393,-33 398,-287 493,-511 493,-511 -86,16 -219,195 -219,195 0,-75 9,-112 9,-112 -315,258 -494,686 -494,686 0,-1077 837,-2245 837,-2245 -157,61 -740,175 -758,179 649,-283 941,-811 941,-811 -238,100 -494,162 -494,162 151,-120 183,-183 183,-183 -105,9 -279,-4 -279,-4 1111,-274 1431,-727 1431,-727 68,-117 -425,-225 -425,-225 639,-37 1163,213 1178,220 -265,-203 -589,-307 -589,-307 425,37 1083,237 1083,237 -90,-156 -167,-402 -169,-410 518,620 974,657 1035,659l0 0c62,-2 517,-39 1035,-659 -2,8 -79,255 -169,410 0,0 658,-200 1083,-237 0,0 -324,104 -589,307 15,-7 539,-257 1178,-220 0,0 -493,108 -425,225 0,0 320,453 1431,727 0,0 -174,13 -279,4 0,0 32,63 183,183 0,0 -256,-62 -494,-162 0,0 293,528 941,811 -18,-4 -601,-118 -758,-179 0,0 837,1168 837,2245 0,0 -179,-428 -494,-686 0,0 9,37 9,112 0,0 -133,-179 -219,-195 0,0 96,224 493,511 0,0 9,166 -393,33 0,0 224,291 55,715 0,0 -59,125 -50,225 0,0 -73,-13 -101,-62 3,7 31,73 18,124 0,0 -155,-62 -205,-66 0,0 18,203 516,453 0,0 -356,45 -754,-96 0,0 215,832 5,1164 0,0 -119,-312 -156,-337 0,0 -310,516 -160,986 0,0 -269,-208 -383,-695 0,0 -197,736 77,1223 0,-1 -292,-200 -338,-304 0,0 -32,54 -23,125 0,0 -160,-92 -196,-212 0,0 -14,366 178,690 0,0 -416,-196 -621,-516 0,0 -156,288 4,678 -6,-7 -207,-235 -274,-366 0,0 -137,420 59,736 0,0 -333,-212 -425,-545 0,0 -73,58 -54,250 0,0 -133,-150 -147,-204 0,0 -73,-50 -260,216l-128 4 -14 0z"/>
   <path class="fil1" d="M7069 4425c0,0 31,208 333,441 -12,-7 -401,-226 -671,-815 0,0 333,-4 274,-424 0,0 -28,-220 -151,-287 0,0 -128,-455 -352,-794 0,0 -121,-249 -517,-212 0,0 -557,4 -790,387 0,0 -137,208 -77,353 0,0 77,116 433,-170 -10,10 -170,176 -219,237 0,0 -68,91 604,-100l-174 120c0,0 123,29 351,-20 -7,2 -120,43 -128,87 0,0 184,-21 321,62 0,0 -96,4 -133,21 0,0 242,87 210,162l5 200c0,0 -233,8 -379,-50 0,0 77,-71 160,-71 0,0 -10,0 -42,-33 0,0 32,-54 234,-42 0,0 -192,-178 -599,-62 0,0 41,-96 356,-150 0,0 -100,-29 -201,-20 0,0 37,-29 68,-42 0,0 -739,-67 -1018,166 0,0 -105,-50 -128,-129 0,0 -50,-45 -101,71 1,0 -86,83 -393,-237 0,0 -22,46 14,87 0,0 -61,-10 -101,-38l0 -12 0 1 -6 6 -7 -6 0 -1 0 12c-39,28 -101,38 -101,38 37,-41 14,-87 14,-87 -306,320 -393,237 -393,237 -50,-116 -101,-71 -101,-71 -22,79 -127,129 -127,129 -279,-233 -1018,-166 -1018,-166 30,13 67,42 67,42 -100,-9 -201,20 -201,20 315,54 356,150 356,150 -406,-116 -598,62 -598,62 201,-12 233,42 233,42 -32,33 -41,33 -41,33 82,0 160,71 160,71 -146,58 -380,50 -380,50l5 -200c-32,-75 210,-162 210,-162 -36,-17 -132,-21 -132,-21 137,-83 321,-62 321,-62 -8,-44 -122,-85 -129,-87 228,49 351,20 351,20l-173 -120c672,191 603,100 603,100 -49,-61 -209,-227 -219,-237 356,286 434,170 434,170 59,-145 -78,-353 -78,-353 -233,-383 -789,-387 -789,-387 -397,-37 -518,212 -518,212 -224,339 -352,794 -352,794 -123,67 -150,287 -150,287 -60,420 274,424 274,424 -270,589 -660,808 -672,815 303,-233 334,-441 334,-441 -517,-4 -656,279 -656,279 75,-732 710,-1576 710,-1576 -244,-12 -355,19 -360,21 493,-266 639,-520 639,-520 -55,13 -146,-25 -146,-25 169,-16 183,-95 183,-95 -60,4 -55,-42 -55,-42 320,-349 576,-245 576,-245 347,79 498,33 498,33 -224,-62 -325,-145 -325,-145 -77,-71 -173,-279 -173,-279 150,13 772,196 772,196 -69,-42 -256,-271 -256,-271 251,25 658,204 658,204 -46,-71 0,-166 0,-166 234,294 691,376 752,385 61,-9 517,-91 751,-385 0,0 46,95 0,166 0,0 407,-179 658,-204 0,0 -187,229 -256,271 0,0 622,-183 773,-196 0,0 -96,208 -174,279 0,0 -100,83 -324,145 0,0 150,46 498,-33 0,0 256,-104 576,245 0,0 4,46 -55,42 0,0 13,79 182,95 0,0 -91,38 -146,25 0,0 146,254 640,520 -6,-2 -116,-33 -361,-21 0,0 635,845 711,1576 0,0 -140,-283 -656,-279z"/>
   <polygon class="fil1" points="4254,3120 4252,3118 4258,3112 4258,3111 4258,3123 "/>
   <path class="fil1" d="M4265 3921l-13 21 -14 -21c-190,-308 -47,-669 0,-771l14 -27 13 27c47,102 191,463 0,771z"/>
   <polygon class="fil1" points="4252,3942 4252,3942 4252,3942 "/>
   <path class="fil2" d="M4455 2625c0,0 32,-424 101,-490 0,0 260,-96 425,-266 0,0 -5,124 -69,182 0,0 169,-145 562,-220l-256 262c0,0 206,33 786,-170 0,0 23,37 -73,116 0,0 -421,34 -950,586 0,0 -78,-154 -101,-162l-9 187c0,0 -86,-133 -247,-120 0,0 64,112 -87,120 0,0 -45,8 -82,-25z"/>
   <path class="fil3" d="M4528 2530c0,0 19,-265 69,-350 0,0 27,88 205,-112 0,0 14,21 0,87 0,0 294,-162 453,-212 0,0 -137,175 -206,212 0,0 224,59 498,-33 0,0 -530,196 -557,408 0,0 -133,-183 -169,-192l0 192c0,0 -85,-63 -183,-88 0,0 -73,71 -110,88z"/>
   <path class="fil3" d="M4423 3008c0,0 73,-104 105,-196 0,0 23,100 23,133 0,0 91,129 110,-266 0,0 140,17 123,300 0,-1 50,-50 64,-117 0,0 -5,204 146,-62 0,0 -73,199 44,399 0,0 -25,50 -62,46 0,-1 -50,-13 -123,-121 0,0 -51,100 -142,79 0,0 -183,-96 -288,-195z"/>
   <path class="fil2" d="M5195 2962c0,0 -107,-58 36,-183 0,0 24,-35 65,-128 0,0 0,-146 544,-271 0,0 224,-50 310,-25 0,0 243,91 480,644 0,0 -205,-224 -356,-253 0,0 279,241 374,444 0,0 106,129 -155,362 0,0 50,-162 -68,-212 0,0 35,-17 123,13 0,0 -92,-160 -384,-158 0,0 26,-65 71,-81 0,0 -37,-13 -82,-5 0,0 61,-52 112,-56 0,0 -188,0 -247,7 0,0 46,-40 91,-46 0,0 -109,-11 -151,23 0,0 138,-173 165,-248 0,0 -240,268 -651,300 0,0 427,-208 432,-350 0,0 -67,19 -96,19 0,0 164,-137 249,-168 0,0 -769,358 -862,372z"/>
   <path class="fil3" d="M5243 2885c0,0 19,-202 172,-320 0,0 98,-100 591,-175 0,0 128,-29 190,67 0,0 167,203 192,247 0,0 -71,-23 -183,-35 0,0 318,386 409,642 0,0 -117,-121 -260,-162 0,0 7,-62 -71,-69 0,0 9,-39 30,-62 0,0 -31,-18 -147,0 0,0 28,-11 5,-68 0,0 -2,-11 -98,-15 0,0 61,-85 59,-164 0,0 -146,56 -187,99 0,0 32,-118 87,-176 0,0 -35,0 -76,16 0,0 199,-139 194,-162 0,0 16,-88 -907,337z"/>
   <path class="fil2" d="M4517 3905c0,0 -73,-95 30,-209 0,0 89,-156 -19,-364 0,0 144,23 169,149 0,0 85,-103 117,-122 0,0 23,108 68,141 0,0 480,-273 903,-224 0,0 -277,39 -418,255 0,0 342,-124 692,-62 0,0 -187,48 -240,160 0,0 402,206 516,391 0,0 -626,-376 -1092,-283 0,0 7,-46 37,-83 0,0 -375,133 -580,251 0,0 -106,63 -183,0z"/>
   <path class="fil4" d="M4558 3670c0,0 43,198 347,67 0,0 327,-135 416,-162 0,0 -2,78 16,103 0,0 270,-102 576,0 0,0 -78,-45 -94,-49 0,0 7,-79 240,-160 0,0 -267,-69 -692,62 0,0 80,-180 418,-255 0,0 -368,-63 -903,224 0,0 -80,-98 -68,-141 0,0 -94,83 -117,122 0,0 -11,-112 -169,-149 0,0 96,183 30,338z"/>
   <path class="fil2" d="M6749 2742c0,0 117,201 315,284l-176 0c0,0 478,482 697,1441 0,0 -176,-150 -569,-142 0,0 -132,-158 -144,-193 0,0 -20,-23 30,-37 0,0 475,-280 2,-825 0,0 -162,-419 -155,-528z"/>
   <path class="fil3" d="M7128 3513c0,0 272,357 -148,617 0,0 -24,52 66,125 0,0 142,-42 288,43 0,0 -76,-114 -41,-151 0,0 29,-32 137,151 0,0 -44,-528 -302,-785z"/>
   <path class="fil3" d="M5104 3831c0,0 18,97 123,95 0,0 119,4 103,-118 0,0 23,-13 84,0 0,0 53,162 -120,212 0,0 -94,39 -222,-29 0,0 -80,-44 -64,-133 0,0 21,-46 96,-27z"/>
   <path class="fil3" d="M4258 5227c307,-16 410,-166 410,-166 34,87 150,129 150,129 56,-48 110,-162 110,-162 34,104 62,322 62,322 -425,195 -624,439 -624,439 -123,168 -7,284 -7,284 226,250 510,320 510,320 244,32 235,-10 235,-10 18,-148 -32,-116 -32,-116 -73,99 -119,39 -119,39 16,-71 71,-85 71,-85 55,12 110,83 110,83 84,121 123,66 123,66 75,-78 160,-236 160,-236 112,-202 57,-306 57,-306 -247,8 -185,-21 -185,-21 23,-10 192,-151 192,-151 105,-86 53,-163 53,-163 -101,-195 -119,-164 -119,-164 -96,54 -83,32 -83,32 78,-61 23,-63 23,-63 -57,0 -130,63 -130,63 -167,134 -162,76 -162,76 11,-120 112,-191 112,-191 141,-114 107,-170 107,-170 -84,-210 -217,-333 -217,-333 -256,-285 -224,-412 -224,-412 -73,88 -121,86 -121,86 -16,-94 -57,-229 -57,-229 69,37 165,44 165,44 96,14 50,-81 50,-81 -121,-175 -162,-150 -162,-150 -62,48 -293,193 -293,193 -20,-3 -126,-66 -165,-89l-178 89c0,0 -230,-145 -292,-193 0,0 -41,-25 -162,150 0,0 -46,95 50,81 0,0 96,-6 164,-44 0,0 -41,135 -57,229 0,0 -48,2 -121,-86 0,0 32,127 -224,412 0,0 -132,123 -217,333 0,0 -34,56 108,170 0,0 100,71 112,191 0,0 4,58 -163,-76 0,0 -73,-63 -130,-63 0,0 -55,2 23,63 0,0 14,22 -82,-32 0,0 -18,-31 -119,164 0,0 -53,77 52,163 0,0 170,141 192,151 0,0 62,29 -185,21 0,0 -54,104 57,306 0,0 85,158 160,236 0,0 39,55 124,-66 0,0 55,-71 109,-83 0,0 55,14 71,85 0,0 -45,60 -118,-39 0,0 -51,-32 -33,116 0,0 -9,41 236,10 0,0 283,-70 509,-320 0,0 117,-116 -7,-285 0,0 -198,-243 -623,-438 0,0 27,-218 61,-322 0,0 69,142 110,162 0,0 110,-42 151,-129 0,0 102,149 409,166l13 0z"/>
   <path class="fil5" d="M4812 4519c0,0 -172,155 0,307 0,0 139,129 415,229 0,0 -347,-196 -374,-424 0,0 -16,-141 -41,-112z"/>
   <path class="fil6" d="M4990 5350c0,0 75,31 -55,106 0,0 -414,218 -368,484 0,0 27,149 392,248 0,0 -77,147 -321,8 0,0 -261,-143 -283,-299 0,0 -24,-46 70,-171 0,0 206,-216 565,-376z"/>
   <path class="fil5" d="M4672 5689c0,0 92,-19 137,-54 0,0 89,103 543,126 0,0 -331,45 -680,-72z"/>
   <path class="fil5" d="M4682 5961l0 -108c0,0 219,79 646,85 0,0 -182,44 -646,23z"/>
   <path class="fil1" d="M6291 3789c0,0 115,-104 207,-131 0,0 132,-54 233,-182 0,0 -47,283 -440,313z"/>
   <path class="fil1" d="M6317 6539c0,0 -368,-507 -393,-524 0,0 28,285 -119,499 0,0 -106,143 -258,148 0,0 -4,141 105,357 -5,-6 -174,-186 -345,-262 0,0 -70,31 -93,131 0,0 -9,13 -21,31l0 -208c0,0 9,-118 -384,-293 0,0 -132,-79 -260,27 0,0 -154,-265 -300,103 -144,-372 -294,-103 -294,-103 -125,-104 -261,-27 -261,-27 -393,175 -384,293 -384,293l0 208c-11,-19 -20,-31 -20,-31 -23,-100 -94,-131 -94,-131 -171,76 -340,256 -345,262 110,-216 106,-358 106,-358 -153,-4 -259,-147 -259,-147 -146,-214 -119,-499 -119,-499 -25,17 -393,524 -393,524 242,-917 41,-1046 41,-1046 -74,97 -303,187 -310,189 306,-309 333,-870 333,-870 -130,20 -333,286 -333,286 45,-271 340,-788 351,-807 -72,113 -134,68 -134,68 -87,-79 -142,0 -142,0 -15,-229 117,-262 117,-262 372,-179 516,-180 516,-180 -46,27 -50,83 -50,83 114,-72 310,-138 310,-138 71,68 124,43 124,43 27,23 41,42 41,42 46,50 160,136 160,136 235,103 416,68 416,68 -64,170 214,37 214,37l-57 229c-68,-25 -120,-73 -120,-73 -14,176 -195,366 -195,366 -321,172 -316,345 -316,345 -8,160 -109,237 -109,237 -180,124 -206,237 -206,237 -22,91 315,287 315,287 -248,-13 -239,25 -239,25 0,534 377,608 377,608 294,15 431,-85 431,-85 138,-65 234,-23 234,-23 173,-201 297,88 297,88 0,0 123,-289 297,-88 0,0 95,-42 234,23 0,0 136,100 431,86 0,0 377,-75 377,-609 0,-1 8,-38 -239,-25 0,0 337,-196 314,-287 0,0 -25,-113 -206,-237 0,0 -100,-77 -108,-237 0,0 4,-173 -316,-345 0,0 -181,-190 -196,-366 0,0 -51,48 -120,73l-57 -229c0,0 279,133 215,-37 0,0 180,35 416,-68 0,0 114,-86 159,-136 0,0 14,-19 42,-42 0,0 52,25 123,-43 0,0 196,66 311,138 0,0 -5,-55 -51,-83 0,0 144,1 517,180 0,0 132,33 116,262 0,0 -54,-79 -141,0 0,0 -63,45 -134,-68 11,19 306,536 351,807 0,0 -204,-266 -334,-286 0,0 28,561 334,870 -7,-2 -237,-92 -311,-189 0,0 -201,129 41,1046z"/>
   <path class="fil7" d="M5090 4226c0,0 245,-158 363,-279 0,0 122,19 213,183 0,0 -477,77 -452,463 0,0 -87,-205 -124,-367z"/>
   <path class="fil2" d="M5634 4020c0,0 162,-54 366,216l-169 212 -302 0c0,0 420,222 580,650 0,0 112,279 -265,474 0,0 -11,-95 3,-132 0,0 -51,24 -78,58 0,0 59,-149 -176,-271 0,0 105,-299 -329,-548 0,0 50,-17 78,-13 0,0 -131,-52 25,-226 0,0 167,-221 409,-229 0,0 -7,-116 -142,-191z"/>
   <path class="fil8" d="M5792 4047c0,0 112,2 267,185l-174 305 -93 0c0,0 413,389 416,688 0,0 41,221 -453,512 0,0 -11,-104 -23,-113 0,0 -14,0 -38,23 0,0 78,-252 -94,-416 0,0 210,94 169,267 0,0 59,-54 78,-58 0,0 -16,60 -3,132 0,0 310,-135 277,-424 0,0 -64,-386 -592,-700l302 0 169 -212c0,0 -64,-105 -208,-189z"/>
   <path class="fil9" d="M6972 4944c11,8 378,304 295,950 0,0 -247,-303 -258,-522 0,0 -30,58 -58,102 0,0 -98,-94 -121,-156 0,0 -89,374 300,854 0,0 -258,-4 -384,-308 0,0 -32,80 -46,81 0,0 -68,-60 -107,-162 0,0 0,40 27,94 0,0 -55,4 -71,-23 0,0 206,703 190,1002 0,0 -64,-56 -69,-87 0,0 16,262 -77,411 0,0 -62,89 -64,302 0,0 -80,-449 -208,-560 0,0 -407,441 -224,1260 0,0 -146,-158 -222,-345 0,0 -13,48 -41,85 0,0 -75,-79 -103,-222 0,0 -141,149 -68,627 0,0 -238,-176 -274,-436 0,0 -359,463 -382,856 0,0 -155,-212 -235,-413 0,0 -89,114 -110,382 0,0 -68,-197 -123,-218 0,0 -135,-65 -233,312l-110 0c-98,-377 -233,-312 -233,-312 -55,21 -123,218 -123,218 -21,-268 -110,-382 -110,-382 -80,201 -235,413 -235,413 -23,-393 -382,-856 -382,-856 -36,260 -274,436 -274,436 73,-478 -69,-627 -69,-627 -27,143 -102,222 -102,222 -28,-37 -42,-85 -42,-85 -75,187 -221,345 -221,345 183,-819 -224,-1260 -224,-1260 -128,111 -208,560 -208,560 -2,-213 -64,-302 -64,-302 -94,-150 -78,-411 -78,-411 -4,31 -68,87 -68,87 -16,-299 189,-1002 189,-1002 -16,27 -70,23 -70,23 27,-54 27,-94 27,-94 -39,102 -107,162 -107,162 -14,-2 -46,-81 -46,-81 -126,304 -384,308 -384,308 389,-480 299,-854 299,-854 -22,62 -121,156 -121,156 -27,-44 -57,-102 -57,-102 -11,219 -258,522 -258,522 -83,-646 284,-942 294,-950 -374,166 -618,131 -618,131 845,-545 900,-934 900,-934 9,-155 67,-219 70,-223 -134,92 -232,-12 -232,-12 -169,-187 -10,-455 -10,-455 275,347 578,352 578,352 -2,103 -125,213 -125,213 -239,20 -270,547 -270,547 67,-52 215,-95 215,-95 -295,451 -242,935 -242,935 100,-330 347,-501 347,-501 75,314 -361,788 -361,788 155,75 434,-166 434,-166 172,268 -203,1247 -203,1247 32,-73 500,-609 500,-609 -59,578 268,630 268,630 -5,124 -83,394 -85,402 133,-151 265,-203 265,-203 -133,428 368,773 368,773 -53,-278 123,-328 123,-328 172,93 162,559 162,559 42,-123 165,-335 165,-335 137,235 9,514 9,514 94,-108 210,-167 210,-167 -4,163 21,239 21,239 43,-41 167,-237 167,-237l66 -2 66 2c0,0 124,196 167,237 0,0 25,-76 20,-239 0,0 117,59 211,167 0,0 -128,-279 9,-514 0,0 123,212 164,335 0,0 -9,-466 163,-559 0,0 176,50 123,328 0,0 500,-345 368,-773 0,0 132,52 265,203 -3,-8 -80,-278 -85,-402 0,0 327,-52 268,-630 0,0 468,536 500,609 0,0 -375,-979 -203,-1247 0,0 278,241 434,166 0,0 -437,-474 -361,-788 0,0 246,171 347,501 0,0 52,-484 -242,-935 0,0 148,43 215,95 0,0 -31,-527 -270,-547 0,0 -123,-110 -126,-213 0,0 304,-5 578,-352 0,0 160,268 -9,455 0,0 -98,104 -233,12 4,4 62,68 71,223 0,0 55,389 900,934 0,0 -244,35 -619,-131z"/>
   <path class="fil3" d="M6715 4284c0,0 36,363 630,702 0,0 -288,-56 -498,-147 0,0 386,382 320,746 0,0 -144,-156 -190,-435 0,0 -43,5 -64,179 0,0 -150,-106 -150,-345 0,0 -28,-245 -160,-391 0,0 123,17 194,71 0,0 -91,-235 -82,-380z"/>
   <path class="fil3" d="M6532 5780c0,0 -89,-124 -210,-137 0,0 -5,759 210,1164 0,0 20,25 -18,29 0,0 -343,-297 -437,-486 0,0 96,318 -244,515l0 466c0,0 -169,-210 -204,-218 0,0 106,307 -203,517 0,0 -30,274 121,470 0,0 -29,-420 160,-553 0,0 57,101 105,208 0,0 46,-51 54,-148l1 -8c7,-102 60,222 114,318 0,0 -208,-707 270,-1160 0,0 222,156 251,378 0,0 126,-72 73,-488 0,0 39,60 71,71 0,0 -7,-390 -169,-915 0,0 39,-25 55,-23z"/>
   <path class="fil4" d="M5127 7310c0,0 -21,-252 -85,-347 0,0 -16,54 -31,93 0,0 -30,-27 -37,-60 0,0 36,272 -48,347 0,0 7,-156 -46,-187 0,0 41,133 -39,225 0,0 -68,-36 -36,-300 0,0 -185,183 -240,649 0,0 -85,-100 -60,-289 0,0 -25,27 -39,62 0,0 -27,-22 -15,-95 0,0 -87,112 -99,245 0,0 -39,-6 -49,-58l-1 -9c-7,-60 -25,48 -16,106 0,0 -36,-13 -36,-34 0,21 -33,34 -33,34 10,-58 -9,-166 -16,-106l-1 9c-10,52 -49,58 -49,58 -11,-133 -98,-245 -98,-245 11,72 -16,95 -16,95 -14,-35 -39,-62 -39,-62 25,189 -59,289 -59,289 -55,-466 -240,-649 -240,-649 32,264 -37,300 -37,300 -80,-92 -39,-225 -39,-225 -52,31 -45,187 -45,187 -82,-72 -50,-331 -49,-346 -7,33 -37,59 -37,59 -15,-39 -31,-93 -31,-93 -64,95 -84,347 -84,347 -101,-102 -67,-220 -67,-220 12,-92 0,-171 0,-171l0 -208c32,-133 362,-283 362,-283 158,-97 283,17 283,17 170,-255 294,93 294,93 0,0 129,-347 300,-93 0,0 133,-113 282,-17 0,0 331,140 362,283l0 208c0,0 -11,79 0,171 0,0 34,118 -66,220z"/>
   <path class="fil10" d="M5193 6711l0 144c0,0 -82,-210 -427,-322 0,0 -38,-3 -44,70 0,0 -20,-58 -93,-58 0,0 -44,0 -105,79 0,0 -55,33 -85,27 0,0 -137,-10 -119,235 0,0 -20,-82 -68,-105 -41,24 -69,105 -69,105 18,-245 -119,-235 -119,-235 -29,6 -84,-27 -84,-27 -62,-79 -105,-79 -105,-79 -73,0 -93,58 -93,58 -7,-73 -44,-70 -44,-70 -345,112 -428,322 -428,322l0 -144c32,-140 362,-283 362,-283 166,-98 283,17 283,17 166,-260 294,93 294,93 0,0 128,-352 300,-93 0,0 117,-115 282,-17 0,0 330,136 362,283z"/>
   <polygon class="fil1" points="4249,3120 4245,3123 4245,3111 4245,3112 4252,3118 "/>
   <path class="fil2" d="M4048 2625c0,0 -32,-424 -100,-490 0,0 -261,-96 -425,-266 0,0 4,124 68,182 0,0 -169,-145 -562,-220l256 262c0,0 -205,33 -786,-170 0,0 -23,37 73,116 0,0 422,34 951,586 0,0 78,-154 100,-162l9 187c0,0 86,-133 247,-121 0,0 -64,113 87,121 0,0 46,8 82,-25z"/>
   <path class="fil3" d="M3975 2529c0,0 -19,-264 -68,-349 0,0 -28,88 -206,-112 0,0 -14,21 0,87 0,0 -294,-162 -452,-212 0,0 137,175 205,212 0,0 -224,59 -498,-33 0,0 530,196 558,407 0,0 132,-182 169,-191l0 191c0,0 84,-62 183,-87 0,0 73,71 109,87z"/>
   <path class="fil3" d="M4080 3008c0,0 -73,-104 -105,-196 0,0 -23,100 -23,133 0,0 -91,129 -109,-266 0,0 -141,17 -124,299 0,0 -50,-49 -64,-116 0,0 5,204 -146,-62 0,0 73,199 -43,399 0,0 25,50 61,45 0,0 51,-12 124,-120 0,0 50,100 141,79 0,0 183,-96 288,-195z"/>
   <path class="fil2" d="M3308 2962c0,0 107,-58 -35,-183 0,0 -25,-35 -65,-128 0,0 0,-146 -544,-271 0,0 -224,-50 -311,-25 0,0 -242,91 -480,644 0,0 206,-224 357,-253 0,0 -279,241 -375,444 0,0 -105,129 155,362 0,0 -50,-162 69,-212 0,0 -36,-17 -123,13 0,0 91,-160 383,-158 0,0 -26,-65 -71,-81 0,0 37,-13 83,-5 0,0 -62,-52 -112,-56 0,0 187,0 247,7 0,0 -46,-40 -92,-46 0,0 110,-11 151,23 0,0 -137,-173 -165,-248 0,0 240,268 652,300 0,0 -428,-208 -432,-350 0,0 66,19 96,19 0,0 -165,-137 -249,-168 0,0 769,358 861,372z"/>
   <path class="fil3" d="M3260 2885c0,0 -18,-202 -171,-320 0,0 -99,-100 -592,-175 0,0 -128,-29 -190,67 0,0 -166,203 -192,247 0,0 71,-23 183,-35 0,0 -317,386 -409,642 0,0 117,-121 261,-162 0,0 -7,-62 71,-69 0,0 -10,-39 -30,-62 0,0 31,-18 146,0 0,0 -27,-11 -5,-68 0,0 3,-11 99,-15 0,0 -62,-85 -60,-164 0,0 147,56 188,99 0,0 -32,-118 -87,-176 0,0 34,0 75,16 0,0 -199,-139 -194,-162 0,0 -16,-88 907,337z"/>
   <path class="fil2" d="M3987 3905c0,0 73,-95 -30,-210 0,0 -89,-155 18,-363 0,0 -144,23 -169,149 0,0 -84,-103 -116,-122 0,0 -23,108 -69,141 0,0 -479,-273 -902,-224 0,0 276,39 418,255 0,0 -343,-124 -693,-62 0,0 188,48 240,160 0,0 -402,206 -516,391 0,0 626,-376 1092,-283 0,0 -7,-46 -36,-83 0,0 374,133 580,251 0,0 105,63 183,0z"/>
   <path class="fil4" d="M3945 3670c0,0 -43,198 -347,67 0,0 -326,-135 -416,-162 0,0 3,78 -16,103 0,0 -270,-102 -576,0 0,0 78,-45 94,-49 0,0 -6,-79 -240,-160 0,0 268,-69 693,62 0,0 -80,-180 -418,-255 0,0 367,-63 902,224 0,0 80,-98 69,-141 0,0 93,83 116,122 0,0 12,-112 169,-149 0,0 -96,183 -30,338z"/>
   <path class="fil2" d="M1754 2741c0,0 -116,202 -315,285l176 0c0,0 -477,482 -697,1441 0,0 176,-150 569,-142 0,0 133,-158 144,-193 0,0 21,-23 -30,-37 0,0 -475,-280 -2,-825 0,0 162,-419 155,-529z"/>
   <path class="fil3" d="M1375 3513c0,0 -272,357 149,617 0,0 23,52 -67,125 0,0 -141,-42 -287,43 0,0 75,-114 41,-151 0,0 -30,-32 -137,151 0,0 43,-528 301,-785z"/>
   <path class="fil3" d="M3399 3831c0,0 -18,97 -123,95 0,0 -119,4 -103,-118 0,0 -22,-13 -83,0 0,0 -54,162 120,212 0,0 94,39 221,-29 0,0 80,-44 64,-133 0,0 -20,-46 -96,-27z"/>
   <path class="fil5" d="M3692 4519c0,0 171,155 0,307 0,0 -139,129 -416,229 0,0 347,-196 375,-424 0,0 16,-141 41,-112z"/>
   <path class="fil1" d="M4959 5155c-84,63 -88,176 -88,176 -616,21 -557,318 -557,318 16,183 -63,227 -63,227 0,0 -79,-44 -63,-227 0,0 59,-297 -558,-318 0,0 -2,-114 -85,-176 0,0 23,-118 30,-127 0,0 71,145 110,162 0,0 103,-35 151,-129 0,0 105,152 414,166 309,-14 418,-166 418,-166 38,88 149,129 149,129 29,-12 111,-162 111,-162 7,10 31,127 31,127z"/>
   <path class="fil6" d="M3514 5350c0,0 -76,31 55,106 0,0 413,218 367,484 0,0 -27,148 -391,248 0,0 76,147 321,8 0,0 260,-143 283,-299 0,0 23,-47 -71,-171 0,0 -206,-216 -564,-376z"/>
   <path class="fil5" d="M3831 5689c0,0 -91,-19 -137,-54 0,0 -89,103 -542,126 0,0 330,45 679,-72z"/>
   <path class="fil5" d="M3822 5961l0 -108c0,0 -219,79 -646,85 0,0 181,44 646,23z"/>
   <path class="fil7" d="M3413 4225c0,0 -244,-157 -363,-278 0,0 -121,19 -213,183 0,0 477,76 453,463 0,0 87,-205 123,-368z"/>
   <path class="fil1" d="M2213 3789c0,0 -115,-104 -208,-131 0,0 -132,-54 -233,-182 0,0 48,283 441,313z"/>
   <path class="fil2" d="M2869 4020c0,0 -162,-54 -365,216l169 212 301 0c0,0 -420,222 -580,650 0,0 -112,279 265,474 0,0 12,-95 -2,-132 0,0 50,24 78,58 0,0 -60,-149 176,-271 0,0 -106,-299 329,-548 0,0 -51,-17 -78,-13 0,0 130,-52 -25,-226 0,0 -167,-221 -409,-229 0,0 7,-116 141,-191z"/>
   <path class="fil8" d="M2711 4047c0,0 -111,2 -267,185l174 305 93 0c0,0 -413,389 -415,688 0,0 -41,221 452,512 0,0 12,-104 23,-113 0,0 14,0 38,23 0,0 -78,-252 94,-416 0,0 -210,94 -168,267 0,0 -60,-54 -78,-58 0,0 16,60 2,132 0,0 -309,-135 -277,-424 0,0 65,-386 592,-700l-301 0 -169 -212c0,0 63,-105 207,-189z"/>
   <path class="fil3" d="M1789 4284c0,0 -37,363 -631,702 0,0 288,-56 498,-147 0,0 -386,382 -320,746 0,0 144,-156 190,-435 0,0 43,5 64,179 0,0 151,-106 151,-345 0,0 27,-245 160,-391 0,0 -124,17 -195,71 1,0 92,-235 83,-380z"/>
   <path class="fil3" d="M1972 5780c0,0 89,-124 210,-137 0,0 4,759 -210,1164 0,0 -21,25 18,29 0,0 342,-297 436,-486 0,0 -96,318 245,515l0 466c0,0 169,-210 203,-218 0,0 -105,307 203,517 0,0 30,274 -121,470 0,0 30,-420 -160,-553 0,0 -57,101 -105,208 0,0 -45,-51 -54,-148l-1 -8c-6,-102 -60,222 -113,318 0,0 207,-707 -270,-1160 0,0 -222,156 -252,378 0,0 -125,-72 -73,-488 0,0 -39,60 -71,71 0,0 7,-390 169,-915 0,0 -38,-25 -54,-23z"/>
  </g>
 </g>
</svg>
