<?xml version="1.0" encoding="utf-8"?>
<!-- Generator: Adobe Illustrator 16.0.0, SVG Export Plug-In . SVG Version: 6.00 Build 0)  -->
<!DOCTYPE svg PUBLIC "-//W3C//DTD SVG 1.1//EN" "http://www.w3.org/Graphics/SVG/1.1/DTD/svg11.dtd">
<svg version="1.1" id="Layer_1" xmlns="http://www.w3.org/2000/svg" xmlns:xlink="http://www.w3.org/1999/xlink" x="0px" y="0px"
	 width="864px" height="864px" viewBox="0 0 864 864" enable-background="new 0 0 864 864" xml:space="preserve">
<path fill-rule="evenodd" clip-rule="evenodd" fill="#F9ED32" d="M693.322,600.257c-2.57-15.996-4.959-32.068-6.312-48.203
	c-1.156-13.775-1.52-27.715-0.896-41.52c0.689-15.23-3.961-29.074-8.857-42.918c-1.323-3.737-3.208-7.276-5.154-10.793v-0.001
	l-0.001-0.001c-1.237-2.234-2.498-4.461-3.657-6.723c-0.716,0.393-1.43,0.785-2.146,1.178L646.124,432v-0.001
	c4.255-10.366,8.52-20.523,4.013-32.352c-0.436-1.146-0.006-2.613-0.02-3.928c-0.457-39.552-0.953-79.103-1.328-118.655
	c-0.043-4.561-0.238-9.391,1.1-13.635c2.053-6.511,2.365-7.776-2.793-9.748v-49c0.615-0.456,1.23-0.91,1.844-1.365
	c-1.262-3.607-2.559-7.203-3.777-10.825c-0.826-2.463-2.289-4.996-2.178-7.439c0.443-9.748-4.895-16.295-11.842-21.65
	c-16.133-12.434-32.527-24.533-48.871-36.692c-1.734-1.291-3.838-2.083-6.459-3.47c0.277,1.707,0.223,2.201,0.434,2.519
	c0.848,1.279,1.811,2.482,2.672,3.752c1.203,1.773,2.414,3.543,3.619,5.317l-0.001-0.001L452.472,73.687
	c-0.158-0.763-0.315-1.526-0.473-2.289c-11.052,0.922-22.124,1.648-33.137,2.899c-2.877,0.327-5.875,1.854-8.3,3.563
	c-30.436,21.473-60.922,42.881-91.083,64.739c-10.002,7.248-20.531,13.779-30.317,21.341l-0.029,0.021l-0.003,0.005
	c-5.441,4.206-10.655,8.728-15.414,13.878c-6.456,6.988-10.575,17.026-9.688,26.83l-0.005,0.008l3.26,54.979
	c-4.237,1.25-5.378,4.045-5.233,8.57c0.5,15.602,1.105,31.22,0.906,46.821c-0.353,27.678-1.267,55.349-1.947,83.022
	c-0.235-0.002-0.47-0.006-0.705-0.008c0,4.615,0.049,9.232-0.018,13.848c-0.007,0.478,0.016,0.926,0.065,1.345l-3.428,24.203
	c-1.255,0.296-2.451,1.236-3.605,2.966c-4.487,6.723-9.193,13.396-12.798,20.594c-9.021,18.012-14.159,37.312-17.133,57.174
	c-2.045,13.656-4.758,27.328-5.288,41.066c-0.727,18.838,0.342,37.744,0.617,56.621c0.057,3.916,0.008,7.834,0.008,13.17
	c9.662,0,18.431-0.365,27.148,0.145c4.757,0.279,6.462-1.125,6.275-5.715c-0.304-7.463-0.83-14.951-0.516-22.398
	c0.97-23.008,2.185-46.01,3.582-68.996c0.235-3.869,1.682-7.703,2.866-11.463c1.505-4.779,3.836-9.354,4.884-14.217
	c0.197-0.916,0.398-1.831,0.601-2.744h9.251c0.888,0.476,2.118,0.734,3.689,0.781c12.741,0.375,25.476,0.941,38.216,1.34
	c0.907,0.029,1.838-0.676,3.294-1.252c-0.241-0.294-0.482-0.579-0.723-0.869h48.591c3.052,1.316,6.132,3.402,9.271,3.541
	c21.947,0.977,43.93,1.211,65.867,2.336c14.604,0.75,29.139,2.768,43.73,3.83c6.088,0.443,12.334-0.828,18.359-0.1
	c21.193,2.562,42.139-0.02,63.084-2.42c13.713-1.572,27.305-4.26,41.031-5.672c3.368-0.347,6.26-1.024,8.761-2.047h39.581
	c4.844,0.838,4.527-2.951,5.047-5.861c0.27-1.51-0.162-3.295,0.494-4.549c1.197-2.285,2.971-4.268,4.504-6.377
	c0.715,2.219,2.43,4.668,1.982,6.621c-2.84,12.408,0.764,24.432,1.732,36.584c1.83,22.938,4.178,45.834,5.834,68.783
	c0.535,7.428,0.543,8.176,8.293,8.232c1.539,0.01,3.08-0.07,4.621-0.043C692.447,606.606,694.158,605.45,693.322,600.257z"/>
<path fill-rule="evenodd" clip-rule="evenodd" fill="#BCBEC0" d="M598.166,189.813c-3.033-20.247-11.441-37.487-22.666-54.007
	c-23.703-34.882-55.666-55.141-98.492-56.643c-1.316-0.099-2.631-0.268-3.947-0.285c-17.142-0.224-34.186,2.269-49.193,10.088
	c-13.425,6.994-25.698,16.64-37.336,26.469c-7.915,6.684-15.125,14.943-20.448,23.818c-8.311,13.859-12.744,28.3-14.575,43.13
	l-8.276,1.337c-0.474-0.86-1.041-1.73-1.417-2.579c-2.085,1.232-5.407,2.033-6.015,3.779c-1.56,4.479-2.696,9.394-2.605,14.106
	c0.289,14.895,1.331,29.773,1.842,44.666c0.197,5.722,3.298,7.67,9.516,7.865c4.478,0.654,6.042-2.033,4.817-7.087
	c-0.069-0.284-0.145-0.567-0.22-0.851h6.403c3.786,13.784,10.602,26.048,18.887,37.698c22.959,32.284,54.056,50.533,93.851,53.42
	c14.109,1.023,28.18,0.926,41.686-3.657c23.344-7.922,41.945-22.777,57.17-41.752c6.25-7.791,11.111-16.72,16.354-25.285
	C597.525,241.13,602.186,216.662,598.166,189.813z M558.842,249.643c-11.668,16.788-25.895,30.931-44.031,40.765
	c-22.326,12.105-45.787,13.835-69.299,5.052c-20.99-7.84-39.77-19.683-53.67-37.918c-9.411-12.345-15.513-25.92-15.372-41.879
	c0.058-6.573-0.837-13.149-1.09-19.732c-0.812-21.13,9.387-37.389,23.184-52.039c4.208-4.467,7.947-9.465,12.582-13.424
	c18.898-16.146,40.997-21.438,65.568-19.815c16.697,1.102,32.107,5.751,46.055,14.286c21.043,12.873,38.463,29.679,45.68,54.063
	c3.121,10.541,3.078,22.018,4.473,33.07c-0.623-0.009-1.244-0.017-1.867-0.025C574.646,227.188,566.623,238.446,558.842,249.643z"/>
<g>
	<path fill-rule="evenodd" clip-rule="evenodd" fill="#EC008C" d="M738.936,112.883c-0.533-0.927-3.457-1.605-4.365-0.987
		c-3.391,2.31-6.389,5.198-9.533,7.87c0.688,1.06,1.373,2.12,2.059,3.18c3.744-1.784,7.633-3.335,11.135-5.509
		C739.15,116.868,739.566,113.974,738.936,112.883z"/>
	<path fill-rule="evenodd" clip-rule="evenodd" fill="#EC008C" d="M170.572,113.072c-1.128,0.055-3.203,3.604-3.043,3.765
		c2.992,3.007,6.255,5.745,10.417,9.372C178.521,119.999,173.913,112.908,170.572,113.072z"/>
	<path fill-rule="evenodd" clip-rule="evenodd" fill="#EC008C" d="M671.871,629.837c0.418-0.656,0.677-1.345,0.564-1.828
		c-0.766-3.276-1.658-6.526-2.591-9.803l-0.003-0.018l-2.799-22.022c0.457-0.173,0.913-0.348,1.371-0.519
		c0.219-1.207,0.703-2.434,0.619-3.619c-1.146-16.406-2.098-32.834-3.684-49.199c-0.93-9.588-2.834-19.086-4.486-28.592
		c-0.215-1.242-1.459-2.377-2.439-3.344c-0.184-0.18-1.598,0.498-2.08,1.08l-47.012,12.832c-16.059,2.438-32.143,4.762-48.275,6.604
		c-4.261,0.487-6.83,1.474-7.561,4.153h-29.608c-1.001-1.54-2.485-2.046-5.06-2.058c-9.893-0.047-19.787-0.248-29.672-0.617
		c-7.678-0.289-15.576,0.088-22.971-1.602c-23.116-5.275-46.491-6.08-70.027-6.143c-0.794-0.002-1.54,0.021-2.24,0.074
		l-35.179,1.169c-1.994-1.301-3.654-2.301-5.44-2.69c-0.984-0.215-3.133,1.447-4.191,3.011l-25.406,0.845
		c-5.669-0.473-11.347-0.881-17.028-1.139c-3.746-0.172-6.101-0.271-7.589,0.172l-28.521-1.119c-0.407-1.027-0.97-1.929-1.445-1.969
		c-1.71-0.141-4.269,0.473-5.123,1.711c-1.269,1.842-1.636,4.463-1.906,6.809c-0.826,7.194-1.257,14.444-2.196,21.614l-0.564,3.909
		c-0.245,1.508-0.314,2.71-0.119,3.732l-1.262,39.59c-0.334,9.152-0.151,18.322-0.151,27.486c0.419-0.974,0.823-1.895,1.216-2.766
		l0.921,21.369c-0.4,2.589-0.813,5.382-1.164,8.184c-0.463,3.697-0.907,7.455-0.736,11.158c0.126,2.736,0.714,5.734,2.041,8.082
		c0.531,0.94,1.075,1.873,1.626,2.801l3.201,54.734l26.768,1.272c6.775,1.454,13.477,2.856,20.304,2.024
		c-0.23-0.373-0.432-0.728-0.647-1.09l25.318,1.203c2.775,1.053,6.373,2.596,10.095,3.734c1.303,0.398,3.199,0.277,4.33-0.416
		c5.592-3.426,10.828-2.309,16.286,0.367c1.424,0.697,3.917,0.74,5.199-0.064c4.896-3.072,9.652-3.896,14.926-1.068
		c0.956,0.514,2.545,0.326,3.675-0.045c5.827-1.922,29.958-1.332,35.485,1.027c0.806,0.344,1.517,0.932,2.339,1.207
		c0.804,0.27,2.038,0.713,2.494,0.348c8.434-6.781,19.128,3.494,27.55-3.662c0.758-0.643,2.739-0.461,3.848,0.027
		c5.804,2.561,11.378,2.908,17.55,0.66c2.342-0.854,5.723,1.279,8.664,1.889c1.996,0.414,4.383,1.352,6.02,0.668
		c10.672-4.443,21.83-0.053,32.596-2.119c2.607-0.5,5.332-0.389,8.002-0.547c8.363-0.496,16.723-1.066,25.09-1.42
		c1.914-0.082,3.855,0.844,5.793,0.877c9.539,0.168,19.1,0.559,28.621,0.141c6.607-0.287,13.232-1.43,19.725-2.791
		c6.477-1.357,12.818-5.023,19.182-4.941c16.74,0.221,32.385-3.125,47.781-9.453c5.344-2.199,5.092-4.9,4.055-9.096L671.871,629.837
		z M660.334,543.374l-1.588-12.498C661.477,535.444,661.986,539.686,660.334,543.374z"/>
</g>
<g>
	<path fill-rule="evenodd" clip-rule="evenodd" fill="#FBB040" d="M488.182,648.403c6.184-0.01,12.961,6.029,12.889,11.654
		c-0.078,5.965-4.383,7.078-9.059,7.273c-7.104,0.295-13.305-5.01-13.188-11.018C478.916,651.585,482.672,648.409,488.182,648.403z"
		/>
	<path fill-rule="evenodd" clip-rule="evenodd" fill="#FBB040" d="M355.885,632.882c-0.642,4.201-3.299,7.367-8.498,7.449
		c-5.584,0.088-12.34-6.309-12.129-11.082c0.206-4.664,5.504-9.285,10.469-9.127C350.768,620.28,356.104,626.55,355.885,632.882z"/>
	<path fill-rule="evenodd" clip-rule="evenodd" fill="#FBB040" d="M488.033,561.015c0.273-3.479,2.4-6.656,7.518-6.799
		c5.184-0.145,10.947,5.002,10.893,9.475c-0.053,4.225-5.279,9.123-9.701,9.092C491.934,572.751,487.961,567.979,488.033,561.015z"
		/>
	<path fill-rule="evenodd" clip-rule="evenodd" fill="#FBB040" d="M308.938,587.171c-0.71,3.887-1.563,8.135-7.2,8.15
		c-4.329,0.014-10.849-7.334-10.463-11.996c0.328-3.945,1.753-7.412,6.621-7.506C303.57,575.708,308.977,581.124,308.938,587.171z"
		/>
	<path fill-rule="evenodd" clip-rule="evenodd" fill="#FBB040" d="M527.939,629.101c-8.842,0.312-14.883-5.078-15.023-11.373
		c-0.086-3.932,1.127-7,5.625-7.33c6.598-0.482,15.484,5.824,14.604,11.146C532.625,624.683,529.225,627.345,527.939,629.101z"/>
	<path fill-rule="evenodd" clip-rule="evenodd" fill="#FBB040" d="M553.861,708.267c-0.486,3.525-1.584,7.229-6.977,6.943
		c-5.23-0.277-10.09-5.76-10.014-11.242c0.059-4.146,1.818-6.73,6.303-6.654C549.004,697.413,554,702.233,553.861,708.267z"/>
	<path fill-rule="evenodd" clip-rule="evenodd" fill="#FBB040" d="M571.553,661.589c0.061-3.615,1.65-7.312,6.793-7.742
		c4.127-0.344,9.346,5.891,8.896,10.471c-0.457,4.652-2.797,7.859-7.938,7.641C574.617,671.759,571.17,667.435,571.553,661.589z"/>
	<path fill-rule="evenodd" clip-rule="evenodd" fill="#FBB040" d="M567.375,589.927c-1.188,1.006-3.27,4.102-5.932,4.727
		c-4.498,1.053-10.012-4.029-10.215-8.232c-0.23-4.729,3.328-8.768,7.826-8.887C563.732,577.409,567.275,581.698,567.375,589.927z"
		/>
	<path fill-rule="evenodd" clip-rule="evenodd" fill="#FBB040" d="M609.365,631.817c-0.742,0.73-2.256,3.504-4.25,3.908
		c-3.645,0.738-10.852-7.469-9.924-11.418c0.514-2.182,3.023-4.932,5.133-5.471C604.219,617.839,609.324,624.56,609.365,631.817z"/>
	<path fill-rule="evenodd" clip-rule="evenodd" fill="#FBB040" d="M609.697,719.544c-0.664,0.742-2.203,3.943-4.572,4.773
		c-3.422,1.195-7.695-4.549-7.783-9.537c-0.066-3.834,1.488-6.779,5.57-6.414C607.826,708.81,609.889,712.312,609.697,719.544z"/>
	<path fill-rule="evenodd" clip-rule="evenodd" fill="#FBB040" d="M629.129,586.491c-3.104,3.648-5.018,5.898-6.932,8.148
		c-2.027-3.334-4.721-6.475-5.781-10.094c-0.484-1.656,2.244-4.254,3.516-6.424C622.678,580.622,625.426,583.12,629.129,586.491z"/>
	<path fill-rule="evenodd" clip-rule="evenodd" fill="#FBB040" d="M588.27,552.501c-0.918,0.775-2.607,3.332-4.697,3.717
		c-3.338,0.615-8.027-5.801-7.207-10.111c0.402-2.123,2.691-5.143,4.535-5.471C584.605,539.976,588.467,545.774,588.27,552.501z"/>
	<path fill-rule="evenodd" clip-rule="evenodd" fill="#FBB040" d="M649.508,638.618c-2.891,2.738-4.361,5.215-6.377,5.795
		c-3.26,0.938-8.949-5.023-8.021-8.604c0.643-2.479,3.211-4.455,4.92-6.654C642.908,632.03,645.789,634.905,649.508,638.618z"/>
	<path fill-rule="evenodd" clip-rule="evenodd" fill="#FBB040" d="M626.514,680.521c2.209-2.727,3.408-4.205,4.605-5.682
		c2.383,3.043,5.156,5.887,6.895,9.262c0.48,0.934-2.113,3.451-3.297,5.242C632.139,686.569,629.559,683.796,626.514,680.521z"/>
	<path fill-rule="evenodd" clip-rule="evenodd" fill="#FBB040" d="M660.791,686.419c1.727-2.105,2.969-3.623,4.213-5.139
		c1.666,2.225,3.955,4.266,4.701,6.766c0.305,1.025-2.719,3.043-4.229,4.609C664.039,690.741,662.602,688.829,660.791,686.419z"/>
	<path fill-rule="evenodd" clip-rule="evenodd" fill="#FBB040" d="M406.911,632.474c8.041,0.166,15.961,6.725,15.63,12.945
		c-0.226,4.236-5.679,8.229-11.143,8.156c-6.318-0.082-12.12-6.146-11.881-12.42C399.744,635.179,402.13,632.376,406.911,632.474z"
		/>
	<path fill-rule="evenodd" clip-rule="evenodd" fill="#FBB040" d="M460.2,617.087c-4.425-2.994-9.439-4.65-11.028-7.957
		c-1.541-3.203-0.89-9.195,1.324-11.881c1.569-1.904,7.354-0.547,11.224-0.236c1.373,0.109,3.225,1.109,3.862,2.256
		c1.992,3.582,5.102,7.633,4.656,11.098C469.934,612.739,464.416,614.44,460.2,617.087z"/>
	<path fill-rule="evenodd" clip-rule="evenodd" fill="#FBB040" d="M437.799,689.228c6.863-0.078,11.902,4.818,12.228,11.883
		c0.213,4.615-3.332,7.973-8.419,7.973c-6.971,0-14.244-5.682-14.23-11.121C427.387,693.239,432.098,689.292,437.799,689.228z"/>
	<path fill-rule="evenodd" clip-rule="evenodd" fill="#FBB040" d="M431.708,537.243c6.938,0.238,11.984,4.715,11.765,10.887
		c-0.184,5.166-4.561,8.719-10.481,8.512c-7.299-0.258-10.59-3.867-10.363-11.234C422.8,539.823,425.274,536.755,431.708,537.243z"
		/>
	<path fill-rule="evenodd" clip-rule="evenodd" fill="#FBB040" d="M373.529,699.876c-7.23-0.256-11.523-4.635-11.314-11.545
		c0.192-6.373,3.991-9.75,10.681-9.494c5.844,0.223,10.021,4.572,9.684,10.086C382.079,697.116,379.621,700.091,373.529,699.876z"/>
	<path fill-rule="evenodd" clip-rule="evenodd" fill="#FBB040" d="M311.397,665.165c6.815-0.135,11.087,4.016,11.205,10.887
		c0.09,5.293-3.671,8.787-9.791,9.09c-5.68,0.281-10.576-5.072-10.769-11.771C301.885,667.868,304.815,665.298,311.397,665.165z"/>
	<path fill-rule="evenodd" clip-rule="evenodd" fill="#FBB040" d="M388.477,597.927c-5.163-0.047-9.072-4.459-8.597-10.266
		c0.408-4.984,2.568-9.068,8.23-9.428c5.432-0.346,12.13,5.162,11.909,9.34C399.701,593.591,394.805,597.979,388.477,597.927z"/>
	<path fill-rule="evenodd" clip-rule="evenodd" fill="#FBB040" d="M633.926,539.214c5.73-2.145,9.574-3.553,13.393-5.025
		c1.488-0.572,2.922-1.281,4.381-1.928c1.047,2.549,2.736,5.066,2.869,7.662c0.068,1.318-2.826,4.102-4.1,3.945
		c-4.5-0.557-7.215,0.422-8.309,5.152c-0.084,0.367-4.975,0.555-5.33-0.227C635.285,545.413,634.596,541.644,633.926,539.214z"/>
	<path fill-rule="evenodd" clip-rule="evenodd" fill="#FBB040" d="M539.123,532.981c5.842,0.076,9.229,3.451,8.324,9.855
		c-0.334,2.359-3.482,5.668-5.82,6.127c-5.174,1.014-10.273-4.799-10.24-10.445C531.41,534.218,533.244,532.905,539.123,532.981z"/>
	<path fill-rule="evenodd" clip-rule="evenodd" fill="#FBB040" d="M289.747,535.229c0.072,4.393-1.702,7.287-6.463,7.051
		c-6.98-0.35-6.081-6.186-5.934-10.295c0.104-2.92,1.986-7.127,4.309-8.285C284.886,522.091,289.827,529.474,289.747,535.229z"/>
	<path fill-rule="evenodd" clip-rule="evenodd" fill="#FBB040" d="M267.023,624.659c0.588-0.709,2.039-4.141,4.286-4.781
		c4.111-1.172,8.359,4.889,8.483,11.1c0.072,3.576-0.657,6.74-5.001,7.035C270.372,638.312,267.058,633.522,267.023,624.659z"/>
	<path fill-rule="evenodd" clip-rule="evenodd" fill="#FBB040" d="M628.766,532.046c-0.92-2.514-2.424-4.98-2.633-7.551
		c-0.398-4.881-0.561-9.9,0.195-14.703c0.379-2.414,2.988-4.477,4.59-6.697c1.836,1.883,3.846,3.637,5.391,5.732
		c0.402,0.547-0.312,2.791-1.072,3.189c-7.598,3.984-6.758,10.287-4.988,16.947c0.209,0.781,0.195,1.625,0.283,2.439
		C629.941,531.618,629.354,531.831,628.766,532.046z"/>
	<path fill-rule="evenodd" clip-rule="evenodd" fill="#FBB040" d="M657.074,592.015c1.275,4.008,2.803,7.965,3.664,12.059
		c0.234,1.104-1.574,3.746-2.404,3.73c-1.674-0.037-4.557-1.184-4.758-2.275c-0.758-4.135-0.643-8.428-0.855-12.662
		C654.172,592.581,655.623,592.298,657.074,592.015z"/>
	<path fill-rule="evenodd" clip-rule="evenodd" fill="#FBB040" d="M259.601,572.122c5.609,3.656,7.284,9.309,4.43,13.549
		c-0.743,1.105-2.306,1.66-3.493,2.469c-0.587-1.223-1.675-2.449-1.669-3.67C258.887,580.501,259.306,576.532,259.601,572.122z"/>
	<path fill-rule="evenodd" clip-rule="evenodd" fill="#FBB040" d="M671.348,651.997c-0.533-4.186-1.066-8.369-1.602-12.557
		c0.93-0.123,1.859-0.248,2.791-0.373c3.029,3.836,2.682,8.143,1.654,12.545C673.244,651.741,672.295,651.868,671.348,651.997z"/>
	<path fill-rule="evenodd" clip-rule="evenodd" fill="#FBB040" d="M647.693,517.493c-1.791-2.283-3.58-4.564-5.371-6.846
		c1.043-0.477,2.791-1.584,3.018-1.33c1.775,1.98,3.258,4.225,4.83,6.389C649.344,516.302,648.518,516.897,647.693,517.493z"/>
	<path fill-rule="evenodd" clip-rule="evenodd" fill="#FBB040" d="M258.141,426.528c3.375-1.916,6.588-4.314,10.199-5.539
		c1.726-0.586,4.8,0.42,6.255,1.783c19.357,18.127,39.185,35.834,52.458,59.4c2.991,5.311,7.321,9.857,10.922,14.838
		c1.026,1.42,1.656,3.125,2.51,4.779c-9.73,3.344-16.548,1.465-22.091-6.719c-6.629-9.789-13.587-19.502-21.539-28.211
		c-11.462-12.555-23.931-24.191-36.029-36.16c-0.897-0.889-2.271-1.293-3.422-1.922
		C257.649,428.028,257.895,427.278,258.141,426.528z"/>
	<path fill-rule="evenodd" clip-rule="evenodd" fill="#FBB040" d="M363.82,555.438c-1.029-0.713-3.773-1.859-5.384-3.9
		c-2.539-3.217-4.888-4.094-8.31-1.641c-3.597,2.578-7.253,3.057-10.763-0.195c-4.014-3.719-6.765-8.551-3.922-13.48
		c2.987-5.182,1.512-8.006-2.493-11.023c-1.202-0.904-2.651-2.129-2.958-3.447c-0.708-3.037-2.076-7.059-0.747-9.105
		c1.288-1.984,5.81-3.117,8.553-2.627c4.433,0.797,7.578,1.885,10.264-3.42c2.091-4.129,11.476-2.229,13.629,3.275
		c2.684,6.861,6.224,10.9,14.021,11.311c1.871,0.098,5.04,4.195,4.911,6.289c-0.159,2.562-2.695,6.396-5.016,7.139
		c-6.526,2.084-7.568,4.631-3.713,10.365C375.552,550.417,372.14,555.628,363.82,555.438z M367.449,529.571
		c-0.137-6.312-7.845-12.814-15.183-12.809c-6.295,0.004-10.752,4.6-10.561,10.887c0.277,9.086,5.591,15.051,13.238,14.859
		C361.243,542.349,367.585,535.79,367.449,529.571z"/>
	<path fill-rule="evenodd" clip-rule="evenodd" fill="#FBB040" d="M658.402,415.153c6.951,5.967,7.758,12.863,4.643,21.508
		c-4.898,13.602-9.836,27.197-14.346,40.932c-1.764,5.371-2.176,11.172-3.68,16.646c-0.639,2.324-3.002,6.297-3.725,6.115
		c-3.74-0.943-7.803-2.572-6.949-7.836c0.736-4.545,1.238-9.205,2.66-13.549C643.844,458.073,650.957,437.267,658.402,415.153z"/>
	<path fill-rule="evenodd" clip-rule="evenodd" fill="#FBB040" d="M267.606,513.718c1.909-1.061,3.847-3.084,5.721-3.027
		c14.909,0.451,29.817,1.141,44.688,2.248c1.583,0.117,2.93,3.389,4.387,5.197c-1.889,0.904-3.769,2.559-5.668,2.582
		c-6.792,0.08-13.643,0.041-20.375-0.764c-9.229-1.107-18.37-2.957-27.548-4.488C268.41,514.882,268.008,514.3,267.606,513.718z"/>
	<path fill-rule="evenodd" clip-rule="evenodd" fill="#FBB040" d="M322.9,733.44c-5.497-1.639-10.24-6.541-9.96-10.531
		c0.341-4.855,4.975-8.934,9.817-8.641c5.228,0.314,12.486,6.693,10.58,10.217C331.302,728.251,326.497,730.521,322.9,733.44z"/>
	<path fill-rule="evenodd" clip-rule="evenodd" fill="#FBB040" d="M510.34,766.899c-18.619-1.174-37.223-2.859-55.858-3.342
		c-12.671-0.326-25.392,1.645-38.077,1.498c-18.884-0.219-37.75-1.627-56.635-2.102c-15.315-0.383-30.682,0.484-45.961-0.355
		c-14.438-0.793-28.88-2.572-43.141-4.98c-5.619-0.947-11.44-3.963-15.789-7.66c-1.931-1.643-0.438-7.311-0.498-11.15
		c2.638,0.328,5.953-0.221,7.763,1.178c3.33,2.57,5.531,1.652,8.071-0.596c3.151-2.787,5.753-3.318,8.592,0.836
		c0.819,1.197,4.729,1.693,6.131,0.801c3.424-2.184,5.972-2.664,8.334,1.018c2.016,3.141,4.345,3.385,7.062,0.934
		c2.856-2.578,5.1-2.213,7.873,0.611c1.296,1.32,4.733,2.041,6.342,1.264c4.403-2.133,8.1-2.33,12.379,0.324
		c1.61,0.998,4.999,1.109,6.418,0.059c4.212-3.113,7.651-2.504,11.26,0.615c2.979,2.576,5.833,2.398,8.823-0.193
		c4.544-3.938,8.877-3.133,12.576,1.256c2.688,3.189,5.156,2.891,7.649,0.006c3.896-4.508,7.593-5.578,11.974-0.346
		c0.744,0.887,4.39,0.645,5.604-0.375c6.143-5.16,8.895-5.424,14.514,0.197c2.335,2.336,3.927,2.797,6.558,0.379
		c5.235-4.807,8.621-4.727,13.366,0.266c3.41,3.59,5.834,4.188,9.572-0.039c3.035-3.434,7.562-4.408,11.785-0.793
		c3.632,3.111,7.009,4.24,10.562-0.496c2.602-3.467,6.312-3.189,9.196-0.338c3.265,3.229,6.077,3.826,9.622,0.559
		c3.961-3.65,8.033-2.914,11.787,0.469c3.326,2.996,6.32,3.273,9.771-0.037c3.424-3.285,7.602-3.752,11.338-0.582
		c2.932,2.49,5.32,2.361,8.17,0.121c3.758-2.957,7.299-3.58,10.92,0.688c0.787,0.928,4.344,0.916,5.381-0.029
		c4.111-3.744,7.867-5.004,12.939-1.564c1.391,0.945,5.002,0.459,6.363-0.754c3.332-2.971,6.105-3.105,9.186-0.143
		c2.762,2.656,5.215,2.84,7.707-0.414c2.508-3.275,5.275-2.613,8.727-1.008c2.354,1.096,5.682-0.074,8.244,0.77
		c7.344,2.412,14.422-1.402,21.693-0.438c2.482,0.328,5.162-0.643,7.727-1.145c1.949-0.381,3.848-1.023,5.795-1.412
		c0.594-0.119,1.686,0.521,1.861,0.291c4.451-5.848,10.377-2.064,15.658-2.613c5.961-0.621,11.918-1.717,17.734-3.17
		c9.254-2.314,18.256-5.994,27.621-7.387c7.191-1.07,5.639,8.16,9.576,11.557c0.256,0.219-1.66,4.502-3.162,4.969
		c-8.994,2.787-18.037,5.809-27.297,7.252c-19.674,3.068-39.605,4.557-59.225,7.9c-29.152,4.965-58.613,4.986-87.955,6.975
		c-2.188,0.146-4.396,0.018-6.596,0.018C510.361,766.464,510.35,766.683,510.34,766.899z"/>
	<path fill-rule="evenodd" clip-rule="evenodd" fill="#FBB040" d="M382.033,513.358c6.531,0.453,13.056,1.08,19.595,1.322
		c19.542,0.729,39.425-0.688,58.538,2.52c18.015,3.023,35.909,2.533,53.759,2.93c20.527,0.459,41.16-1.801,61.672-3.689
		c12.867-1.186,25.631-3.674,38.365-5.982c4.133-0.748,6.189,0.746,6.225,4.316c0.012,1.164-2.908,3.148-4.688,3.41
		c-13.238,1.951-26.486,4.07-39.811,5.164c-20.68,1.697-41.43,3.699-62.137,3.588c-22.514-0.121-44.955-1.371-67.396-5.717
		c-17.456-3.379-35.906-1.525-53.901-2.309c-3.713-0.16-7.367-1.699-11.048-2.604C381.48,515.325,381.757,514.341,382.033,513.358z"
		/>
</g>
<g>
	<path fill="#A97C50" d="M604.363,89.425l-51.91-39.05l-15.197-4.131c-1.076-0.698-2.152-1.396-3.227-2.097
		c-3.701-2.417-7.941-4.534-12.217-5.42c-6.195-1.284-12.639-1.489-18.992-1.843c-6.34-0.354-12.586-0.601-18.318,3.523
		c-2.252,1.619-5.889,1.213-8.812,2.024c-2.814,0.782-5.525,1.945-8.28,2.94l-31.463-2.355c-9.503-2.637-19.367-7.832-29.627-2.653
		l-18.583,3.223c2.192-1.486,4.384-2.965,6.575-4.454c-0.443-0.187-1.023-0.677-1.513-0.601
		c-14.966,2.352-30.354,4.402-43.121,12.88c-16.19,10.752-31.661,22.685-46.751,34.958c-7.996,6.503-15.08,14.325-21.678,22.304
		l-19.215-8.318c-6.354-4.513-13.561-7.422-21.544-7.892c-4.581-0.27-9.139-0.334-13.658-0.146l-0.005-0.002l-0.009,0.003
		c-14.087,0.589-27.789,3.68-40.543,11.03c-2.928,1.686-5.918,3.264-10.293,5.67l-20.401,13.72
		c-9.965,5.921-20.026,11.892-29.051,19.101c-4.919,3.93-8.113,10.189-11.498,15.755c-0.914,1.504-0.444,5.456,0.747,6.251
		c1.008,0.673,2.692,1.029,4.225,0.988l5.616,8.178c-0.292,2.771-0.449,5.387,0.758,6.445c3.477,3.045,7.263,5.533,10.163,9.458
		c2.235,3.026,5.829,5.048,10.017,8.507c0.53-0.568,1.847-2.682,3.749-3.806c1.525-0.901,4.795-1.507,5.507-0.689
		c4.086,4.688,7.641,9.84,11.906,15.543c4.754,0.076,5.029-4.717,5.89-8.574c0.617-2.763,1.458-4.677,3.321-5.132l3.847,0.557
		c4.843,1.904,5.688-1.467,6.984-5.198c-2.377,0.289-4.681,0.31-6.815,0.433l0.169-4.777c0.353,0.001,0.643-0.043,0.738-0.165
		c2.473-3.156,6.817-6.631,6.642-9.789c-1.026-18.362-3.606-36.365-18.581-48.229l25.753-16.309l48.305-9.147
		c5.013,1.252,9.954,3.398,14.809,6.592l13.674,11.078c-5.47,7.146-10.729,14.463-15.798,21.889c-2.048,3-3.577,6.353-5.028,9.759
		c-1.03,2.418-2.021,4.863-3.131,7.227c1.028,0.711,2.057,1.423,3.085,2.134c0.185-0.246,0.371-0.492,0.556-0.738l1.255,21.223
		c-0.068,2.363,1.223,4.767,1.889,7.152c1.689-1.245,3.578-2.291,5.034-3.766c9.829-9.965,18.705-21.092,29.53-29.801
		c17.228-13.859,35.602-26.317,53.736-39.017c22.652-15.861,45.974-30.797,68.184-47.244c5.022-3.719,10.092-6.58,15.328-8.472
		l12.283-2.563c4.525-0.262,9.225,0.188,14.167,1.431c0.328-0.473,0.656-0.945,0.984-1.418c-0.693-0.815-1.303-1.911-1.986-2.76
		l1.986-0.415l9.52,2.436c-0.407,0.62-0.815,1.239-1.254,1.767c1.848,0.119,3.708,0.442,5.539,0.32
		c0.911-0.061,1.834-0.162,2.762-0.284l15.122,3.869l37.009,14.472c14.688,9.457,29.209,19.178,43.672,28.977
		c3.748,2.539,6.402,6.649,10.049,9.383c14.196,10.636,28.563,21.045,42.798,31.628l29.327,34.319
		c0.008,0.688,0.875,1.366,1.633,2.472c6.965-6.157,7.117-14.603,1.27-20.272c-0.693-0.672-1.386-1.347-2.079-2.02l0.624-15.019
		c1.351,1.483,2.703,2.964,4.023,4.47c0.906-0.616,1.811-1.233,2.715-1.851c-5.056-13.946-14.487-24.968-23.951-35.957l8.938-5.273
		c13.969-11.035,29.846-11.508,46.215-8.328c3.455,0.671,6.933,1.312,10.363,2.106l-14.561-2.836l19.524,11.026l29.746,16.878l0,0
		c-3.826,2.401-6.91,5.885-8.554,10.296c-3.648,9.796-5.732,20.259-7.664,30.584c-1.189,6.357,2.838,11.76,9.131,13.848
		c0.9,0.299,3.678-1.702,3.684-2.649c0.009-1.449-0.085-2.902-0.214-4.354l5.484,7.494c-0.745,1.165-1.385,2.243-1.419,3.34
		c-0.146,4.604-1.395,11.096,1.051,13.441c4.339,4.16,8.389-4.625,8.842-5.453l5.15-3.626c2.265-0.597,3.994,1.009,6.674,4.929
		c0.562,0.822,4.031,0.948,4.205,0.547c1.98-4.533,4.344-9.115,5.082-13.918c0.879-5.735,2.727-7.856,8.611-6.026
		c1.619,0.503,4.283-0.527,5.666-1.755c0.871-0.772,0.93-4.172,0.164-4.713l6.611-10.473c0.296,0.104,0.587,0.213,0.857,0.336
		c0.715-1.619,1.818-3.193,2.004-4.87c0.115-1.063-1.025-2.355-1.789-3.41c-8.121-11.232-17.959-20.342-31.049-25.621
		c-4.57-1.843-9.624-2.176-14.354-1.2l-19.657-17.292c-3.135-2.352-6.6-4.312-10.082-6.141c-11.754-6.17-24.023-10.6-40.662-10.607
		c-3.676,0.583-10.688,0.741-16.971,2.963c-3.169,1.122-6.164,2.789-9.069,4.653l0.002-0.005l-20.222,6.329
		c-2.176-2.682-4.281-5.411-6.256-8.226c-17.197-24.516-43.689-36.581-69.768-48.944c0.721,1.941,1.977,3.214,3.434,4.18
		 M357.793,89.438l0.015-0.013l0.039-0.02C357.83,89.417,357.812,89.427,357.793,89.438z M627.183,116.755l0.526-0.311
		c1.552,2.14,3.084,4.297,4.609,6.461L627.183,116.755z M756.352,135l-4.508-2.614C753.365,133.236,755.094,133.857,756.352,135z"/>
	<path fill="#A97C50" d="M480.078,191.233c-12.299-6.347-25.68-5.762-37.168,1.341c-15.261,9.436-18.165,37.18-7.223,51.512
		c8.412,11.016,20.293,12.786,30.592,14.038c21.475,0.169,36.709-15.01,36.695-34.4
		C502.963,207.496,493.047,197.925,480.078,191.233z"/>
</g>
<path fill-rule="evenodd" clip-rule="evenodd" fill="#FFFFFF" d="M525.377,393.089c-10.002-0.471-19.256-0.906-29.512-1.388
	c0.669,1.067,1.507,2.018,2.461,2.863h-16.468c0.197-0.147,0.396-0.295,0.595-0.426c-0.287-0.747-0.576-1.493-0.863-2.24
	c-7.111,0-14.229,0.202-21.331-0.057c-7.132-0.26-14.248-0.979-22.099-1.55c-0.036,0.249-0.055,0.487-0.074,0.725l-12.695-3.769
	c-10.465-3.724-20.993-7.282-31.588-10.617c-1.51-0.475-5.007,0.497-5.014,0.85c-0.039,1.927-0.112,3.875-0.146,5.821l-6.592-2.76
	c-1.042-3.49-1.528-7.996-3.798-9.235c-7.044-3.847-14.514-6.922-21.981-9.986c-2.261-0.928-4.522-1.854-6.772-2.801
	c-1.3-0.547-2.895-0.393-4.353-0.564c-0.137,1.4-0.652,2.886-0.353,4.186c3.688,16.045,14.004,27.615,26.427,37.379
	c2.092,1.645,6.649,0.613,9.884-0.062c0.072-0.015,0.134-0.093,0.188-0.214l25.727-0.708c0.029,0.221,0.057,0.443,0.086,0.664
	c1.794-0.237,3.599-0.435,5.403-0.637l32.434,0.162l65.68,1.678l3.271-1.211c3.515-0.294,6.798-1.415,9.167-3.396l0,0l0,0
	C523.982,395.024,524.773,394.126,525.377,393.089z"/>
<g>
	<path fill-rule="evenodd" clip-rule="evenodd" d="M793.623,148.503c-10.672-15.398-24.113-27.229-42.652-32.472
		c-2.084-0.589-3.494-3.338-5.385-4.88c-2.838-2.315-5.621-4.827-8.812-6.541c-2.59-1.392-5.969-1.291-8.602-2.63
		c-5.67-2.884-10.951-6.535-16.629-9.405c-23.561-11.912-47.398-13.894-71.309-1.056c-3.562,1.913-6.557,4.884-10.574,7.944
		c-0.637-1.113-1.045-1.915-1.531-2.665C609.547,68.135,581,51.473,550.92,39.661c-21.887-8.595-46.123-14.981-71.074-4.934
		c-8.354,3.363-17.335,4.044-22.226,14.139c-10.253-9.631-21.524-14.533-33.599-15.637c-13.442-1.228-27.239-1.371-40.608,0.259
		c-11.155,1.359-23.112,3.946-32.583,9.574c-16.487,9.797-31.625,21.985-46.746,33.91c-7.88,6.215-14.793,13.753-21.618,21.175
		c-4.351,4.73-7.731,5.488-12.433,0.632c-2.696-2.785-6.163-4.996-9.611-6.856c-17.695-9.546-36.797-7.384-54.672-2.918
		c-14.583,3.644-27.982,12.216-41.69,19.036c-3.399,1.691-5.707,5.454-8.957,7.593c-9.684,6.37-20.165,11.675-29.209,18.82
		c-6.365,5.028-11.715,11.872-16.033,18.827c-5.235,8.43-2.91,13.958,5.611,19.17c1.589,0.972,3.65,3.134,3.543,4.606
		c-0.74,10.242,9.326,12.531,13.554,19.037c1.162,1.788,3.466,2.928,4.34,4.789c2.283,4.862,6.369,6.201,10.229,3.771
		c5.899-3.711,8.569-0.784,10.663,3.812c1.927,4.228,4.96,7.833,9.308,6.769c4.02-0.984,7.506-4.431,11.021-7.069
		c1.603-1.202,2.473-4.093,4.078-4.459c8.434-1.926,12.153-7.724,12.762-15.505c1.43-18.252-1.298-35.874-9.04-52.643
		c-3.064-6.638-0.51-14.143,6.126-17.129c18.192-8.188,36.461-14.846,57.062-7.696c11.739,4.075,14.532,11.991,6.841,21.94
		c-4.634,5.994-8.107,12.934-11.726,19.651c-2.87,5.328-2.651,10.768-0.108,16.478c1.613,3.622,2.885,8.029,2.373,11.822
		c-0.857,6.339,1.021,10.594,6.065,14.094c6.679,4.634,7.043,16.671,0.316,21.092c-5.401,3.549-6.507,8.143-6.355,14.078
		c0.228,8.923-0.159,17.864-0.411,26.794c-0.154,5.479-0.143,10.571,6.301,13.057c1.404,0.542,2.709,3.309,2.763,5.089
		c0.648,21.706,1.559,43.422,1.392,65.128c-0.197,25.719-1.271,51.435-2.286,77.14c-0.108,2.74-2.437,5.367-3.614,8.1
		c-1.672,3.877-3.221,7.809-4.843,11.709c-0.831,1.996-1.609,4.021-2.573,5.955c-5.086,10.199-11.358,19.982-15.062,30.656
		c-4.854,13.996-8.587,28.531-11.168,43.123c-2.858,16.164-4.778,32.615-5.451,49.01c-0.792,19.285,0.345,38.645,0.251,57.969
		c-0.014,2.832-1.429,6.611-3.525,8.307c-7.685,6.213-8.749,9.252-4.191,17.857c1.229,2.32,2.665,4.572,4.28,6.641
		c3.496,4.477,3.166,8.539-0.134,13.119c-7.309,10.143-14.351,20.482-21.337,30.852c-7.576,11.246-2.768,37.654,7.813,46.221
		c4.672,3.783,8.756,8.395,12.642,13.021c6.691,7.967,13.795,13.412,25.4,11.336c7.064-1.262,11.076-5.1,14.176-10.457
		c2.709-4.682,5.326-4.928,9.457-1.959c2.977,2.139,6.282,4.584,9.731,5.164c11.472,1.93,23.039,3.799,34.634,4.369
		c20.159,0.99,40.365,1.074,60.554,1.381c10.521,0.158,11.614,1.225,10.112,11.346c-1.605,10.814,1.262,16.168,10.919,21.465
		c21.032,11.535,43.656,10.254,66.29,8.158c6.292-0.582,8.891-5.426,8.964-11.793c0.056-4.818,1.219-9.623,1.77-13.586
		c4.789,1.385,8.599,2.922,12.552,3.547c10.416,1.648,21.156,1.895,31.299,4.516c23.09,5.963,46.643,4.469,70.02,5.803
		c3.256,0.186,6.568-0.404,9.842-0.754c5.227-0.561,8.955-3.518,9.432-8.615c0.631-6.744,0.154-13.592,0.154-21.412
		c3.574-0.609,8.463-1.639,13.406-2.252c18.252-2.271,36.939-2.711,54.656-7.094c15.691-3.883,32.096-4.889,45.449-19.039
		c21.443-22.725,23.982-49.246,15.504-74.064c-1.451-4.248-3.816-8.514-6.795-11.848c-9.404-10.527-7.662-23.168-6.754-35.314
		c0.404-5.396,1.045-9.305-4.469-12.084c-1.467-0.742-2.893-2.904-3.113-4.576c-2.635-19.785-5.426-39.562-7.4-59.42
		c-2.182-21.949,2.51-44.506-5.889-65.924c-4.219-10.758-6.678-22.406-15.367-30.904c-2.67-2.611-3.164-5.033-1.963-8.762
		c4.09-12.689,1.299-20.498-8.672-28.523c-1.879-1.512-3.295-4.676-3.391-7.137c-0.459-11.611-0.281-23.244-0.518-34.866
		c-0.611-30.119-1.279-60.237-2.039-90.353c-0.131-5.201-0.088-9.713,5.141-13.142c2.363-1.549,4.064-5.448,4.426-8.476
		c1.32-11.093,2.102-22.259,2.77-33.416c0.281-4.687-1.602-8.546-6.232-10.684c-7.58-3.498-6.203-11.399-8.318-17.55
		c-0.248-0.718,0.57-2.261,1.334-2.802c10.766-7.621,8.553-17.985,6.361-28.498c-0.402-1.923-0.197-4.536,0.84-6.09
		c2.99-4.486,2.641-8.842,0.113-13.036c-4.072-6.761-8.355-13.411-12.852-19.898c-5.564-8.029-5.387-8.875,3.293-13.476
		c13.023-6.904,26.529-5.096,39.916-2.003c6.951,1.606,13.773,4.175,20.297,7.104c4.92,2.209,9.441,13.265,7.66,17.515
		c-7.168,17.114-10.174,34.843-9.219,53.397c0.58,11.253,3.762,14.31,12.096,12.614c5.357,3.774,9.232,8.593,13.385,8.844
		c4.197,0.253,8.668-4.019,13.367-6.493c8.336,6.732,15.102,4.213,18.176-6.874c1.404-5.066,2.482-10.904,10.529-11.25
		c4.879-0.21,8.068-4.488,8.428-10.272c0.146-2.352,1.82-5.153,3.662-6.754C796.1,159.873,797.662,154.333,793.623,148.503z
		 M734.57,111.896c0.908-0.619,3.832,0.06,4.365,0.987c0.631,1.091,0.215,3.984-0.705,4.554c-3.502,2.173-7.391,3.725-11.135,5.509
		c-0.686-1.06-1.371-2.12-2.059-3.18C728.182,117.095,731.18,114.207,734.57,111.896z M475.689,42.432
		c2.924-0.811,6.561-0.405,8.812-2.024c5.732-4.124,11.979-3.876,18.318-3.523c6.354,0.354,12.797,0.559,18.992,1.843
		c4.275,0.886,8.516,3.003,12.217,5.42c15.406,10.058,31.07,19.817,45.723,30.899c11.422,8.639,22.424,18.241,31.912,28.925
		c11.02,12.407,20.186,26.458,30.141,39.808c0.857,1.15,1.594,2.39,1.506,4.471c-2.047-1.768-4.469-3.248-6.084-5.349
		c-14.053-18.281-31.074-33.151-50.65-45.275c-16.039-9.932-31.486-20.872-47.871-30.18c-12.908-7.333-26.619-13.418-40.43-18.919
		c-5.619-2.238-12.428-1.725-18.715-1.964c-3.811-0.145-7.656,0.666-11.486,1.047c-0.221-0.746-0.443-1.493-0.665-2.239
		C470.164,44.376,472.875,43.213,475.689,42.432z M473.061,78.878c1.316,0.018,2.631,0.187,3.947,0.285
		c42.826,1.501,74.789,21.761,98.492,56.643c11.225,16.52,19.633,33.76,22.666,54.007c4.02,26.849-0.641,51.317-14.666,74.231
		c-5.242,8.565-10.104,17.495-16.354,25.285c-15.225,18.976-33.826,33.83-57.17,41.752c-13.506,4.583-27.576,4.681-41.686,3.657
		c-39.795-2.887-70.892-21.136-93.851-53.42c-10.231-14.387-18.226-29.707-21.036-47.674c-5.141-32.865-4.981-64.941,12.679-94.391
		c5.323-8.875,12.534-17.134,20.448-23.818c11.638-9.83,23.911-19.475,37.336-26.469C438.875,81.147,455.919,78.655,473.061,78.878z
		 M645.162,192.492c1.219,3.623,2.516,7.218,3.777,10.825c-0.613,0.455-1.229,0.91-1.844,1.365
		c-8.166-3.585-16.332-7.166-24.496-10.755c-2.4-1.056-4.734-2.868-7.203-3.067c-8.816-0.716-11.971-5.799-13.197-13.957
		c-2.73-18.16-13.299-32.679-23.281-47.391c-0.861-1.27-1.824-2.473-2.672-3.752c-0.211-0.318-0.156-0.812-0.434-2.519
		c2.621,1.388,4.725,2.18,6.459,3.47c16.344,12.159,32.738,24.258,48.871,36.692c6.947,5.354,12.285,11.902,11.842,21.65
		C642.873,187.496,644.336,190.029,645.162,192.492z M656.691,527.878c-1.363-1.734-1.738-14.219-0.348-15.904
		c0.482-0.582,1.896-1.26,2.08-1.08c0.98,0.967,2.225,2.102,2.439,3.344c1.652,9.506,3.557,19.004,4.486,28.592
		c1.586,16.365,2.537,32.793,3.684,49.199c0.084,1.186-0.4,2.412-0.619,3.619c-0.559,0.209-1.115,0.422-1.672,0.633
		c-1.516-2.318-2.895-4.742-4.572-6.936c-3.986-5.215-9.484-5.521-13.391-0.887c-4.955,5.875-4.527,17.072,0.863,22.557
		c5.102,5.191,9.389,5.121,17.939-0.725c1.703,6.045,3.479,11.834,4.854,17.719c0.225,0.965-1.029,2.744-2.07,3.459
		c-8.324,5.721-10.963,17.994-2.867,24.521c9.795,7.896,9.188,18.686,12.158,28.539c2.58,8.559,4.145,17.42,6.293,26.115
		c1.037,4.195,1.289,6.896-4.055,9.096c-15.396,6.328-31.041,9.674-47.781,9.453c-6.363-0.082-12.705,3.584-19.182,4.941
		c-6.492,1.361-13.117,2.504-19.725,2.791c-9.521,0.418-19.082,0.027-28.621-0.141c-1.938-0.033-3.879-0.959-5.793-0.877
		c-8.367,0.354-16.727,0.924-25.09,1.42c-2.67,0.158-5.395,0.047-8.002,0.547c-10.766,2.066-21.924-2.324-32.596,2.119
		c-1.637,0.684-4.023-0.254-6.02-0.668c-2.941-0.609-6.322-2.742-8.664-1.889c-6.172,2.248-11.746,1.9-17.55-0.66
		c-1.108-0.488-3.09-0.67-3.848-0.027c-8.422,7.156-19.116-3.119-27.55,3.662c-0.456,0.365-1.69-0.078-2.494-0.348
		c-0.822-0.275-1.533-0.863-2.339-1.207c-5.527-2.359-29.658-2.949-35.485-1.027c-1.13,0.371-2.719,0.559-3.675,0.045
		c-5.274-2.828-10.029-2.004-14.926,1.068c-1.283,0.805-3.775,0.762-5.199,0.064c-5.458-2.676-10.693-3.793-16.286-0.367
		c-1.13,0.693-3.026,0.814-4.33,0.416c-3.722-1.139-7.32-2.682-10.095-3.734c1.129-4.412,3.502-8.961,3.004-13.172
		c-0.43-3.637-3.602-7.432-6.484-10.197c-5.328-5.113-15.903-5.225-20.694-0.934c-7.308,6.545-7.44,12.941-0.498,24.189
		c-15.554,1.896-30.458-7.809-47.071-3.297c1.082-1.273,2.067-2.646,3.262-3.805c11.013-10.668,12.404-18.873,4.869-32.363
		c-4.06-7.268-8.863-14.117-12.958-21.367c-1.327-2.348-1.915-5.346-2.041-8.082c-0.171-3.703,0.273-7.461,0.736-11.158
		c0.696-5.561,1.637-11.09,2.235-15.051c6.529,1.33,12.333,3.156,18.192,3.355c2.058,0.07,4.954-3.492,6.251-6.018
		c3.845-7.486-1.049-19.602-8.81-22.953c-9.166-3.961-12.173-1.615-18.842,13.879c0-9.164-0.184-18.334,0.151-27.486
		c0.069-1.893,1.702-4.879,3.24-5.359c5.834-1.826,9.657-5.102,10.396-11.264c0.937-7.816-1.212-14.766-8.368-18.596
		c-3.93-2.102-4.56-3.951-3.886-8.104c1.368-8.436,1.784-17.02,2.76-25.523c0.27-2.346,0.637-4.967,1.906-6.809
		c0.854-1.238,3.412-1.852,5.123-1.711c0.797,0.066,1.851,2.549,1.981,4.008c0.269,3.027-0.142,6.109-0.024,9.158
		c0.312,8.096,4.734,12.479,12.189,12.254c8.558-0.254,13.154-4.797,13.22-13.064c0.079-9.846,0.081-9.902,10.189-9.439
		c5.682,0.258,11.359,0.666,17.028,1.139c4.318,0.359,5.648,3.17,4.701,6.949c-1.844,7.361,0.597,13.129,5.37,18.711
		c3.952,4.621,8.419,5.508,14.079,4.982c2.944-0.273,6.338,0.529,9.012,1.873c5.786,2.91,11.589,3.328,16.945,0.096
		c5.101-3.076,7.142-8.178,5.684-14.275c-0.052-0.213-0.085-0.432-0.15-0.641c-2.088-6.742,7.31-6.557,7.258-11.959
		c-0.064-6.682,3.299-8.16,9.557-8.145c23.536,0.062,46.911,0.867,70.027,6.143c7.395,1.689,15.293,1.312,22.971,1.602
		c9.885,0.369,19.779,0.57,29.672,0.617c3.926,0.018,5.324,1.168,6.324,5.42c1.172,4.98,3.693,10.836,7.564,13.637
		c3.588,2.594,10.141,3.16,14.637,1.91c5.904-1.639,7.783-7.871,6.4-13.639c-1.65-6.887,0.963-8.699,7.303-9.424
		c16.133-1.842,32.217-4.166,48.275-6.604c5.461-0.83,9.068-0.223,11.189,5.814c2.352,6.689,5.979,12.924,8.938,19.408
		c3.725,8.162,11.941,9.873,18.701,3.836c0.965-0.863,1.973-1.771,3.121-2.32C662.387,546.229,664.371,537.647,656.691,527.878z
		 M658.334,607.804c-1.674-0.037-4.557-1.184-4.758-2.275c-0.758-4.135-0.643-8.428-0.855-12.662
		c1.451-0.285,2.902-0.568,4.354-0.852c1.275,4.008,2.803,7.965,3.664,12.059C660.973,605.177,659.164,607.819,658.334,607.804z
		 M672.537,639.067c3.029,3.836,2.682,8.143,1.654,12.545c-0.947,0.129-1.896,0.256-2.844,0.385
		c-0.533-4.186-1.066-8.369-1.602-12.557C670.676,639.317,671.605,639.192,672.537,639.067z M333.338,724.485
		c-2.036,3.766-6.841,6.035-10.438,8.955c-5.497-1.639-10.24-6.541-9.96-10.531c0.341-4.855,4.975-8.934,9.817-8.641
		C327.986,714.583,335.244,720.962,333.338,724.485z M267.023,624.659c0.588-0.709,2.039-4.141,4.286-4.781
		c4.111-1.172,8.359,4.889,8.483,11.1c0.072,3.576-0.657,6.74-5.001,7.035C270.372,638.312,267.058,633.522,267.023,624.659z
		 M258.869,584.47c0.019-3.969,0.438-7.938,0.732-12.348c5.609,3.656,7.284,9.309,4.43,13.549c-0.743,1.105-2.306,1.66-3.493,2.469
		C259.951,586.917,258.863,585.69,258.869,584.47z M348.322,239.991c0.201,1.513,0.686,2.99,1.047,4.481
		c1.225,5.055-0.34,7.741-4.817,7.087c-6.217-0.195-9.319-2.143-9.516-7.865c-0.511-14.893-1.553-29.771-1.842-44.666
		c-0.091-4.713,1.045-9.627,2.605-14.106c0.607-1.746,3.929-2.547,6.015-3.779c0.792,1.786,2.444,3.674,2.246,5.342
		C341.899,204.628,345.974,222.237,348.322,239.991z M347.435,168.04c-1.832,4.392-3.385,7.091-8.691,6.834
		c-5.46-0.265-8.56,3.498-9.396,8.445c-0.943,5.584-4.09,8.136-9.24,9.635c-14.116,4.111-28.167,8.456-42.175,12.92
		c-4.298,1.37-8.378,3.426-12.58,5.177c-3.918-11.633,0.494-24.688,8.364-33.206c13.326-14.425,30.188-23.958,45.763-35.245
		c30.16-21.858,60.646-43.266,91.083-64.739c2.425-1.71,5.423-3.236,8.3-3.563c11.013-1.251,22.085-1.977,33.137-2.899
		c0.157,0.763,0.314,1.525,0.473,2.289c-1.836,0.518-3.642,1.292-5.512,1.514c-12.877,1.525-24.518,5.804-35.381,13.189
		c-17.092,11.618-35.099,22.432-46.062,40.445C358.079,141.054,352.976,154.751,347.435,168.04z M258.141,426.528
		c3.375-1.916,6.588-4.314,10.199-5.539c1.726-0.586,4.8,0.42,6.255,1.783c19.357,18.127,39.185,35.834,52.458,59.4
		c2.991,5.311,7.321,9.857,10.922,14.838c1.026,1.42,1.656,3.125,2.51,4.779c-9.73,3.344-16.548,1.465-22.091-6.719
		c-6.629-9.789-13.587-19.502-21.539-28.211c-11.462-12.555-23.931-24.191-36.029-36.16c-0.897-0.889-2.271-1.293-3.422-1.922
		C257.649,428.028,257.895,427.278,258.141,426.528z M371.894,544.978c3.658,5.439,0.246,10.65-8.074,10.461
		c-1.029-0.713-3.773-1.859-5.384-3.9c-2.539-3.217-4.888-4.094-8.31-1.641c-3.597,2.578-7.253,3.057-10.763-0.195
		c-4.014-3.719-6.765-8.551-3.922-13.48c2.987-5.182,1.512-8.006-2.493-11.023c-1.202-0.904-2.651-2.129-2.958-3.447
		c-0.708-3.037-2.076-7.059-0.747-9.105c1.288-1.984,5.81-3.117,8.553-2.627c4.433,0.797,7.578,1.885,10.264-3.42
		c2.091-4.129,11.476-2.229,13.629,3.275c2.684,6.861,6.224,10.9,14.021,11.311c1.871,0.098,5.04,4.195,4.911,6.289
		c-0.159,2.562-2.695,6.396-5.016,7.139C369.081,536.696,368.039,539.243,371.894,544.978z M322.402,518.136
		c-1.889,0.904-3.769,2.559-5.668,2.582c-6.792,0.08-13.643,0.041-20.375-0.764c-9.229-1.107-18.37-2.957-27.548-4.488
		c-0.401-0.584-0.803-1.166-1.206-1.748c1.909-1.061,3.847-3.084,5.721-3.027c14.909,0.451,29.817,1.141,44.688,2.248
		C319.598,513.056,320.946,516.327,322.402,518.136z M289.743,535.228c0.076,4.395-1.698,7.289-6.459,7.053
		c-6.98-0.35-6.081-6.186-5.934-10.295c0.104-2.92,1.986-7.127,4.309-8.285C284.886,522.091,289.827,529.474,289.743,535.228z
		 M513.551,526.937c-22.514-0.121-44.955-1.371-67.396-5.717c-17.456-3.379-35.906-1.525-53.901-2.309
		c-3.713-0.16-7.367-1.699-11.048-2.604c0.276-0.982,0.552-1.967,0.828-2.949c6.531,0.453,13.056,1.08,19.595,1.322
		c19.542,0.729,39.425-0.688,58.538,2.52c18.015,3.023,35.909,2.533,53.759,2.93c20.527,0.459,41.16-1.801,61.672-3.689
		c12.867-1.186,25.631-3.674,38.365-5.982c4.133-0.748,6.189,0.746,6.225,4.316c0.012,1.164-2.908,3.148-4.688,3.41
		c-13.238,1.951-26.486,4.07-39.811,5.164C555.008,525.046,534.258,527.048,513.551,526.937z M547.447,542.837
		c-0.334,2.359-3.482,5.668-5.82,6.127c-5.174,1.014-10.273-4.799-10.24-10.445c0.023-4.301,1.857-5.613,7.736-5.537
		C544.965,533.058,548.352,536.433,547.447,542.837z M650.469,543.868c-4.5-0.557-7.215,0.422-8.309,5.152
		c-0.084,0.367-4.975,0.555-5.33-0.227c-1.545-3.381-2.234-7.15-2.904-9.58c5.73-2.145,9.574-3.553,13.393-5.025
		c1.488-0.572,2.922-1.281,4.381-1.928c1.047,2.549,2.736,5.066,2.869,7.662C654.637,541.241,651.742,544.024,650.469,543.868z
		 M647.693,517.493c-1.791-2.283-3.58-4.564-5.371-6.846c1.043-0.477,2.791-1.584,3.018-1.33c1.775,1.98,3.258,4.225,4.83,6.389
		C649.344,516.302,648.518,516.897,647.693,517.493z M644.814,525.481c-2.105,2.131-3.441,3.482-4.777,4.836
		c-1.434-2.475-3.244-4.828-4.088-7.488c-0.279-0.883,1.93-2.555,3-3.865C640.691,520.899,642.436,522.837,644.814,525.481z
		 M635.236,512.017c-7.598,3.984-6.758,10.287-4.988,16.947c0.209,0.781,0.195,1.625,0.283,2.439
		c-0.59,0.215-1.178,0.428-1.766,0.643c-0.92-2.514-2.424-4.98-2.633-7.551c-0.398-4.881-0.561-9.9,0.195-14.703
		c0.379-2.414,2.988-4.477,4.59-6.697c1.836,1.883,3.846,3.637,5.391,5.732C636.711,509.374,635.996,511.618,635.236,512.017z
		 M629.314,484.999c-3.049,12.684-9.078,18.842-22.086,20.182c-13.727,1.412-27.318,4.1-41.031,5.672
		c-20.945,2.4-41.891,4.982-63.084,2.42c-6.025-0.729-12.271,0.543-18.359,0.1c-14.592-1.062-29.127-3.08-43.73-3.83
		c-21.937-1.125-43.92-1.359-65.867-2.336c-3.139-0.139-6.22-2.225-9.271-3.541c-4.147-1.791-8.154-4.963-12.378-5.254
		c-5.313-0.363-8.608-2.369-11.379-6.426c-5.684-8.316-10.854-17.084-17.331-24.74c-11.44-13.523-23.659-26.393-35.646-39.447
		c-2.807-3.059-6.05-5.709-8.991-8.648c-4.449-4.447-8.981-7.77-15.643-3.938c-3.231,1.859-4.273-0.213-4.229-3.297
		c0.066-4.615,0.018-9.232,0.018-13.848c0.234,0.002,0.47,0.006,0.705,0.008c0.68-27.673,1.594-55.344,1.947-83.022
		c0.199-15.602-0.406-31.219-0.906-46.821c-0.158-4.927,1.198-7.808,6.427-8.872c16.989-3.457,33.896-7.313,50.881-10.791
		c4.716-0.966,9.039-0.222,12.072,4.502c3.394,5.286,9.105,4.81,14.351,4.392c4.765-0.379,7.639,1.201,10.053,5.458
		c5.737,10.119,10.712,21.125,18.419,29.556c9.775,10.693,21.667,19.558,33.211,28.478c5.489,4.241,12.24,6.882,18.505,10.08
		c12.852,6.559,26.189,10.783,40.969,9.846c10.036-0.636,20.218,0.604,30.198-0.377c23.945-2.354,42.453-15.865,59.91-31.032
		c18.086-15.715,31-35.16,40.037-57.189c1.713-4.178,3.787-5.308,8.213-5.567c13.678-0.803,26.68,1.795,39.48,6.138
		c7.541,2.559,7.434,3.208,5.111,10.575c-1.338,4.244-1.143,9.074-1.1,13.635c0.375,39.552,0.871,79.103,1.328,118.655
		c0.014,1.314-0.416,2.781,0.02,3.928c5.379,14.117-1.736,25.854-6.418,38.406C638.008,453.374,633.133,469.104,629.314,484.999z
		 M406.319,40.364c10.26-5.179,20.124,0.016,29.627,2.653c-42.49,18.88-83.075,40.179-119.657,68.539
		c-14.545,11.275-28.802,22.92-43.211,34.371c-0.641,0.509-1.482,0.767-3.284,0.337c2.833-3.943,5.553-7.974,8.519-11.814
		c10.005-12.953,23.191-22.467,35.189-33.332c18.155-16.443,39.888-27.096,59.562-40.983
		C383.576,52.713,394.827,46.165,406.319,40.364z M170.572,113.072c3.341-0.164,7.949,6.927,7.373,13.137
		c-4.162-3.626-7.424-6.364-10.417-9.372C167.369,116.676,169.443,113.127,170.572,113.072z M180.776,195.321
		c-4.792-1.884-6.23,0.377-7.168,4.575c-0.861,3.856-1.136,8.65-5.89,8.574c-4.265-5.704-7.819-10.856-11.906-15.543
		c-0.712-0.818-3.982-0.212-5.507,0.689c-1.901,1.125-3.219,3.238-3.749,3.806c-4.188-3.458-7.782-5.48-10.017-8.507
		c-2.899-3.924-6.686-6.412-10.163-9.458c-1.946-1.705-0.35-7.453-0.35-11.379c0.942-0.055,1.884-0.111,2.826-0.167
		c0.395,2.095,0.824,4.184,1.177,6.286c1.309,7.784,5.983,9.88,12.733,5.689c6.312-3.918,7.889-3.286,10.402,4.172
		c3.536,10.495,11.63,13.127,21.18,7.932c3.45-1.877,8.268-1.241,13.416-1.867C186.464,193.854,185.62,197.225,180.776,195.321z
		 M188.494,175.825c0.176,3.157-4.168,6.633-6.642,9.789c-0.315,0.401-2.662,0.037-2.87-0.467c-0.517-1.253-0.646-2.848-0.394-4.206
		c1-5.381,2.359-10.697,3.265-16.09c0.41-2.444,0.069-5.015,0.069-7.528c-0.949-0.176-1.898-0.353-2.847-0.529
		c-0.707,2.237-1.512,4.449-2.1,6.718c-1.152,4.45-1.771,9.096-3.462,13.32c-0.69,1.723-3.593,2.56-5.49,3.799
		c-1.103-1.864-3.401-3.942-3.112-5.557c1.572-8.784,3.896-17.429,5.675-26.182c0.35-1.725-0.559-3.706-0.888-5.569
		c-1.516,1.125-3.717,1.931-4.418,3.436c-2.028,4.351-3.337,9.03-5.153,13.49c-1.313,3.224-2.53,6.667-4.66,9.312
		c-1.322,1.643-4.27,1.979-6.487,2.9c-0.752-2.237-2.518-4.712-2.062-6.669c1.288-5.523,3.462-10.844,5.34-16.225
		c0.723-2.07,1.953-4.033,2.275-6.148c0.242-1.587-0.598-3.338-0.956-5.016c-1.259,1.204-3.023,2.18-3.683,3.652
		c-1.969,4.39-3.348,9.042-5.268,13.456c-1.116,2.564-2.481,5.213-4.408,7.156c-1.052,1.062-3.689,1.304-5.253,0.8
		c-0.823-0.264-1.613-3.206-1.141-4.456c1.608-4.254,3.832-8.272,5.726-12.424c1.034-2.267,1.879-4.622,1.81-7.396
		c-7.291,3.806-9.774,10.769-13.065,17.221c-1.444,2.832-3.144,5.919-5.591,7.711c-1.543,1.129-5.216,0.867-6.929-0.276
		c-1.191-0.795-1.66-4.747-0.747-6.251c3.384-5.566,6.579-11.826,11.498-15.755c9.025-7.209,19.086-13.18,29.051-19.101
		c1.929-1.146,5.874-0.558,8.079,0.676C184.228,134.927,187.338,155.152,188.494,175.825z M200.614,107.821
		c-4.675,1.855-9.206,4.089-13.743,6.273c-5.42,2.608-6.398-2.569-10.89-5.075c4.375-2.406,7.366-3.984,10.293-5.67
		c16.851-9.71,35.352-11.995,54.215-10.885c11.489,0.676,21.373,6.396,29.416,14.692c0.96,0.99,0.927,4.177,0.039,5.354
		c-0.779,1.034-4.189,1.583-5.099,0.798C244.702,95.909,222.899,98.979,200.614,107.821z M251.582,160.819
		c-1.028-0.711-2.057-1.422-3.085-2.134c2.673-5.694,4.658-11.858,8.16-16.986c7.649-11.206,15.674-22.212,24.301-32.675
		c6.68-8.1,13.857-16.055,21.969-22.653c15.09-12.273,30.561-24.206,46.751-34.958c12.767-8.478,28.155-10.528,43.121-12.88
		c0.49-0.077,1.07,0.414,1.513,0.601c-26.257,17.845-52.555,35.404-78.513,53.448C289.751,110.688,270.504,135.626,251.582,160.819z
		 M255.281,188.455c-0.666-2.385-1.957-4.788-1.889-7.151c0.3-10.306,7.304-16.954,13.951-23.495
		c22.927-22.561,48.915-41.452,75.562-59.099c21.517-14.25,44.98-25.558,67.578-38.176c2.487-1.389,5.221-2.492,7.384-4.279
		c10.477-8.658,21.812-6.004,33.13-2.624c1.443,0.432,2.366,2.608,3.53,3.976c-0.328,0.473-0.656,0.945-0.984,1.418
		c-15.639-3.936-28.855,0.034-41.778,9.604c-22.21,16.446-45.532,31.382-68.184,47.244c-18.135,12.699-36.508,25.158-53.736,39.017
		c-10.826,8.709-19.701,19.836-29.53,29.801C258.859,186.165,256.97,187.21,255.281,188.455z M218.101,559.263
		c0.53-13.738,3.243-27.41,5.288-41.066c2.974-19.861,8.112-39.162,17.133-57.174c3.605-7.197,8.312-13.871,12.798-20.594
		c2.888-4.328,6.034-3.789,9.729-0.266c15.623,14.893,30.179,30.645,42.232,48.652c3.625,5.416,8.212,10.189,12.736,15.719
		c-1.456,0.576-2.387,1.281-3.294,1.252c-12.74-0.398-25.476-0.965-38.216-1.34c-4.822-0.143-6.485-2.246-4.638-6.689
		c2.684-6.455,5.718-12.768,8.263-19.273c0.948-2.426,0.938-5.225,1.366-7.855c-2.368,1.57-5.438,2.639-6.982,4.799
		c-6.601,9.234-9.194,20.051-11.549,30.982c-1.048,4.863-3.378,9.438-4.884,14.217c-1.184,3.76-2.63,7.594-2.866,11.463
		c-1.397,22.986-2.612,45.988-3.582,68.996c-0.314,7.447,0.212,14.936,0.516,22.398c0.187,4.59-1.519,5.994-6.275,5.715
		c-8.717-0.51-17.486-0.145-27.148-0.145c0-5.336,0.048-9.254-0.008-13.17C218.442,597.007,217.374,578.101,218.101,559.263z
		 M691.443,744.101c-8.994,2.787-18.037,5.809-27.297,7.252c-19.674,3.068-39.605,4.557-59.225,7.9
		c-29.152,4.965-58.613,4.986-87.955,6.975c-2.188,0.146-4.396,0.018-6.596,0.018c-0.01,0.219-0.021,0.438-0.031,0.654
		c-18.619-1.174-37.223-2.859-55.858-3.342c-12.671-0.326-25.392,1.645-38.077,1.498c-18.884-0.219-37.75-1.627-56.635-2.102
		c-15.315-0.383-30.682,0.484-45.961-0.355c-14.438-0.793-28.88-2.572-43.141-4.98c-5.619-0.947-11.44-3.963-15.789-7.66
		c-1.931-1.643-0.438-7.311-0.498-11.15c2.638,0.328,5.953-0.221,7.763,1.178c3.33,2.57,5.531,1.652,8.071-0.596
		c3.151-2.787,5.753-3.318,8.592,0.836c0.819,1.197,4.729,1.693,6.131,0.801c3.424-2.184,5.972-2.664,8.334,1.018
		c2.016,3.141,4.345,3.385,7.062,0.934c2.856-2.578,5.1-2.213,7.873,0.611c1.296,1.32,4.733,2.041,6.342,1.264
		c4.403-2.133,8.1-2.33,12.379,0.324c1.61,0.998,4.999,1.109,6.418,0.059c4.212-3.113,7.651-2.504,11.26,0.615
		c2.979,2.576,5.833,2.398,8.823-0.193c4.544-3.938,8.877-3.133,12.576,1.256c2.688,3.189,5.156,2.891,7.649,0.006
		c3.896-4.508,7.593-5.578,11.974-0.346c0.744,0.887,4.39,0.645,5.604-0.375c6.143-5.16,8.895-5.424,14.514,0.197
		c2.335,2.336,3.927,2.797,6.558,0.379c5.235-4.807,8.621-4.727,13.366,0.266c3.41,3.59,5.834,4.188,9.572-0.039
		c3.035-3.434,7.562-4.408,11.785-0.793c3.632,3.111,7.009,4.24,10.562-0.496c2.602-3.467,6.312-3.189,9.196-0.338
		c3.265,3.229,6.077,3.826,9.622,0.559c3.961-3.65,8.033-2.914,11.787,0.469c3.326,2.996,6.32,3.273,9.771-0.037
		c3.424-3.285,7.602-3.752,11.338-0.582c2.932,2.49,5.32,2.361,8.17,0.121c3.758-2.957,7.299-3.58,10.92,0.688
		c0.787,0.928,4.344,0.916,5.381-0.029c4.111-3.744,7.867-5.004,12.939-1.564c1.391,0.945,5.002,0.459,6.363-0.754
		c3.332-2.971,6.105-3.105,9.186-0.143c2.762,2.656,5.215,2.84,7.707-0.414c2.508-3.275,5.275-2.613,8.727-1.008
		c2.354,1.096,5.682-0.074,8.244,0.77c7.344,2.412,14.422-1.402,21.693-0.438c2.482,0.328,5.162-0.643,7.727-1.145
		c1.949-0.381,3.848-1.023,5.795-1.412c0.594-0.119,1.686,0.521,1.861,0.291c4.451-5.848,10.377-2.064,15.658-2.613
		c5.961-0.621,11.918-1.717,17.734-3.17c9.254-2.314,18.256-5.994,27.621-7.387c7.191-1.07,5.639,8.16,9.576,11.557
		C694.861,739.351,692.945,743.634,691.443,744.101z M668.443,450.099c2.984,5.822,6.648,11.404,8.812,17.518
		c4.896,13.844,9.547,27.688,8.857,42.918c-0.623,13.805-0.26,27.744,0.896,41.52c1.354,16.135,3.742,32.207,6.312,48.203
		c0.836,5.193-0.875,6.35-5.244,6.268c-1.541-0.027-3.082,0.053-4.621,0.043c-7.75-0.057-7.758-0.805-8.293-8.232
		c-1.656-22.949-4.004-45.846-5.834-68.783c-0.969-12.152-4.572-24.176-1.732-36.584c0.447-1.953-1.268-4.402-1.982-6.621
		c-1.533,2.109-3.307,4.092-4.504,6.377c-0.656,1.254-0.225,3.039-0.494,4.549c-0.52,2.91-0.203,6.699-5.047,5.861
		c-4.582-0.791-5.656-3.783-4.418-7.807c3.547-11.514,7.115-23.02,10.867-34.467c1.08-3.299,2.812-6.383,4.246-9.566
		C666.992,450.896,667.717,450.497,668.443,450.099z M658.402,415.153c6.951,5.967,7.758,12.863,4.643,21.508
		c-4.898,13.602-9.836,27.197-14.346,40.932c-1.764,5.371-2.176,11.172-3.68,16.646c-0.639,2.324-3.002,6.297-3.725,6.115
		c-3.74-0.943-7.803-2.572-6.949-7.836c0.736-4.545,1.238-9.205,2.66-13.549C643.844,458.073,650.957,437.267,658.402,415.153z
		 M650.703,183.792c-0.758-1.106-1.625-1.784-1.633-2.472c-0.133-11.583-8.023-18.25-16.068-24.366
		c-18.52-14.079-37.438-27.632-56.057-41.582c-3.646-2.734-6.301-6.844-10.049-9.383c-17.41-11.795-34.889-23.502-52.662-34.737
		c-8.25-5.214-16.832-10.538-26.012-13.419c-5.926-1.859-13.209,0.679-19.891,1.123c-1.831,0.122-3.691-0.201-5.539-0.32
		c1.406-1.69,2.496-4.321,4.271-4.92c12.603-4.256,24.708-3.014,37.046,2.396c32.793,14.383,62.021,34.617,91.869,53.957
		c12.984,8.412,22.963,19.567,33.273,30.652c7.303,7.853,15.018,15.331,22.721,22.8C657.82,169.189,657.668,177.635,650.703,183.792
		z M657.256,149.101c-0.904,0.617-1.809,1.234-2.715,1.851c-3.975-4.532-8.238-8.844-11.865-13.64
		c-8.592-11.36-16.15-23.587-25.496-34.268c-9.576-10.946-20.172-21.218-31.453-30.393c-10.309-8.385-22.145-14.891-33.273-22.276
		c-1.457-0.966-2.713-2.239-3.434-4.18c26.078,12.363,52.57,24.429,69.768,48.944C631.457,113.203,649.502,127.712,657.256,149.101z
		 M719.643,110.857c-9.131-7.396-20.271-9.195-31.186-11.315c-16.369-3.18-32.246-2.707-46.215,8.328
		c-1.068,0.845-3.395,0.101-5.137,0.095c0.127-1.949-0.494-4.972,0.506-5.669c5.318-3.71,10.711-7.78,16.721-9.907
		c6.283-2.223,13.295-2.38,16.971-2.963c16.639,0.008,28.908,4.438,40.662,10.607c3.482,1.829,6.947,3.789,10.082,6.141
		c1.371,1.031,1.891,3.198,2.799,4.85C723.08,111.007,720.717,111.727,719.643,110.857z M779.26,173.416
		c-1.383,1.228-4.047,2.259-5.666,1.755c-5.885-1.83-7.732,0.291-8.611,6.026c-0.738,4.803-3.102,9.385-5.082,13.918
		c-0.174,0.401-3.643,0.274-4.205-0.547c-4.322-6.323-6.17-6.64-11.785-1.368c-0.16,0.15-0.293,0.35-0.479,0.452
		c-3.031,1.659-3.887,9.395-8.402,5.066c-2.445-2.345-1.197-8.838-1.051-13.441c0.055-1.766,1.678-3.481,2.781-5.588
		c11.719,3.459,14.096,2.075,17.129-10.438c7.43,7.179,12.967-1.792,19.779-1.732c1.969,0.017,4.283,0.143,5.756,1.185
		C780.189,169.244,780.131,172.643,779.26,173.416z M786.893,158.566c-1.574-0.716-3.756-1.004-4.621-2.224
		c-3.4-4.801-6.256-9.988-9.609-14.826c-1.041-1.502-3.021-2.353-4.572-3.502c-0.521,0.422-1.045,0.845-1.566,1.268
		c0.822,1.788,1.439,3.708,2.508,5.332c1.924,2.92,4.131,5.655,6.195,8.482c2.268,3.103,2.83,6.638-1.018,8.213
		c-1.365,0.559-5.139-2.189-6.33-4.275c-3.248-5.684-5.646-11.846-8.508-17.757c-0.754-1.559-1.756-3.127-3.02-4.277
		c-1.258-1.143-2.986-1.764-4.508-2.614c0.146,1.754-0.166,3.719,0.521,5.228c3.256,7.15,6.992,14.087,10.088,21.3
		c0.867,2.02,0.141,4.724,0.145,7.114c-2.408-0.656-5.889-0.527-7.041-2.102c-5.381-7.362-10.066-15.23-15.121-22.838
		c-1.529-2.303-3.443-4.352-5.182-6.517c0.184,2.741-0.307,5.754,0.672,8.172c3.451,8.521,7.658,16.739,10.986,25.302
		c0.824,2.118-0.584,5.105-0.967,7.692c-2.533-0.77-6.49-0.804-7.334-2.442c-2.738-5.319-4.404-11.202-6.334-16.919
		c-0.65-1.933-0.846-4.019-1.248-6.035c-0.867,0.056-1.73,0.111-2.594,0.167c-2.406,5.467-0.369,11.05,0.523,16.641
		c0.613,3.856,1.191,7.764,1.168,11.646c-0.006,0.947-2.783,2.948-3.684,2.649c-6.293-2.088-10.32-7.491-9.131-13.848
		c1.932-10.326,4.016-20.788,7.664-30.584c4.436-11.907,19.355-17.076,31.082-12.347c13.09,5.279,22.928,14.389,31.049,25.621
		c0.764,1.055,1.904,2.347,1.789,3.41C788.711,155.373,787.607,156.947,786.893,158.566z"/>
	<path fill-rule="evenodd" clip-rule="evenodd" d="M522.307,386.403c-17.326-0.839-34.732-1.591-52.039-0.845
		c-17.67,0.761-34.852-2.073-51.225-7.208c-22.092-6.928-43.335-16.564-64.947-25.029c-1.837-0.72-3.721-1.97-5.552-1.915
		c-3.271,0.097-7.949-0.083-9.409,1.845c-1.794,2.369-1.937,7.096-0.979,10.252c4.415,14.547,12.705,26.47,23.924,37.037
		c24.167,22.76,52.579,35.1,83.377,38.232c19.027-0.697,35.891-2.469,51.072-11.006c12.148-6.832,25.406-12.336,33.518-24.711
		C535.611,394.566,532.408,386.892,522.307,386.403z M438.16,390.292c7.851,0.571,14.967,1.291,22.099,1.55
		c7.102,0.258,14.22,0.057,21.331,0.057c0.287,0.747,0.576,1.493,0.863,2.24c-2.094,1.377-4.125,3.824-6.293,3.951
		c-10.387,0.609-20.821,0.932-31.219,0.637C440.477,398.599,437.383,395.71,438.16,390.292z M388.789,377.481
		c0.007-0.354,3.504-1.325,5.014-0.85c10.595,3.335,21.123,6.893,31.588,10.617c1.356,0.482,3.375,2.75,3.112,3.461
		c-0.831,2.248-2.26,5.476-4.069,5.938c-5.625,1.441-11.531,1.785-17.329,2.553c-0.029-0.221-0.058-0.443-0.086-0.664
		c-2.407,0-4.814-0.031-7.22,0.006c-4.199,0.066-9.271,0.615-10.384-4.524C388.26,388.692,388.678,383.003,388.789,377.481z
		 M381.104,399.458c-3.234,0.676-7.792,1.707-9.884,0.062c-12.423-9.765-22.74-21.334-26.427-37.379
		c-0.299-1.3,0.216-2.786,0.353-4.186c1.458,0.171,3.053,0.017,4.353,0.564c9.678,4.073,19.576,7.775,28.753,12.788
		c2.524,1.378,2.841,6.801,4.171,10.368c-0.543,0.166-1.087,0.331-1.631,0.496c0.268,3.497,0.654,6.989,0.763,10.49
		C381.628,395.027,381.715,399.331,381.104,399.458z M495.865,391.701c10.256,0.482,19.51,0.917,29.512,1.388
		C520.207,401.966,501.766,401.106,495.865,391.701z"/>
	<path fill-rule="evenodd" clip-rule="evenodd" d="M429.326,644.978c-0.056-9.732-11.456-19.273-23.055-19.295
		c-7.86-0.016-13.751,6.959-13.607,16.109c0.144,9.098,9.29,18.211,18.256,18.188C421.152,659.952,429.374,653.251,429.326,644.978z
		 M411.398,653.575c-6.318-0.082-12.12-6.146-11.881-12.42c0.227-5.977,2.614-8.779,7.394-8.682
		c8.041,0.166,15.961,6.725,15.63,12.945C422.314,649.655,416.862,653.647,411.398,653.575z"/>
	<path fill-rule="evenodd" clip-rule="evenodd" d="M477.498,609.606c0.756-10.088-9.94-20.436-21.868-21.152
		c-8.6-0.52-13.533,4.984-14.12,15.752c-0.525,9.623,6.299,17.051,16.081,17.508C469.92,622.288,476.863,618.065,477.498,609.606z
		 M470.238,610.366c-0.305,2.373-5.822,4.074-10.038,6.721c-4.425-2.994-9.439-4.65-11.028-7.957
		c-1.541-3.203-0.89-9.195,1.324-11.881c1.569-1.904,7.354-0.547,11.224-0.236c1.373,0.109,3.225,1.109,3.862,2.256
		C467.574,602.851,470.684,606.901,470.238,610.366z"/>
	<path fill-rule="evenodd" clip-rule="evenodd" d="M438.75,682.646c-9.633-0.416-17.412,6.398-17.811,15.465
		c-0.449,10.213,9.94,16.217,19.614,17.598c8.499,1.213,15.802-5.146,16.129-12.68C457.155,692.173,449.168,683.095,438.75,682.646z
		 M441.607,709.083c-6.971,0-14.244-5.682-14.23-11.121c0.01-4.723,4.721-8.67,10.422-8.734c6.863-0.078,11.902,4.818,12.228,11.883
		C450.239,705.726,446.694,709.083,441.607,709.083z"/>
	<path fill-rule="evenodd" clip-rule="evenodd" d="M431.214,563.132c10.618,0.656,18.315-5.273,18.917-14.574
		c0.625-9.662-7.059-17.02-18.645-17.85c-9.9-0.707-14.847,4.023-15.547,14.875C415.298,555.509,421.407,562.528,431.214,563.132z
		 M422.629,545.407c0.171-5.584,2.645-8.652,9.079-8.164c6.938,0.238,11.984,4.715,11.765,10.887
		c-0.184,5.166-4.561,8.719-10.481,8.512C425.692,556.384,422.402,552.774,422.629,545.407z"/>
	<path fill-rule="evenodd" clip-rule="evenodd" d="M372.7,672.216c-10.046-0.441-16.145,4.805-16.616,14.289
		c-0.606,12.205,6.079,19.711,18.022,20.229c8.656,0.377,14.479-6.271,14.952-17.07C389.494,679.728,382.87,672.663,372.7,672.216z
		 M382.58,688.923c-0.5,8.193-2.959,11.168-9.05,10.953c-7.23-0.256-11.523-4.635-11.314-11.545
		c0.192-6.373,3.991-9.75,10.681-9.494C378.74,679.06,382.917,683.409,382.58,688.923z"/>
	<path fill-rule="evenodd" clip-rule="evenodd" d="M310.954,658.716c-9.73-0.062-15.785,5.244-15.684,13.746
		c0.122,10.375,8.247,19.258,17.579,19.217c9.246-0.037,16.283-6.197,16.448-14.395C329.52,666.235,322.161,658.786,310.954,658.716
		z M312.812,685.142c-5.68,0.281-10.576-5.072-10.769-11.771c-0.158-5.502,2.772-8.072,9.354-8.205
		c6.815-0.135,11.087,4.016,11.205,10.887C322.692,681.345,318.932,684.839,312.812,685.142z"/>
	<path fill-rule="evenodd" clip-rule="evenodd" d="M406.776,586.821c0.036-6.527-10.188-15.387-18.064-15.656
		c-7.325-0.248-15.541,8.102-15.661,15.918c-0.144,9.377,6.386,17.623,14.103,17.807
		C397.567,605.14,406.723,596.708,406.776,586.821z M388.477,597.927c-5.163-0.047-9.072-4.459-8.597-10.266
		c0.408-4.984,2.568-9.068,8.23-9.428c5.432-0.346,12.13,5.162,11.909,9.34C399.701,593.591,394.805,597.979,388.477,597.927z"/>
	<path fill-rule="evenodd" clip-rule="evenodd" d="M488.004,641.62c-8.811-0.051-15.744,6.502-15.574,15.25
		c0.172,9.008,8.383,18.053,19.043,16.492c11.438,0.008,16.418-4.051,16.301-13.287C507.66,650.874,497.807,641.677,488.004,641.62z
		 M492.012,667.331c-7.104,0.295-13.305-5.01-13.188-11.018c0.092-4.729,3.848-7.904,9.357-7.91
		c6.184-0.01,12.961,6.029,12.889,11.654C500.992,666.022,496.688,667.136,492.012,667.331z"/>
	<path fill-rule="evenodd" clip-rule="evenodd" d="M362.147,632.091c0.153-9.498-7.986-18.471-16.782-18.504
		c-8.295-0.029-16.119,6.822-16.206,14.191c-0.12,10.246,7.82,18.613,17.937,18.902C355.91,646.935,362.004,641.024,362.147,632.091
		z M347.387,640.331c-5.584,0.088-12.34-6.309-12.129-11.082c0.206-4.664,5.504-9.285,10.469-9.127
		c5.041,0.158,10.378,6.428,10.158,12.76C355.243,637.083,352.585,640.249,347.387,640.331z"/>
	<path fill-rule="evenodd" clip-rule="evenodd" d="M496.855,578.997c8.424,0.061,16.283-7.445,16.342-15.607
		c0.057-7.77-9.742-16.232-18.707-16.156c-6.324,0.053-13.172,7.707-13.297,14.861C481.029,571.401,488.01,578.935,496.855,578.997z
		 M495.551,554.216c5.184-0.145,10.947,5.002,10.893,9.475c-0.053,4.225-5.279,9.123-9.701,9.092
		c-4.809-0.031-8.781-4.803-8.709-11.768C488.307,557.536,490.434,554.358,495.551,554.216z"/>
	<path fill-rule="evenodd" clip-rule="evenodd" d="M315.752,586.491c-0.006-8.521-9.216-17.33-18.222-17.43
		c-6.456-0.072-13.168,6.996-13.232,13.93c-0.069,7.541,10.188,19.051,17.186,19.281
		C309.251,602.53,315.759,595.333,315.752,586.491z M291.275,583.325c0.328-3.945,1.753-7.412,6.621-7.506
		c5.673-0.111,11.08,5.305,11.042,11.352c-0.71,3.887-1.563,8.135-7.2,8.15C297.409,595.335,290.889,587.987,291.275,583.325z"/>
	<path fill-rule="evenodd" clip-rule="evenodd" d="M539.883,622.196c0.068-9.775-9.855-18.18-21.336-18.07
		c-7.225,0.068-12.518,5.736-12.422,13.301c0.115,9.154,9.242,18.209,18.412,18.27C532.266,635.745,539.836,629.087,539.883,622.196
		z M533.145,621.544c-0.52,3.139-3.92,5.801-5.205,7.557c-8.842,0.312-14.883-5.078-15.023-11.373c-0.086-3.932,1.127-7,5.625-7.33
		C525.139,609.915,534.025,616.222,533.145,621.544z"/>
	<path fill-rule="evenodd" clip-rule="evenodd" d="M542.211,690.382c-7.221,0.195-11.965,6.062-11.826,14.623
		c0.166,10.258,7.945,16.713,19.707,16.35c7.572-0.234,10.637-3.939,10.426-12.605C560.275,698.876,551.559,690.13,542.211,690.382z
		 M546.885,715.21c-5.23-0.277-10.09-5.76-10.014-11.242c0.059-4.146,1.818-6.73,6.303-6.654c5.83,0.1,10.826,4.92,10.688,10.953
		C553.375,711.792,552.277,715.495,546.885,715.21z"/>
	<path fill-rule="evenodd" clip-rule="evenodd" d="M578.148,647.347c-7.842-0.078-13.637,7.451-13.59,17.658
		c0.031,6.863,7.455,13.455,15.271,13.562c8.717,0.121,14.223-5.766,14.25-15.236C594.102,656.308,585.24,647.417,578.148,647.347z
		 M587.242,664.317c-0.457,4.652-2.797,7.859-7.938,7.641c-4.688-0.199-8.135-4.523-7.752-10.369
		c0.061-3.615,1.65-7.312,6.793-7.742C582.473,653.503,587.691,659.737,587.242,664.317z"/>
	<path fill-rule="evenodd" clip-rule="evenodd" d="M573.947,586.993c0.037-8.598-6.969-16.391-14.746-16.402
		c-7.453-0.012-14.967,7.84-14.982,15.654c-0.016,7.85,8.035,14.695,17.213,14.639C570.25,600.829,573.904,596.772,573.947,586.993z
		 M561.443,594.653c-4.498,1.053-10.012-4.029-10.215-8.232c-0.23-4.729,3.328-8.768,7.826-8.887
		c4.678-0.125,8.221,4.164,8.32,12.393C566.188,590.933,564.105,594.028,561.443,594.653z"/>
	<path fill-rule="evenodd" clip-rule="evenodd" d="M588.408,623.944c0,8.607,8.949,18.252,16.865,18.178
		c7.389-0.07,10.51-4.186,10.352-13.646c-0.135-8.109-8.439-17.115-15.586-16.898C594.379,611.749,588.406,618.099,588.408,623.944z
		 M595.191,624.308c0.514-2.182,3.023-4.932,5.133-5.471c3.895-0.998,9,5.723,9.041,12.98c-0.742,0.73-2.256,3.504-4.25,3.908
		C601.471,636.464,594.264,628.257,595.191,624.308z"/>
	<path fill-rule="evenodd" clip-rule="evenodd" d="M602.295,701.397c-6.467,0.145-11.934,6.416-11.729,13.459
		c0.244,8.365,7.633,16.58,14.822,16.477c6.664-0.094,11.605-5.629,11.348-12.707C616.367,708.483,610.281,701.224,602.295,701.397z
		 M609.697,719.544c-0.664,0.742-2.203,3.943-4.572,4.773c-3.422,1.195-7.695-4.549-7.783-9.537
		c-0.066-3.834,1.488-6.779,5.57-6.414C607.826,708.81,609.889,712.312,609.697,719.544z"/>
	<path fill-rule="evenodd" clip-rule="evenodd" d="M615.594,597.585c5.949,7.57,12.693,6.111,16.34-2.9
		c0.805-1.99,0.99-4.232,1.568-6.842c-0.684-2.639-0.992-5.805-2.303-8.477c-2.533-5.158-6.543-9.094-12.754-8.561
		c-5.264,0.451-9.531,6.01-8.742,12.865C610.26,588.513,612.561,593.728,615.594,597.585z M619.932,578.122
		c2.746,2.5,5.494,4.998,9.197,8.369c-3.104,3.648-5.018,5.898-6.932,8.148c-2.027-3.334-4.721-6.475-5.781-10.094
		C615.932,582.89,618.66,580.292,619.932,578.122z"/>
	<path fill-rule="evenodd" clip-rule="evenodd" d="M583.85,563.118c6.436,0.131,10.977-4.809,10.951-11.908
		c-0.041-10.729-5.525-17.035-14.787-17.004c-7.359,0.025-10.553,3.68-10.408,11.91C569.76,554.956,576.471,562.964,583.85,563.118z
		 M576.365,546.106c0.402-2.123,2.691-5.143,4.535-5.471c3.705-0.66,7.566,5.139,7.369,11.865c-0.918,0.775-2.607,3.332-4.697,3.717
		C580.234,556.833,575.545,550.417,576.365,546.106z"/>
	<path fill-rule="evenodd" clip-rule="evenodd" d="M628.371,636.358c0.006,6.932,7.479,14.744,14.148,14.787
		c5.873,0.041,11.803-5.773,11.955-11.719c0.197-7.76-7.537-17.055-14.264-17.145C633.924,622.198,628.367,628.808,628.371,636.358z
		 M649.508,638.618c-2.891,2.738-4.361,5.215-6.377,5.795c-3.26,0.938-8.949-5.023-8.021-8.604c0.643-2.479,3.211-4.455,4.92-6.654
		C642.908,632.03,645.789,634.905,649.508,638.618z"/>
	<path fill-rule="evenodd" clip-rule="evenodd" d="M634.758,668.874c-4.879-2.59-10.793-0.402-12.115,4.955
		c-1.447,5.861-2.016,12.146,3.148,16.518c3.232,2.738,7.807,6.215,11.318,5.766c5.463-0.701,7.234-6.297,6.912-11.855
		C644.055,677.261,640.994,672.181,634.758,668.874z M634.717,689.343c-2.578-2.773-5.158-5.547-8.203-8.822
		c2.209-2.727,3.408-4.205,4.605-5.682c2.383,3.043,5.156,5.887,6.895,9.262C638.494,685.034,635.9,687.552,634.717,689.343z"/>
	<path fill-rule="evenodd" clip-rule="evenodd" d="M665.451,699.444c6.193,0.189,10.26-4.121,10.354-10.977
		c0.107-7.594-5.348-14.916-11.115-14.92c-4.195-0.004-9.316,6.945-9.41,12.77C655.164,693.622,659.535,699.263,665.451,699.444z
		 M665.004,681.28c1.666,2.225,3.955,4.266,4.701,6.766c0.305,1.025-2.719,3.043-4.229,4.609c-1.438-1.914-2.875-3.826-4.686-6.236
		C662.518,684.313,663.76,682.796,665.004,681.28z"/>
	<path fill-rule="evenodd" clip-rule="evenodd" d="M398.563,143.892c-13.797,14.65-23.996,30.909-23.184,52.039
		c0.253,6.583,1.148,13.159,1.09,19.732c-0.142,15.959,5.961,29.535,15.372,41.879c13.9,18.235,32.68,30.078,53.67,37.918
		c23.512,8.783,46.973,7.053,69.299-5.052c18.137-9.834,32.363-23.977,44.031-40.765c7.781-11.197,15.805-22.455,12.211-37.597
		c0.623,0.008,1.244,0.017,1.867,0.025c-1.395-11.052-1.352-22.529-4.473-33.07c-7.217-24.385-24.637-41.19-45.68-54.063
		c-13.947-8.535-29.357-13.184-46.055-14.286c-24.571-1.623-46.67,3.668-65.568,19.815
		C406.511,134.427,402.771,139.425,398.563,143.892z M474.203,117.196c40.855,3.572,71.422,23.172,87.215,61.856
		c3.822,9.362,4.092,20.651,4.012,31.039c-0.227,29.828-19.686,48.299-40.457,65.911c-16.209,13.745-35.18,18.291-55.742,17.871
		c-4.972-0.102-10.176-0.771-14.83-2.424c-16.611-5.903-32.999-12.562-45.422-25.739c-6.565-6.963-12.847-14.338-18.266-22.208
		c-9.421-13.683-7.456-29.885-8.631-45.258c-2.148-21.164,9.286-36.144,21.915-51.112
		C422.545,125.146,445.854,114.717,474.203,117.196z"/>
	<path fill-rule="evenodd" clip-rule="evenodd" d="M352.266,516.763c-6.295,0.004-10.752,4.6-10.561,10.887
		c0.277,9.086,5.591,15.051,13.238,14.859c6.299-0.16,12.642-6.719,12.505-12.938C367.312,523.259,359.604,516.757,352.266,516.763z
		 M354.802,535.528c-4.551,0.441-6.645-3.436-6.305-7.395c0.147-1.711,3.499-4.723,4.803-4.438
		c2.974,0.648,5.581,2.971,10.002,5.604C359.315,532.354,357.19,535.298,354.802,535.528z"/>
	<path fill-rule="evenodd" clip-rule="evenodd" d="M468.641,264.268c1.318,0,2.637,0.025,3.953-0.004
		c17.109-0.38,33.428-15.404,36.105-32.455c2.689-17.128-3.053-29.729-16.705-40.624c-13.77-10.988-28.606-12.564-44.02-7.979
		c-27.108,8.062-31.381,43.355-18.282,63.318C438.89,260.541,453.083,264.043,468.641,264.268z M442.91,192.574
		c11.488-7.103,24.869-7.688,37.168-1.341c12.969,6.692,22.885,16.263,22.896,32.491c0.014,19.39-15.221,34.569-36.695,34.4
		c-10.299-1.251-22.18-3.021-30.592-14.038C424.745,229.754,427.649,202.01,442.91,192.574z"/>
	<path fill-rule="evenodd" clip-rule="evenodd" d="M466.41,239.266c11.379,0.268,18.645-5.926,18.932-16.139
		c0.303-10.755-9.309-21.125-19.87-21.439c-11.089-0.331-19.97,8.096-20.032,18.968C445.381,230.687,454.217,240.136,466.41,239.266
		z"/>
</g>
</svg>
